G04*
G04 #@! TF.GenerationSoftware,Altium Limited,Altium Designer,23.4.1 (23)*
G04*
G04 Layer_Color=65280*
%FSLAX44Y44*%
%MOMM*%
G71*
G04*
G04 #@! TF.SameCoordinates,84FF7B06-7675-46D2-9C4A-C1C127FEE623*
G04*
G04*
G04 #@! TF.FilePolarity,Positive*
G04*
G01*
G75*
%ADD10C,0.2500*%
%ADD11C,0.0762*%
%ADD12C,0.1000*%
%ADD33C,0.2000*%
%ADD48C,0.2540*%
%ADD92C,0.1270*%
%ADD93C,0.0600*%
%ADD94C,0.2032*%
%ADD95C,0.1016*%
%ADD96C,0.1778*%
%ADD97C,0.1280*%
%ADD98C,0.1200*%
%ADD99R,0.3000X7.9500*%
%ADD100R,5.0000X0.3000*%
%ADD101R,5.0000X0.3000*%
%ADD102R,0.3000X2.9750*%
%ADD103R,0.3000X2.9750*%
D10*
X1648550Y290150D02*
G03*
X1648550Y290150I-1250J0D01*
G01*
X768750Y342000D02*
G03*
X768750Y342000I-1250J0D01*
G01*
X1128750Y242500D02*
G03*
X1128750Y242500I-1250J0D01*
G01*
X948750Y342000D02*
G03*
X948750Y342000I-1250J0D01*
G01*
D11*
X223690Y75588D02*
X246804Y75588D01*
X223690Y64412D02*
X223690Y75588D01*
X223690Y64412D02*
X246804Y64412D01*
X246804Y75588D01*
X884412Y281310D02*
X884412Y258196D01*
X895588Y258196D01*
X895588Y281310D02*
X895588Y258196D01*
X884412Y281310D02*
X895588Y281310D01*
X885588Y144304D02*
X885588Y121190D01*
X874412Y144304D02*
X885588Y144304D01*
X874412Y144304D02*
X874412Y121190D01*
X885588Y121190D01*
X900588Y175461D02*
X900588Y152347D01*
X889412Y175461D02*
X900588Y175461D01*
X889412Y175461D02*
X889412Y152347D01*
X900588Y152347D01*
X928196Y149412D02*
X951310Y149412D01*
X951310Y160588D01*
X928196Y160588D02*
X951310Y160588D01*
X928196Y149412D02*
X928196Y160588D01*
X909412Y175461D02*
X909412Y152347D01*
X920588Y152347D01*
X920588Y175461D02*
X920588Y152347D01*
X909412Y175461D02*
X920588Y175461D01*
X1064412Y281310D02*
X1064412Y258196D01*
X1075588Y258196D01*
X1075588Y281310D02*
X1075588Y258196D01*
X1064412Y281310D02*
X1075588Y281310D01*
X1364412Y113810D02*
X1364412Y90696D01*
X1375588Y90696D01*
X1375588Y113810D02*
X1375588Y90696D01*
X1364412Y113810D02*
X1375588Y113810D01*
X604412Y113810D02*
X604412Y90696D01*
X615588Y90696D01*
X615588Y113810D02*
X615588Y90696D01*
X604412Y113810D02*
X615588Y113810D01*
X464412Y83810D02*
X464412Y60696D01*
X475588Y60696D01*
X475588Y83810D02*
X475588Y60696D01*
X464412Y83810D02*
X475588Y83810D01*
X1344412Y83810D02*
X1344412Y60696D01*
X1355588Y60696D01*
X1355588Y83810D02*
X1355588Y60696D01*
X1344412Y83810D02*
X1355588Y83810D01*
X304412Y83810D02*
X304412Y60696D01*
X315588Y60696D01*
X315588Y83810D02*
X315588Y60696D01*
X304412Y83810D02*
X315588Y83810D01*
X1065588Y144304D02*
X1065588Y121190D01*
X1054412Y144304D02*
X1065588Y144304D01*
X1054412Y144304D02*
X1054412Y121190D01*
X1065588Y121190D01*
X748196Y149412D02*
X771310Y149412D01*
X771310Y160588D01*
X748196Y160588D02*
X771310Y160588D01*
X748196Y149412D02*
X748196Y160588D01*
X1103696Y145412D02*
X1126810Y145412D01*
X1126810Y156588D01*
X1103696Y156588D02*
X1126810Y156588D01*
X1103696Y145412D02*
X1103696Y156588D01*
X1080588Y175461D02*
X1080588Y152347D01*
X1069412Y175461D02*
X1080588Y175461D01*
X1069412Y175461D02*
X1069412Y152347D01*
X1080588Y152347D01*
X1277412Y83810D02*
X1277412Y60696D01*
X1288588Y60696D01*
X1288588Y83810D02*
X1288588Y60696D01*
X1277412Y83810D02*
X1288588Y83810D01*
X404412Y83810D02*
X415588Y83810D01*
X415588Y60696D01*
X404412Y60696D02*
X415588Y60696D01*
X404412Y83810D02*
X404412Y60696D01*
X153190Y64412D02*
X153190Y75588D01*
X176304Y75588D01*
X176304Y64412D02*
X176304Y75588D01*
X153190Y64412D02*
X176304Y64412D01*
X729412Y175461D02*
X740588Y175461D01*
X740588Y152347D01*
X729412Y152347D02*
X740588Y152347D01*
X729412Y175461D02*
X729412Y152347D01*
X1327412Y83810D02*
X1338588Y83810D01*
X1338588Y60696D01*
X1327412Y60696D02*
X1338588Y60696D01*
X1327412Y83810D02*
X1327412Y60696D01*
X694412Y121190D02*
X705588Y121190D01*
X694412Y144304D02*
X694412Y121190D01*
X694412Y144304D02*
X705588Y144304D01*
X705588Y121190D01*
X1089412Y175461D02*
X1100588Y175461D01*
X1100588Y152347D01*
X1089412Y152347D02*
X1100588Y152347D01*
X1089412Y175461D02*
X1089412Y152347D01*
X704412Y281310D02*
X715588Y281310D01*
X715588Y258196D01*
X704412Y258196D02*
X715588Y258196D01*
X704412Y281310D02*
X704412Y258196D01*
X709412Y152347D02*
X720588Y152347D01*
X709412Y175461D02*
X709412Y152347D01*
X709412Y175461D02*
X720588Y175461D01*
X720588Y152347D01*
X748196Y164412D02*
X748196Y175588D01*
X771310Y175588D01*
X771310Y164412D02*
X771310Y175588D01*
X748196Y164412D02*
X771310Y164412D01*
X689412Y281310D02*
X700588Y281310D01*
X700588Y258196D01*
X689412Y258196D02*
X700588Y258196D01*
X689412Y281310D02*
X689412Y258196D01*
X928196Y164412D02*
X928196Y175588D01*
X951310Y175588D01*
X951310Y164412D02*
X951310Y175588D01*
X928196Y164412D02*
X951310Y164412D01*
X859412Y214696D02*
X870588Y214696D01*
X859412Y237810D02*
X859412Y214696D01*
X859412Y237810D02*
X870588Y237810D01*
X870588Y214696D01*
X1054412Y152347D02*
X1065588Y152347D01*
X1054412Y175461D02*
X1054412Y152347D01*
X1054412Y175461D02*
X1065588Y175461D01*
X1065588Y152347D01*
X1039412Y213690D02*
X1050588Y213690D01*
X1039412Y236804D02*
X1039412Y213690D01*
X1039412Y236804D02*
X1050588Y236804D01*
X1050588Y213690D02*
X1050588Y236804D01*
X679412Y214696D02*
X690588Y214696D01*
X679412Y237810D02*
X679412Y214696D01*
X679412Y237810D02*
X690588Y237810D01*
X690588Y214696D01*
X364412Y83810D02*
X375588Y83810D01*
X375588Y60696D01*
X364412Y60696D02*
X375588Y60696D01*
X364412Y83810D02*
X364412Y60696D01*
X1103696Y130412D02*
X1103696Y141588D01*
X1126810Y141588D01*
X1126810Y130412D02*
X1126810Y141588D01*
X1103696Y130412D02*
X1126810Y130412D01*
X1049412Y281310D02*
X1060588Y281310D01*
X1060588Y258196D01*
X1049412Y258196D02*
X1060588Y258196D01*
X1049412Y281310D02*
X1049412Y258196D01*
X694412Y152347D02*
X705588Y152347D01*
X694412Y175461D02*
X694412Y152347D01*
X694412Y175461D02*
X705588Y175461D01*
X705588Y152347D01*
X444412Y83810D02*
X455588Y83810D01*
X455588Y60696D01*
X444412Y60696D02*
X455588Y60696D01*
X444412Y83810D02*
X444412Y60696D01*
X384412Y60696D02*
X395588Y60696D01*
X384412Y83810D02*
X384412Y60696D01*
X384412Y83810D02*
X395588Y83810D01*
X395588Y60696D01*
X604412Y83810D02*
X615588Y83810D01*
X615588Y60696D01*
X604412Y60696D02*
X615588Y60696D01*
X604412Y83810D02*
X604412Y60696D01*
X1364412Y83810D02*
X1375588Y83810D01*
X1375588Y60696D01*
X1364412Y60696D02*
X1375588Y60696D01*
X1364412Y83810D02*
X1364412Y60696D01*
X176310Y80662D02*
X176310Y91838D01*
X153196Y80662D02*
X176310Y80662D01*
X153196Y80662D02*
X153196Y91838D01*
X176310Y91838D01*
X223690Y87162D02*
X223690Y98338D01*
X246804Y98338D01*
X246804Y87162D02*
X246804Y98338D01*
X223690Y87162D02*
X246804Y87162D01*
X874412Y152347D02*
X885588Y152347D01*
X874412Y175461D02*
X874412Y152347D01*
X874412Y175461D02*
X885588Y175461D01*
X885588Y152347D01*
X869412Y281310D02*
X880588Y281310D01*
X880588Y258196D01*
X869412Y258196D02*
X880588Y258196D01*
X869412Y281310D02*
X869412Y258196D01*
X424412Y60696D02*
X435588Y60696D01*
X424412Y83810D02*
X424412Y60696D01*
X424412Y83810D02*
X435588Y83810D01*
X435588Y60696D01*
D12*
X194650Y79900D02*
G03*
X194650Y79900I-1000J0D01*
G01*
X1590000Y135000D02*
Y185000D01*
X1510000D02*
X1590000D01*
X1510000Y135000D02*
Y185000D01*
Y135000D02*
X1590000D01*
X190000Y76250D02*
Y96250D01*
X210000D01*
Y76250D02*
Y96250D01*
X190000Y76250D02*
X210000D01*
X924052Y234950D02*
Y239948D01*
X922386Y238282D01*
X920720Y239948D01*
Y234950D01*
X919054D02*
Y239948D01*
X916554D01*
X915721Y239115D01*
Y237449D01*
X916554Y236616D01*
X919054D01*
X910723Y239948D02*
X914055D01*
Y237449D01*
X912389Y238282D01*
X911556D01*
X910723Y237449D01*
Y235783D01*
X911556Y234950D01*
X913222D01*
X914055Y235783D01*
X1660030Y357542D02*
X1658364D01*
X1659197D01*
Y361707D01*
X1658364Y362540D01*
X1657531D01*
X1656698Y361707D01*
X1661696Y362540D02*
X1663362D01*
X1662529D01*
Y357542D01*
X1661696Y358375D01*
X944198Y210042D02*
Y215040D01*
X946697D01*
X947530Y214207D01*
Y210875D01*
X946697Y210042D01*
X944198D01*
X949196Y215040D02*
X950863D01*
X950029D01*
Y210042D01*
X949196Y210875D01*
X770890Y298114D02*
Y293116D01*
X767558D01*
X765892D02*
X764225D01*
X765059D01*
Y298114D01*
X765892Y297281D01*
X1131570Y291764D02*
Y286766D01*
X1128238D01*
X1123239D02*
X1126572D01*
X1123239Y290098D01*
Y290931D01*
X1124072Y291764D01*
X1125739D01*
X1126572Y290931D01*
X373126Y120772D02*
Y115774D01*
X370627D01*
X369794Y116607D01*
Y119939D01*
X370627Y120772D01*
X373126D01*
X368128D02*
X364795D01*
Y119939D01*
X368128Y116607D01*
Y115774D01*
X1657858Y172384D02*
X1654526Y167386D01*
Y172384D02*
X1657858Y167386D01*
X1649527Y171551D02*
X1650361Y172384D01*
X1652027D01*
X1652860Y171551D01*
Y170718D01*
X1652027Y169885D01*
X1650361D01*
X1649527Y169052D01*
Y168219D01*
X1650361Y167386D01*
X1652027D01*
X1652860Y168219D01*
X1647861Y167386D02*
X1646195D01*
X1647028D01*
Y172384D01*
X1647861Y171551D01*
X1554450Y244195D02*
X1555283Y245028D01*
X1556949D01*
X1557782Y244195D01*
Y240863D01*
X1556949Y240030D01*
X1555283D01*
X1554450Y240863D01*
X1549451Y240030D02*
X1552784D01*
X1549451Y243362D01*
Y244195D01*
X1550284Y245028D01*
X1551951D01*
X1552784Y244195D01*
X1547785Y240030D02*
X1546119D01*
X1546952D01*
Y245028D01*
X1547785Y244195D01*
X1554226Y162478D02*
Y157480D01*
X1550894D01*
X1546729D02*
Y162478D01*
X1549228Y159979D01*
X1545895D01*
X935960Y136753D02*
X936793Y137586D01*
X938459D01*
X939292Y136753D01*
Y133421D01*
X938459Y132588D01*
X936793D01*
X935960Y133421D01*
X930961Y132588D02*
X934294D01*
X930961Y135920D01*
Y136753D01*
X931795Y137586D01*
X933461D01*
X934294Y136753D01*
X926796Y132588D02*
Y137586D01*
X929295Y135087D01*
X925963D01*
X1311656Y82722D02*
Y78557D01*
X1310823Y77724D01*
X1309157D01*
X1308324Y78557D01*
Y82722D01*
X1304158Y77724D02*
Y82722D01*
X1306658Y80223D01*
X1303325D01*
X1081562Y214957D02*
Y210792D01*
X1080729Y209959D01*
X1079063D01*
X1078230Y210792D01*
Y214957D01*
X1076564Y214124D02*
X1075731Y214957D01*
X1074065D01*
X1073232Y214124D01*
Y213291D01*
X1074065Y212458D01*
X1074898D01*
X1074065D01*
X1073232Y211625D01*
Y210792D01*
X1074065Y209959D01*
X1075731D01*
X1076564Y210792D01*
X412496Y78486D02*
X407498D01*
Y75987D01*
X408331Y75154D01*
X409997D01*
X410830Y75987D01*
Y78486D01*
Y76820D02*
X412496Y75154D01*
Y73488D02*
Y71821D01*
Y72655D01*
X407498D01*
X408331Y73488D01*
X412496Y66823D02*
X407498D01*
X409997Y69322D01*
Y65990D01*
X167172Y71583D02*
X168006Y72416D01*
X169672D01*
X170505Y71583D01*
Y68251D01*
X169672Y67418D01*
X168006D01*
X167172Y68251D01*
X165506Y71583D02*
X164673Y72416D01*
X163007D01*
X162174Y71583D01*
Y70750D01*
X163007Y69917D01*
X163840D01*
X163007D01*
X162174Y69084D01*
Y68251D01*
X163007Y67418D01*
X164673D01*
X165506Y68251D01*
X160508Y67418D02*
X158842D01*
X159675D01*
Y72416D01*
X160508Y71583D01*
X204216Y88818D02*
Y84653D01*
X203383Y83820D01*
X201717D01*
X200884Y84653D01*
Y88818D01*
X195885D02*
X197551Y87985D01*
X199218Y86319D01*
Y84653D01*
X198385Y83820D01*
X196719D01*
X195885Y84653D01*
Y85486D01*
X196719Y86319D01*
X199218D01*
X901563Y214958D02*
Y210792D01*
X900730Y209959D01*
X899064D01*
X898231Y210792D01*
Y214958D01*
X893233Y209959D02*
X896565D01*
X893233Y213291D01*
Y214125D01*
X894066Y214958D01*
X895732D01*
X896565Y214125D01*
X720802Y214958D02*
Y210793D01*
X719969Y209960D01*
X718303D01*
X717470Y210793D01*
Y214958D01*
X715804Y209960D02*
X714137D01*
X714971D01*
Y214958D01*
X715804Y214125D01*
X733451Y164816D02*
X732618Y165649D01*
Y167315D01*
X733451Y168148D01*
X736783D01*
X737616Y167315D01*
Y165649D01*
X736783Y164816D01*
X733451Y163150D02*
X732618Y162317D01*
Y160651D01*
X733451Y159817D01*
X734284D01*
X735117Y160651D01*
Y161483D01*
Y160651D01*
X735950Y159817D01*
X736783D01*
X737616Y160651D01*
Y162317D01*
X736783Y163150D01*
X1331367Y73122D02*
X1330534Y73955D01*
Y75621D01*
X1331367Y76454D01*
X1334699D01*
X1335532Y75621D01*
Y73955D01*
X1334699Y73122D01*
X1330534Y68123D02*
Y71456D01*
X1333033D01*
X1332200Y69790D01*
Y68956D01*
X1333033Y68123D01*
X1334699D01*
X1335532Y68956D01*
Y70623D01*
X1334699Y71456D01*
X752572Y136753D02*
X753405Y137586D01*
X755071D01*
X755904Y136753D01*
Y133421D01*
X755071Y132588D01*
X753405D01*
X752572Y133421D01*
X750906Y132588D02*
X749240D01*
X750073D01*
Y137586D01*
X750906Y136753D01*
X698399Y133574D02*
X697566Y134407D01*
Y136073D01*
X698399Y136906D01*
X701731D01*
X702564Y136073D01*
Y134407D01*
X701731Y133574D01*
X697566Y131908D02*
Y128575D01*
X698399D01*
X701731Y131908D01*
X702564D01*
X1093369Y164816D02*
X1092536Y165649D01*
Y167315D01*
X1093369Y168148D01*
X1096701D01*
X1097534Y167315D01*
Y165649D01*
X1096701Y164816D01*
X1097534Y160651D02*
X1092536D01*
X1095035Y163150D01*
Y159817D01*
X1281329Y73122D02*
X1280496Y73955D01*
Y75621D01*
X1281329Y76454D01*
X1284661D01*
X1285494Y75621D01*
Y73955D01*
X1284661Y73122D01*
Y71456D02*
X1285494Y70623D01*
Y68956D01*
X1284661Y68123D01*
X1281329D01*
X1280496Y68956D01*
Y70623D01*
X1281329Y71456D01*
X1282162D01*
X1282995Y70623D01*
Y68123D01*
X762732Y156565D02*
X763565Y157398D01*
X765231D01*
X766064Y156565D01*
Y153233D01*
X765231Y152400D01*
X763565D01*
X762732Y153233D01*
X761066Y152400D02*
X759399D01*
X760233D01*
Y157398D01*
X761066Y156565D01*
X754401Y152400D02*
Y157398D01*
X756900Y154899D01*
X753568D01*
X1073303Y166848D02*
X1072470Y167681D01*
Y169347D01*
X1073303Y170180D01*
X1076635D01*
X1077468Y169347D01*
Y167681D01*
X1076635Y166848D01*
X1077468Y165182D02*
Y163515D01*
Y164349D01*
X1072470D01*
X1073303Y165182D01*
X1077468Y157684D02*
Y161016D01*
X1074136Y157684D01*
X1073303D01*
X1072470Y158517D01*
Y160183D01*
X1073303Y161016D01*
X1058317Y135606D02*
X1057484Y136439D01*
Y138105D01*
X1058317Y138938D01*
X1061649D01*
X1062482Y138105D01*
Y136439D01*
X1061649Y135606D01*
X1062482Y133940D02*
Y132274D01*
Y133107D01*
X1057484D01*
X1058317Y133940D01*
X1057484Y126442D02*
Y129774D01*
X1059983D01*
X1059150Y128108D01*
Y127275D01*
X1059983Y126442D01*
X1061649D01*
X1062482Y127275D01*
Y128941D01*
X1061649Y129774D01*
X1118078Y152755D02*
X1118911Y153588D01*
X1120577D01*
X1121410Y152755D01*
Y149423D01*
X1120577Y148590D01*
X1118911D01*
X1118078Y149423D01*
X1116412Y148590D02*
X1114745D01*
X1115579D01*
Y153588D01*
X1116412Y152755D01*
X1112246D02*
X1111413Y153588D01*
X1109747D01*
X1108914Y152755D01*
Y151922D01*
X1109747Y151089D01*
X1110580D01*
X1109747D01*
X1108914Y150256D01*
Y149423D01*
X1109747Y148590D01*
X1111413D01*
X1112246Y149423D01*
X1154400Y141579D02*
X1155233Y142412D01*
X1156899D01*
X1157732Y141579D01*
Y138247D01*
X1156899Y137414D01*
X1155233D01*
X1154400Y138247D01*
X1152734Y137414D02*
X1151068D01*
X1151901D01*
Y142412D01*
X1152734Y141579D01*
X1148568D02*
X1147735Y142412D01*
X1146069D01*
X1145236Y141579D01*
Y138247D01*
X1146069Y137414D01*
X1147735D01*
X1148568Y138247D01*
Y141579D01*
X1128238Y229209D02*
X1129071Y230042D01*
X1130737D01*
X1131570Y229209D01*
Y225877D01*
X1130737Y225044D01*
X1129071D01*
X1128238Y225877D01*
X1123239Y225044D02*
X1126572D01*
X1123239Y228376D01*
Y229209D01*
X1124072Y230042D01*
X1125739D01*
X1126572Y229209D01*
X1153638Y166725D02*
X1154471Y167558D01*
X1156137D01*
X1156970Y166725D01*
Y163393D01*
X1156137Y162560D01*
X1154471D01*
X1153638Y163393D01*
X1151972Y162560D02*
X1150305D01*
X1151139D01*
Y167558D01*
X1151972Y166725D01*
X1147806Y162560D02*
X1146140D01*
X1146973D01*
Y167558D01*
X1147806Y166725D01*
X708305Y270480D02*
X707472Y271313D01*
Y272979D01*
X708305Y273812D01*
X711637D01*
X712470Y272979D01*
Y271313D01*
X711637Y270480D01*
X708305Y268814D02*
X707472Y267981D01*
Y266315D01*
X708305Y265481D01*
X709138D01*
X709971Y266315D01*
X710804Y265481D01*
X711637D01*
X712470Y266315D01*
Y267981D01*
X711637Y268814D01*
X710804D01*
X709971Y267981D01*
X709138Y268814D01*
X708305D01*
X709971Y267981D02*
Y266315D01*
X713385Y164816D02*
X712552Y165649D01*
Y167315D01*
X713385Y168148D01*
X716717D01*
X717550Y167315D01*
Y165649D01*
X716717Y164816D01*
X712552Y159817D02*
X713385Y161483D01*
X715051Y163150D01*
X716717D01*
X717550Y162317D01*
Y160651D01*
X716717Y159817D01*
X715884D01*
X715051Y160651D01*
Y163150D01*
X1149604Y197530D02*
Y192532D01*
X1147105D01*
X1146272Y193365D01*
Y196697D01*
X1147105Y197530D01*
X1149604D01*
X1144606Y196697D02*
X1143773Y197530D01*
X1142106D01*
X1141273Y196697D01*
Y195864D01*
X1142106Y195031D01*
X1142940D01*
X1142106D01*
X1141273Y194198D01*
Y193365D01*
X1142106Y192532D01*
X1143773D01*
X1144606Y193365D01*
X764876Y216662D02*
X769874D01*
Y214163D01*
X769041Y213330D01*
X765709D01*
X764876Y214163D01*
Y216662D01*
X769874Y208331D02*
Y211664D01*
X766542Y208331D01*
X765709D01*
X764876Y209165D01*
Y210831D01*
X765709Y211664D01*
X951738Y298114D02*
Y293116D01*
X948406D01*
X946740Y297281D02*
X945907Y298114D01*
X944240D01*
X943407Y297281D01*
Y296448D01*
X944240Y295615D01*
X945073D01*
X944240D01*
X943407Y294782D01*
Y293949D01*
X944240Y293116D01*
X945907D01*
X946740Y293949D01*
X764032Y167386D02*
Y172384D01*
X761533D01*
X760700Y171551D01*
Y169885D01*
X761533Y169052D01*
X764032D01*
X762366D02*
X760700Y167386D01*
X756535D02*
Y172384D01*
X759034Y169885D01*
X755701D01*
X697484Y273812D02*
X692486D01*
Y271313D01*
X693319Y270480D01*
X694985D01*
X695818Y271313D01*
Y273812D01*
Y272146D02*
X697484Y270480D01*
X692486Y265481D02*
X693319Y267148D01*
X694985Y268814D01*
X696651D01*
X697484Y267981D01*
Y266315D01*
X696651Y265481D01*
X695818D01*
X694985Y266315D01*
Y268814D01*
X943864Y167386D02*
Y172384D01*
X941365D01*
X940532Y171551D01*
Y169885D01*
X941365Y169052D01*
X943864D01*
X942198D02*
X940532Y167386D01*
X938866Y171551D02*
X938033Y172384D01*
X936367D01*
X935533Y171551D01*
Y170718D01*
X936367Y169885D01*
X935533Y169052D01*
Y168219D01*
X936367Y167386D01*
X938033D01*
X938866Y168219D01*
Y169052D01*
X938033Y169885D01*
X938866Y170718D01*
Y171551D01*
X938033Y169885D02*
X936367D01*
X867410Y231648D02*
X862412D01*
Y229149D01*
X863245Y228316D01*
X864911D01*
X865744Y229149D01*
Y231648D01*
Y229982D02*
X867410Y228316D01*
Y226650D02*
Y224984D01*
Y225817D01*
X862412D01*
X863245Y226650D01*
X867410Y222484D02*
Y220818D01*
Y221651D01*
X862412D01*
X863245Y222484D01*
X1062482Y168148D02*
X1057484D01*
Y165649D01*
X1058317Y164816D01*
X1059983D01*
X1060816Y165649D01*
Y168148D01*
Y166482D02*
X1062482Y164816D01*
X1058317Y163150D02*
X1057484Y162317D01*
Y160651D01*
X1058317Y159817D01*
X1059150D01*
X1059983Y160651D01*
Y161483D01*
Y160651D01*
X1060816Y159817D01*
X1061649D01*
X1062482Y160651D01*
Y162317D01*
X1061649Y163150D01*
X1047496Y229362D02*
X1042498D01*
Y226863D01*
X1043331Y226030D01*
X1044997D01*
X1045830Y226863D01*
Y229362D01*
Y227696D02*
X1047496Y226030D01*
X1046663Y224364D02*
X1047496Y223531D01*
Y221864D01*
X1046663Y221031D01*
X1043331D01*
X1042498Y221864D01*
Y223531D01*
X1043331Y224364D01*
X1044164D01*
X1044997Y223531D01*
Y221031D01*
X687578Y230378D02*
X682580D01*
Y227879D01*
X683413Y227046D01*
X685079D01*
X685912Y227879D01*
Y230378D01*
Y228712D02*
X687578Y227046D01*
Y222047D02*
Y225380D01*
X684246Y222047D01*
X683413D01*
X682580Y222880D01*
Y224547D01*
X683413Y225380D01*
X372618Y78486D02*
X367620D01*
Y75987D01*
X368453Y75154D01*
X370119D01*
X370952Y75987D01*
Y78486D01*
Y76820D02*
X372618Y75154D01*
Y73488D02*
Y71821D01*
Y72655D01*
X367620D01*
X368453Y73488D01*
X367620Y65990D02*
X368453Y67656D01*
X370119Y69322D01*
X371785D01*
X372618Y68489D01*
Y66823D01*
X371785Y65990D01*
X370952D01*
X370119Y66823D01*
Y69322D01*
X1118616Y133604D02*
Y138602D01*
X1116117D01*
X1115284Y137769D01*
Y136103D01*
X1116117Y135270D01*
X1118616D01*
X1116950D02*
X1115284Y133604D01*
X1113618D02*
X1111952D01*
X1112785D01*
Y138602D01*
X1113618Y137769D01*
X1057402Y273812D02*
X1052404D01*
Y271313D01*
X1053237Y270480D01*
X1054903D01*
X1055736Y271313D01*
Y273812D01*
Y272146D02*
X1057402Y270480D01*
X1052404Y268814D02*
Y265481D01*
X1053237D01*
X1056569Y268814D01*
X1057402D01*
X702564Y168148D02*
X697566D01*
Y165649D01*
X698399Y164816D01*
X700065D01*
X700898Y165649D01*
Y168148D01*
Y166482D02*
X702564Y164816D01*
X697566Y159817D02*
Y163150D01*
X700065D01*
X699232Y161483D01*
Y160651D01*
X700065Y159817D01*
X701731D01*
X702564Y160651D01*
Y162317D01*
X701731Y163150D01*
X308255Y75154D02*
X307422Y75987D01*
Y77653D01*
X308255Y78486D01*
X311587D01*
X312420Y77653D01*
Y75987D01*
X311587Y75154D01*
X312420Y73488D02*
Y71821D01*
Y72655D01*
X307422D01*
X308255Y73488D01*
X307422Y65990D02*
X308255Y67656D01*
X309921Y69322D01*
X311587D01*
X312420Y68489D01*
Y66823D01*
X311587Y65990D01*
X310754D01*
X309921Y66823D01*
Y69322D01*
X1348385Y75154D02*
X1347552Y75987D01*
Y77653D01*
X1348385Y78486D01*
X1351717D01*
X1352550Y77653D01*
Y75987D01*
X1351717Y75154D01*
X1352550Y73488D02*
Y71821D01*
Y72655D01*
X1347552D01*
X1348385Y73488D01*
X1347552Y69322D02*
Y65990D01*
X1348385D01*
X1351717Y69322D01*
X1352550D01*
X468275Y75154D02*
X467442Y75987D01*
Y77653D01*
X468275Y78486D01*
X471607D01*
X472440Y77653D01*
Y75987D01*
X471607Y75154D01*
X472440Y73488D02*
Y71821D01*
Y72655D01*
X467442D01*
X468275Y73488D01*
Y69322D02*
X467442Y68489D01*
Y66823D01*
X468275Y65990D01*
X469108D01*
X469941Y66823D01*
X470774Y65990D01*
X471607D01*
X472440Y66823D01*
Y68489D01*
X471607Y69322D01*
X470774D01*
X469941Y68489D01*
X469108Y69322D01*
X468275D01*
X469941Y68489D02*
Y66823D01*
X608229Y105126D02*
X607396Y105959D01*
Y107625D01*
X608229Y108458D01*
X611561D01*
X612394Y107625D01*
Y105959D01*
X611561Y105126D01*
X612394Y103460D02*
Y101793D01*
Y102627D01*
X607396D01*
X608229Y103460D01*
X611561Y99294D02*
X612394Y98461D01*
Y96795D01*
X611561Y95962D01*
X608229D01*
X607396Y96795D01*
Y98461D01*
X608229Y99294D01*
X609062D01*
X609895Y98461D01*
Y95962D01*
X1368451Y105634D02*
X1367618Y106467D01*
Y108133D01*
X1368451Y108966D01*
X1371783D01*
X1372616Y108133D01*
Y106467D01*
X1371783Y105634D01*
X1372616Y100635D02*
Y103968D01*
X1369284Y100635D01*
X1368451D01*
X1367618Y101468D01*
Y103135D01*
X1368451Y103968D01*
Y98969D02*
X1367618Y98136D01*
Y96470D01*
X1368451Y95637D01*
X1371783D01*
X1372616Y96470D01*
Y98136D01*
X1371783Y98969D01*
X1368451D01*
X475234Y120822D02*
Y115824D01*
X472735D01*
X471902Y116657D01*
Y119989D01*
X472735Y120822D01*
X475234D01*
X467737Y115824D02*
Y120822D01*
X470236Y118323D01*
X466903D01*
X441198Y120772D02*
Y115774D01*
X438699D01*
X437866Y116607D01*
Y119939D01*
X438699Y120772D01*
X441198D01*
X432867D02*
X436200D01*
Y118273D01*
X434534Y119106D01*
X433700D01*
X432867Y118273D01*
Y116607D01*
X433700Y115774D01*
X435367D01*
X436200Y116607D01*
X407162Y120822D02*
Y115824D01*
X404663D01*
X403830Y116657D01*
Y119989D01*
X404663Y120822D01*
X407162D01*
X398831D02*
X400498Y119989D01*
X402164Y118323D01*
Y116657D01*
X401331Y115824D01*
X399664D01*
X398831Y116657D01*
Y117490D01*
X399664Y118323D01*
X402164D01*
X452374Y78486D02*
X447376D01*
Y75987D01*
X448209Y75154D01*
X449875D01*
X450708Y75987D01*
Y78486D01*
Y76820D02*
X452374Y75154D01*
Y73488D02*
Y71821D01*
Y72655D01*
X447376D01*
X448209Y73488D01*
X452374Y65990D02*
Y69322D01*
X449042Y65990D01*
X448209D01*
X447376Y66823D01*
Y68489D01*
X448209Y69322D01*
X392430Y78486D02*
X387432D01*
Y75987D01*
X388265Y75154D01*
X389931D01*
X390764Y75987D01*
Y78486D01*
Y76820D02*
X392430Y75154D01*
Y73488D02*
Y71821D01*
Y72655D01*
X387432D01*
X388265Y73488D01*
X387432Y65990D02*
Y69322D01*
X389931D01*
X389098Y67656D01*
Y66823D01*
X389931Y65990D01*
X391597D01*
X392430Y66823D01*
Y68489D01*
X391597Y69322D01*
X612394Y78486D02*
X607396D01*
Y75987D01*
X608229Y75154D01*
X609895D01*
X610728Y75987D01*
Y78486D01*
Y76820D02*
X612394Y75154D01*
Y73488D02*
Y71821D01*
Y72655D01*
X607396D01*
X608229Y73488D01*
X607396Y69322D02*
Y65990D01*
X608229D01*
X611561Y69322D01*
X612394D01*
X1372616Y78486D02*
X1367618D01*
Y75987D01*
X1368451Y75154D01*
X1370117D01*
X1370950Y75987D01*
Y78486D01*
Y76820D02*
X1372616Y75154D01*
Y73488D02*
Y71821D01*
Y72655D01*
X1367618D01*
X1368451Y73488D01*
Y69322D02*
X1367618Y68489D01*
Y66823D01*
X1368451Y65990D01*
X1369284D01*
X1370117Y66823D01*
X1370950Y65990D01*
X1371783D01*
X1372616Y66823D01*
Y68489D01*
X1371783Y69322D01*
X1370950D01*
X1370117Y68489D01*
X1369284Y69322D01*
X1368451D01*
X1370117Y68489D02*
Y66823D01*
X170942Y83820D02*
Y88818D01*
X168443D01*
X167610Y87985D01*
Y86319D01*
X168443Y85486D01*
X170942D01*
X169276D02*
X167610Y83820D01*
X165944D02*
X164277D01*
X165111D01*
Y88818D01*
X165944Y87985D01*
X161778Y84653D02*
X160945Y83820D01*
X159279D01*
X158446Y84653D01*
Y87985D01*
X159279Y88818D01*
X160945D01*
X161778Y87985D01*
Y87152D01*
X160945Y86319D01*
X158446D01*
X241808Y90170D02*
Y95168D01*
X239309D01*
X238476Y94335D01*
Y92669D01*
X239309Y91836D01*
X241808D01*
X240142D02*
X238476Y90170D01*
X233477D02*
X236810D01*
X233477Y93502D01*
Y94335D01*
X234310Y95168D01*
X235977D01*
X236810Y94335D01*
X231811D02*
X230978Y95168D01*
X229312D01*
X228479Y94335D01*
Y91003D01*
X229312Y90170D01*
X230978D01*
X231811Y91003D01*
Y94335D01*
X1068223Y273020D02*
X1067390Y273853D01*
Y275519D01*
X1068223Y276352D01*
X1071555D01*
X1072388Y275519D01*
Y273853D01*
X1071555Y273020D01*
X1072388Y268021D02*
Y271354D01*
X1069056Y268021D01*
X1068223D01*
X1067390Y268854D01*
Y270520D01*
X1068223Y271354D01*
X1072388Y263023D02*
Y266355D01*
X1069056Y263023D01*
X1068223D01*
X1067390Y263856D01*
Y265522D01*
X1068223Y266355D01*
X913283Y167356D02*
X912450Y168189D01*
Y169855D01*
X913283Y170688D01*
X916615D01*
X917448Y169855D01*
Y168189D01*
X916615Y167356D01*
X917448Y162357D02*
Y165690D01*
X914116Y162357D01*
X913283D01*
X912450Y163190D01*
Y164856D01*
X913283Y165690D01*
Y160691D02*
X912450Y159858D01*
Y158192D01*
X913283Y157359D01*
X914116D01*
X914949Y158192D01*
Y159025D01*
Y158192D01*
X915782Y157359D01*
X916615D01*
X917448Y158192D01*
Y159858D01*
X916615Y160691D01*
X943072Y156565D02*
X943905Y157398D01*
X945571D01*
X946404Y156565D01*
Y153233D01*
X945571Y152400D01*
X943905D01*
X943072Y153233D01*
X938073Y152400D02*
X941406D01*
X938073Y155732D01*
Y156565D01*
X938906Y157398D01*
X940573D01*
X941406Y156565D01*
X933075Y157398D02*
X936407D01*
Y154899D01*
X934741Y155732D01*
X933908D01*
X933075Y154899D01*
Y153233D01*
X933908Y152400D01*
X935574D01*
X936407Y153233D01*
X893217Y167356D02*
X892384Y168189D01*
Y169855D01*
X893217Y170688D01*
X896549D01*
X897382Y169855D01*
Y168189D01*
X896549Y167356D01*
X897382Y162357D02*
Y165690D01*
X894050Y162357D01*
X893217D01*
X892384Y163190D01*
Y164856D01*
X893217Y165690D01*
X892384Y157359D02*
X893217Y159025D01*
X894883Y160691D01*
X896549D01*
X897382Y159858D01*
Y158192D01*
X896549Y157359D01*
X895716D01*
X894883Y158192D01*
Y160691D01*
X878231Y136114D02*
X877398Y136947D01*
Y138613D01*
X878231Y139446D01*
X881563D01*
X882396Y138613D01*
Y136947D01*
X881563Y136114D01*
X882396Y131115D02*
Y134448D01*
X879064Y131115D01*
X878231D01*
X877398Y131948D01*
Y133615D01*
X878231Y134448D01*
X877398Y129449D02*
Y126117D01*
X878231D01*
X881563Y129449D01*
X882396D01*
X888391Y273020D02*
X887558Y273853D01*
Y275519D01*
X888391Y276352D01*
X891723D01*
X892556Y275519D01*
Y273853D01*
X891723Y273020D01*
X892556Y268021D02*
Y271354D01*
X889224Y268021D01*
X888391D01*
X887558Y268854D01*
Y270520D01*
X888391Y271354D01*
Y266355D02*
X887558Y265522D01*
Y263856D01*
X888391Y263023D01*
X889224D01*
X890057Y263856D01*
X890890Y263023D01*
X891723D01*
X892556Y263856D01*
Y265522D01*
X891723Y266355D01*
X890890D01*
X890057Y265522D01*
X889224Y266355D01*
X888391D01*
X890057Y265522D02*
Y263856D01*
X882396Y169672D02*
X877398D01*
Y167173D01*
X878231Y166340D01*
X879897D01*
X880730Y167173D01*
Y169672D01*
Y168006D02*
X882396Y166340D01*
Y161341D02*
Y164674D01*
X879064Y161341D01*
X878231D01*
X877398Y162174D01*
Y163841D01*
X878231Y164674D01*
X882396Y159675D02*
Y158009D01*
Y158842D01*
X877398D01*
X878231Y159675D01*
X877570Y276352D02*
X872572D01*
Y273853D01*
X873405Y273020D01*
X875071D01*
X875904Y273853D01*
Y276352D01*
Y274686D02*
X877570Y273020D01*
Y268021D02*
Y271354D01*
X874238Y268021D01*
X873405D01*
X872572Y268854D01*
Y270520D01*
X873405Y271354D01*
X877570Y263023D02*
Y266355D01*
X874238Y263023D01*
X873405D01*
X872572Y263856D01*
Y265522D01*
X873405Y266355D01*
X432562Y78486D02*
X427564D01*
Y75987D01*
X428397Y75154D01*
X430063D01*
X430896Y75987D01*
Y78486D01*
Y76820D02*
X432562Y75154D01*
Y73488D02*
Y71821D01*
Y72655D01*
X427564D01*
X428397Y73488D01*
Y69322D02*
X427564Y68489D01*
Y66823D01*
X428397Y65990D01*
X429230D01*
X430063Y66823D01*
Y67656D01*
Y66823D01*
X430896Y65990D01*
X431729D01*
X432562Y66823D01*
Y68489D01*
X431729Y69322D01*
X238482Y71729D02*
X239315Y72562D01*
X240981D01*
X241814Y71729D01*
Y68397D01*
X240981Y67564D01*
X239315D01*
X238482Y68397D01*
X236816Y71729D02*
X235982Y72562D01*
X234316D01*
X233483Y71729D01*
Y70896D01*
X234316Y70063D01*
X235149D01*
X234316D01*
X233483Y69230D01*
Y68397D01*
X234316Y67564D01*
X235982D01*
X236816Y68397D01*
X231817Y71729D02*
X230984Y72562D01*
X229318D01*
X228485Y71729D01*
Y68397D01*
X229318Y67564D01*
X230984D01*
X231817Y68397D01*
Y71729D01*
X0Y50000D02*
G03*
X50000Y-0I50000J0D01*
G01*
X1650000Y-0D02*
G03*
X1700000Y50000I0J50000D01*
G01*
Y550000D02*
G03*
X1650000Y600000I-50000J0D01*
G01*
X50000D02*
G03*
X0Y550000I0J-50000D01*
G01*
X50000Y-0D02*
X1650000D01*
X1700000Y50000D02*
Y550000D01*
X50000Y600000D02*
X1650000D01*
X0Y50000D02*
Y550000D01*
D33*
X1632000Y474150D02*
X1688000D01*
Y245850D02*
Y474150D01*
X1632000Y245850D02*
X1688000D01*
X1632000D02*
Y474150D01*
X788500Y327500D02*
X802500Y313500D01*
X788500Y257500D02*
X802500Y271500D01*
X732500D02*
X746500Y257500D01*
X732500Y313500D02*
X746500Y327500D01*
X1092500Y271500D02*
X1106500Y257500D01*
X1092500Y313500D02*
X1106500Y327500D01*
X1148500D02*
X1162500Y313500D01*
X1148500Y257500D02*
X1162500Y271500D01*
X968500Y327500D02*
X982500Y313500D01*
X968500Y257500D02*
X982500Y271500D01*
X912500D02*
X926500Y257500D01*
X912500Y313500D02*
X926500Y327500D01*
D48*
X1592500Y242500D02*
G03*
X1592500Y242500I-40000J0D01*
G01*
X1091809Y202113D02*
G03*
X1091809Y202113I-1262J0D01*
G01*
X911810Y202113D02*
G03*
X911810Y202113I-1262J0D01*
G01*
X731811Y202114D02*
G03*
X731811Y202114I-1262J0D01*
G01*
X1522380Y250420D02*
X1522380Y235180D01*
X1514760Y242800D02*
X1530000Y242800D01*
D92*
X962000Y189500D02*
Y235500D01*
X933000Y189500D02*
Y235500D01*
X962000Y235500D01*
X933000Y189500D02*
X962000Y189500D01*
X377050Y103616D02*
Y113014D01*
X359270Y114030D02*
Y122666D01*
X377050Y123682D02*
Y132826D01*
X363080Y103616D02*
X377050D01*
X363080Y133080D02*
X377050D01*
X1312789Y87304D02*
X1322000D01*
X1303136Y69524D02*
X1311772D01*
X1292977Y87304D02*
X1302121D01*
X1322000Y73334D02*
Y87304D01*
X1293000Y73334D02*
Y87304D01*
X1122350Y180500D02*
X1168350D01*
X1122350Y209500D02*
X1168350D01*
X1168350Y180500D01*
X1122350Y209500D02*
X1122350Y180500D01*
X782000Y189500D02*
Y235500D01*
X753000Y189500D02*
Y235500D01*
X782000Y235500D01*
X753000Y189500D02*
X782000Y189500D01*
X462950Y123682D02*
Y133080D01*
X480730Y114030D02*
Y122666D01*
X462950Y103870D02*
Y113014D01*
Y133080D02*
X476920D01*
X462950Y103616D02*
X476920D01*
X445050Y103616D02*
Y113014D01*
X427270Y114030D02*
Y122666D01*
X445050Y123682D02*
Y132826D01*
X431080Y103616D02*
X445050D01*
X431080Y133080D02*
X445050D01*
X394950Y123682D02*
Y133080D01*
X412730Y114030D02*
Y122666D01*
X394950Y103870D02*
Y113014D01*
Y133080D02*
X408920D01*
X394950Y103616D02*
X408920D01*
D93*
X1640000Y130250D02*
Y209750D01*
X1690000D01*
X1640000Y130250D02*
X1690000D01*
Y209750D01*
D94*
X1533500Y284000D02*
X1593500Y284000D01*
X1533500Y201000D02*
X1593500Y201000D01*
Y284000D01*
X1510500Y267500D02*
X1533500Y284000D01*
X1510500Y217500D02*
Y267500D01*
Y217500D02*
X1533500Y201000D01*
D95*
X910924Y124840D02*
X910924Y145160D01*
X910924Y124840D02*
X954104Y124840D01*
X910924Y145160D02*
X954104Y145160D01*
X954104Y124840D02*
X954104Y145160D01*
X730924Y124840D02*
X730924Y145160D01*
X730924Y124840D02*
X774104Y124840D01*
X730924Y145160D02*
X774104Y145160D01*
X774104Y124840D02*
X774104Y145160D01*
X1173135Y129840D02*
X1173135Y150160D01*
X1129955Y150160D02*
X1173135Y150160D01*
X1129955Y129840D02*
X1173135Y129840D01*
X1129955Y129840D02*
X1129955Y150160D01*
X1105910Y217340D02*
X1105910Y237660D01*
X1105910Y217340D02*
X1149090Y217340D01*
X1105910Y237660D02*
X1149090Y237660D01*
X1149090Y217340D02*
X1149090Y237660D01*
X1173135Y154840D02*
X1173135Y175160D01*
X1129955Y175160D02*
X1173135Y175160D01*
X1129955Y154840D02*
X1173135Y154840D01*
X1129955Y154840D02*
X1129955Y175160D01*
D96*
X1057298Y227499D02*
X1097698D01*
X1057298Y197499D02*
Y227499D01*
Y197499D02*
X1097698D01*
Y227499D01*
X877299Y227499D02*
X917699D01*
X877299Y197499D02*
Y227499D01*
Y197499D02*
X917699D01*
Y227499D01*
X697300Y227500D02*
X737700D01*
X697300Y197500D02*
Y227500D01*
Y197500D02*
X737700D01*
Y227500D01*
D97*
X944028Y196158D02*
X951026D01*
X948693D01*
X944028Y191493D01*
X947527Y194992D01*
X951026Y191493D01*
X1129008Y198472D02*
Y191474D01*
Y193807D01*
X1124342Y198472D01*
X1127841Y194973D01*
X1124342Y191474D01*
X764028Y196158D02*
X771026D01*
X768693D01*
X764028Y191493D01*
X767527Y194992D01*
X771026Y191493D01*
D98*
X1653000Y191500D02*
Y188834D01*
Y190167D01*
X1645003D01*
X1646335Y191500D01*
D99*
X1641500Y170000D02*
D03*
D100*
X1665000Y131753D02*
D03*
D101*
Y208247D02*
D03*
D102*
X1688750Y194873D02*
D03*
D103*
X1688750Y144877D02*
D03*
M02*
