G04*
G04 #@! TF.GenerationSoftware,Altium Limited,Altium Designer,23.4.1 (23)*
G04*
G04 Layer_Color=16711935*
%FSLAX44Y44*%
%MOMM*%
G71*
G04*
G04 #@! TF.SameCoordinates,58649B99-4679-472A-8ADD-EDA87348F3DE*
G04*
G04*
G04 #@! TF.FilePolarity,Negative*
G04*
G01*
G75*
%ADD11C,0.1000*%
%ADD21R,1.1938X0.8636*%
%ADD22C,1.7032*%
%ADD24C,2.3032*%
%ADD25C,1.9532*%
%ADD26C,2.7032*%
%ADD27O,2.3500X2.1000*%
%ADD28R,4.1000X2.1000*%
%ADD29O,1.6000X2.1000*%
%ADD30C,0.4600*%
%ADD31C,0.5600*%
%ADD71C,0.1500*%
%ADD72R,0.8636X1.1938*%
%ADD73R,1.6032X3.8032*%
%ADD74R,3.8032X1.6032*%
%ADD75R,1.8432X1.6032*%
%ADD76R,1.3970X2.0828*%
%ADD77R,0.3550X0.9390*%
G04:AMPARAMS|DCode=78|XSize=0.939mm|YSize=0.355mm|CornerRadius=0mm|HoleSize=0mm|Usage=FLASHONLY|Rotation=90.000|XOffset=0mm|YOffset=0mm|HoleType=Round|Shape=Octagon|*
%AMOCTAGOND78*
4,1,8,0.0888,0.4695,-0.0888,0.4695,-0.1775,0.3807,-0.1775,-0.3807,-0.0888,-0.4695,0.0888,-0.4695,0.1775,-0.3807,0.1775,0.3807,0.0888,0.4695,0.0*
%
%ADD78OCTAGOND78*%

%ADD79R,2.8950X1.6650*%
%ADD80R,1.6032X1.8432*%
%ADD81R,1.6032X3.8032*%
%ADD82R,3.2032X1.8032*%
%ADD83R,5.7032X1.2032*%
%ADD84R,1.2032X1.7032*%
%ADD85R,3.1032X2.2532*%
%ADD86R,1.7032X1.2032*%
%ADD87R,2.2532X3.1032*%
%ADD88R,3.2032X6.2032*%
%ADD89R,1.1176X1.1176*%
%ADD90R,1.4732X1.1176*%
%ADD91R,4.2032X2.2032*%
%ADD92C,0.2032*%
G36*
X1529200Y428014D02*
X1511500D01*
Y433914D01*
X1529200D01*
Y428014D01*
D02*
G37*
G36*
X1535100Y410314D02*
X1529200D01*
Y410682D01*
Y410805D01*
Y416214D01*
X1535100D01*
Y410314D01*
D02*
G37*
G36*
X1588200Y427276D02*
Y427153D01*
Y392614D01*
X1546900D01*
Y433914D01*
X1588200D01*
Y427276D01*
D02*
G37*
G36*
X1523300Y410314D02*
X1529200D01*
Y404414D01*
X1541000D01*
Y394212D01*
Y394089D01*
Y392614D01*
X1535100D01*
Y398514D01*
X1529200D01*
Y392614D01*
X1535100D01*
Y386714D01*
X1541000D01*
Y377618D01*
Y377495D01*
Y374914D01*
X1552800D01*
Y369014D01*
X1546900D01*
Y363114D01*
X1552800D01*
Y357214D01*
X1541000D01*
Y351314D01*
X1529200D01*
Y357214D01*
X1535100D01*
Y363114D01*
X1523300D01*
Y369014D01*
X1517400D01*
Y380814D01*
X1505600D01*
Y386714D01*
X1523300D01*
Y369014D01*
X1535100D01*
Y363114D01*
X1541000D01*
Y369014D01*
X1535100D01*
Y386714D01*
X1529200D01*
Y392614D01*
X1523300D01*
Y404414D01*
X1511500D01*
Y410314D01*
X1517400D01*
Y416214D01*
X1511500D01*
Y422114D01*
X1523300D01*
Y410314D01*
D02*
G37*
G36*
X1517400Y394335D02*
Y394212D01*
Y392614D01*
X1511500D01*
Y398514D01*
X1517400D01*
Y394335D01*
D02*
G37*
G36*
X1505600Y392614D02*
X1464300D01*
Y433914D01*
X1505600D01*
Y392614D01*
D02*
G37*
G36*
X1588200Y374914D02*
X1582300D01*
Y376266D01*
Y376389D01*
Y386714D01*
X1588200D01*
Y374914D01*
D02*
G37*
G36*
X1487900D02*
X1482000D01*
Y375283D01*
Y375405D01*
Y380814D01*
X1487900D01*
Y374914D01*
D02*
G37*
G36*
X1570500Y380814D02*
X1576400D01*
Y369014D01*
X1582300D01*
Y363114D01*
X1588200D01*
Y357214D01*
X1576400D01*
Y363114D01*
X1558700D01*
Y374914D01*
X1552800D01*
Y380814D01*
X1546900D01*
Y386714D01*
X1558700D01*
Y380814D01*
X1564600D01*
Y369014D01*
X1570500D01*
Y380814D01*
X1564600D01*
Y386714D01*
X1570500D01*
Y380814D01*
D02*
G37*
G36*
X1511500Y357214D02*
X1505600D01*
Y363114D01*
X1511500D01*
Y357214D01*
D02*
G37*
G36*
X1499700Y374914D02*
X1511500D01*
Y372578D01*
Y372455D01*
Y369014D01*
X1517400D01*
Y363114D01*
X1523300D01*
Y351314D01*
X1529200D01*
Y327714D01*
X1523300D01*
Y333614D01*
X1511500D01*
Y345414D01*
X1505600D01*
Y351314D01*
X1499700D01*
Y339514D01*
X1505600D01*
Y327714D01*
X1517400D01*
Y321814D01*
X1505600D01*
Y327714D01*
X1470200D01*
Y315914D01*
X1464300D01*
Y333614D01*
X1470200D01*
Y345414D01*
X1464300D01*
Y357214D01*
X1470200D01*
Y345414D01*
X1476100D01*
Y333614D01*
X1493800D01*
Y339514D01*
X1482000D01*
Y351314D01*
X1476100D01*
Y357214D01*
X1470200D01*
Y374914D01*
X1482000D01*
Y369014D01*
X1487900D01*
Y357214D01*
X1482000D01*
Y351314D01*
X1493800D01*
Y363114D01*
X1499700D01*
Y361885D01*
Y361762D01*
Y357214D01*
X1505600D01*
Y351314D01*
X1517400D01*
Y363114D01*
X1511500D01*
Y369014D01*
X1493800D01*
Y386714D01*
X1499700D01*
Y374914D01*
D02*
G37*
G36*
X1541000Y339514D02*
X1535100D01*
Y345414D01*
X1541000D01*
Y339514D01*
D02*
G37*
G36*
Y328328D02*
Y328205D01*
Y327714D01*
X1535100D01*
Y333614D01*
X1541000D01*
Y328328D01*
D02*
G37*
G36*
X1588200Y310014D02*
X1546900D01*
Y326853D01*
Y326976D01*
Y351314D01*
X1588200D01*
Y310014D01*
D02*
G37*
G36*
X1535100Y315914D02*
X1541000D01*
Y310014D01*
X1535100D01*
Y315914D01*
X1529200D01*
Y317635D01*
Y317757D01*
Y321814D01*
X1535100D01*
Y315914D01*
D02*
G37*
G36*
X1505600Y318495D02*
Y318372D01*
Y315914D01*
X1529200D01*
Y310014D01*
X1493800D01*
Y321814D01*
X1505600D01*
Y318495D01*
D02*
G37*
G36*
X1482000Y315914D02*
X1487900D01*
Y310014D01*
X1476100D01*
Y314685D01*
Y314807D01*
Y321814D01*
X1482000D01*
Y315914D01*
D02*
G37*
G36*
X1276269Y209737D02*
X1276813D01*
Y209556D01*
X1277175D01*
Y209375D01*
X1277538D01*
Y209194D01*
X1277719D01*
Y209013D01*
X1277900D01*
Y208831D01*
X1278081D01*
Y208650D01*
X1278262D01*
Y208469D01*
X1278444D01*
Y208288D01*
X1278625D01*
Y208106D01*
X1278806D01*
Y207744D01*
X1278988D01*
Y207381D01*
X1279169D01*
Y207019D01*
X1279350D01*
Y206656D01*
X1279531D01*
Y206475D01*
X1279713D01*
Y206112D01*
X1279894D01*
Y205750D01*
X1280075D01*
Y205387D01*
X1280256D01*
Y205025D01*
X1280437D01*
Y204662D01*
X1280619D01*
Y204300D01*
X1280800D01*
Y204119D01*
X1280981D01*
Y203756D01*
X1281163D01*
Y203394D01*
X1281344D01*
Y203031D01*
X1281525D01*
Y202669D01*
X1281706D01*
Y202306D01*
X1281888D01*
Y201944D01*
X1282069D01*
Y201581D01*
X1282250D01*
Y201400D01*
X1282431D01*
Y201038D01*
X1282612D01*
Y200675D01*
X1282794D01*
Y200312D01*
X1282975D01*
Y199950D01*
X1283156D01*
Y199769D01*
X1283338D01*
Y199406D01*
X1283519D01*
Y199044D01*
X1283700D01*
Y198681D01*
X1283881D01*
Y198319D01*
X1284062D01*
Y197956D01*
X1284244D01*
Y197775D01*
X1284425D01*
Y197231D01*
X1284606D01*
Y197050D01*
X1284787D01*
Y196688D01*
X1284969D01*
Y196325D01*
X1285150D01*
Y195963D01*
X1285331D01*
Y195600D01*
X1285513D01*
Y195238D01*
X1285694D01*
Y194875D01*
X1285875D01*
Y194694D01*
X1286056D01*
Y194331D01*
X1286237D01*
Y193969D01*
X1286419D01*
Y193606D01*
X1286600D01*
Y193244D01*
X1286781D01*
Y192881D01*
X1286962D01*
Y192700D01*
X1287144D01*
Y192337D01*
X1287325D01*
Y191975D01*
X1287506D01*
Y191794D01*
Y191612D01*
X1287688D01*
Y191250D01*
X1287869D01*
Y190888D01*
X1288050D01*
Y190525D01*
X1288231D01*
Y190344D01*
X1288412D01*
Y189981D01*
X1288594D01*
Y189619D01*
X1288775D01*
Y189256D01*
X1288956D01*
Y188894D01*
X1289138D01*
Y188531D01*
X1289319D01*
Y188350D01*
X1289500D01*
Y187987D01*
X1289681D01*
Y187625D01*
X1289863D01*
Y187262D01*
X1290044D01*
Y186900D01*
X1290225D01*
Y186537D01*
X1290406D01*
Y186175D01*
X1290587D01*
Y185994D01*
X1290769D01*
Y185631D01*
X1290950D01*
Y185269D01*
X1291131D01*
Y184906D01*
X1291313D01*
Y184544D01*
X1291494D01*
Y184181D01*
X1291675D01*
Y183819D01*
X1291856D01*
Y183638D01*
X1292038D01*
Y183275D01*
X1292219D01*
Y182913D01*
X1292400D01*
Y182550D01*
X1292581D01*
Y182188D01*
X1292762D01*
Y181825D01*
X1292944D01*
Y181644D01*
X1293125D01*
Y181281D01*
X1293306D01*
Y180919D01*
X1293488D01*
Y180556D01*
X1293669D01*
Y180194D01*
X1293850D01*
Y179831D01*
X1294031D01*
Y179650D01*
X1294212D01*
Y179287D01*
X1294394D01*
Y178925D01*
X1294575D01*
Y178563D01*
X1294756D01*
Y178200D01*
X1294937D01*
Y177838D01*
X1295119D01*
Y177475D01*
X1295300D01*
Y177113D01*
X1295481D01*
Y176750D01*
X1295663D01*
Y176569D01*
X1295844D01*
Y176206D01*
X1296025D01*
Y175844D01*
X1296206D01*
Y175481D01*
X1296387D01*
Y175119D01*
X1296569D01*
Y174756D01*
X1296750D01*
Y174575D01*
X1296931D01*
Y174212D01*
X1297112D01*
Y173850D01*
X1297294D01*
Y173487D01*
X1297475D01*
Y173125D01*
X1297656D01*
Y172763D01*
X1297838D01*
Y172581D01*
X1298019D01*
Y172219D01*
X1298200D01*
Y171856D01*
X1298381D01*
Y171494D01*
X1298562D01*
Y171131D01*
X1298744D01*
Y170769D01*
X1298925D01*
Y170588D01*
X1299106D01*
Y170225D01*
X1299288D01*
Y169862D01*
X1299469D01*
Y169500D01*
X1299650D01*
Y169137D01*
X1299831D01*
Y168775D01*
X1300013D01*
Y168412D01*
X1300194D01*
Y168050D01*
X1300375D01*
Y167869D01*
X1300556D01*
Y167506D01*
X1300737D01*
Y167144D01*
X1300919D01*
Y166781D01*
X1301100D01*
Y166419D01*
X1301281D01*
Y166056D01*
X1301463D01*
Y165875D01*
X1301644D01*
Y165513D01*
X1301825D01*
Y165150D01*
X1302006D01*
Y164788D01*
X1302188D01*
Y164425D01*
X1302369D01*
Y164062D01*
X1302550D01*
Y163881D01*
X1302731D01*
Y163519D01*
X1302912D01*
Y163156D01*
X1303094D01*
Y162794D01*
X1303275D01*
Y162431D01*
X1303456D01*
Y162069D01*
X1303638D01*
Y161706D01*
X1303819D01*
Y161525D01*
X1304000D01*
Y161162D01*
X1304181D01*
Y160800D01*
X1304362D01*
Y160438D01*
X1304544D01*
Y160075D01*
X1304725D01*
Y159712D01*
X1304906D01*
Y159350D01*
X1305087D01*
Y159169D01*
X1305269D01*
Y158806D01*
X1305450D01*
Y158444D01*
X1305631D01*
Y158081D01*
X1305813D01*
Y157719D01*
X1305994D01*
Y157356D01*
X1306175D01*
Y156994D01*
X1306356D01*
Y156812D01*
X1306537D01*
Y156450D01*
X1306719D01*
Y156088D01*
X1306900D01*
Y155725D01*
X1307081D01*
Y155363D01*
X1307263D01*
Y155000D01*
X1307444D01*
Y154819D01*
X1307625D01*
Y154456D01*
X1307806D01*
Y154094D01*
X1307988D01*
Y153731D01*
X1308169D01*
Y153369D01*
X1308350D01*
Y153006D01*
X1308531D01*
Y152644D01*
X1308712D01*
Y152463D01*
X1308894D01*
Y152100D01*
X1309075D01*
Y151737D01*
X1309256D01*
Y151375D01*
X1309438D01*
Y151012D01*
X1309619D01*
Y150650D01*
X1309800D01*
Y150288D01*
X1309981D01*
Y150106D01*
X1310163D01*
Y149744D01*
X1310344D01*
Y149381D01*
X1310525D01*
Y149019D01*
X1310706D01*
Y148656D01*
X1310887D01*
Y148294D01*
X1311069D01*
Y147931D01*
X1311250D01*
Y147750D01*
X1311431D01*
Y147388D01*
X1311613D01*
Y147025D01*
X1311794D01*
Y146663D01*
X1311975D01*
Y146300D01*
X1312156D01*
Y145938D01*
X1312337D01*
Y145756D01*
X1312519D01*
Y145394D01*
X1312700D01*
Y145031D01*
X1312881D01*
Y144669D01*
X1313062D01*
Y144306D01*
X1313244D01*
Y143944D01*
X1313425D01*
Y143581D01*
X1313606D01*
Y143219D01*
X1313788D01*
Y143038D01*
X1313969D01*
Y142675D01*
X1314150D01*
Y142312D01*
X1314331D01*
Y141950D01*
X1314512D01*
Y141587D01*
X1314694D01*
Y141225D01*
X1314875D01*
Y140863D01*
X1315056D01*
Y140681D01*
X1315237D01*
Y140319D01*
X1315419D01*
Y139956D01*
X1315600D01*
Y139594D01*
X1315781D01*
Y139231D01*
X1315963D01*
Y139050D01*
X1316144D01*
Y138687D01*
X1316325D01*
Y138325D01*
X1316506D01*
Y137963D01*
X1316687D01*
Y137600D01*
X1316869D01*
Y137238D01*
X1317050D01*
Y136875D01*
X1317231D01*
Y136694D01*
X1317413D01*
Y136331D01*
X1317594D01*
Y135969D01*
X1317775D01*
Y135606D01*
X1317956D01*
Y135244D01*
X1318138D01*
Y134881D01*
X1318319D01*
Y134519D01*
X1318500D01*
Y134338D01*
X1318681D01*
Y133975D01*
X1318862D01*
Y133612D01*
X1319044D01*
Y133250D01*
X1319225D01*
Y132887D01*
X1319406D01*
Y132525D01*
X1319588D01*
Y132344D01*
X1319769D01*
Y131981D01*
X1319950D01*
Y131619D01*
X1320131D01*
Y131256D01*
X1320312D01*
Y130894D01*
X1320494D01*
Y130531D01*
X1320675D01*
Y130169D01*
X1320856D01*
Y129987D01*
X1321037D01*
Y129625D01*
X1321219D01*
Y129263D01*
X1321400D01*
Y128900D01*
X1321581D01*
Y128538D01*
X1321763D01*
Y128175D01*
X1321944D01*
Y127994D01*
X1322125D01*
Y127631D01*
X1322306D01*
Y127269D01*
X1322487D01*
Y126906D01*
X1322669D01*
Y126544D01*
X1322850D01*
Y126000D01*
X1323031D01*
Y125275D01*
X1323212D01*
Y124369D01*
X1323031D01*
Y123462D01*
X1322850D01*
Y122919D01*
X1322669D01*
Y122556D01*
X1322487D01*
Y122194D01*
X1322306D01*
Y122013D01*
X1322125D01*
Y121831D01*
X1321944D01*
Y121650D01*
X1321763D01*
Y121469D01*
X1321581D01*
Y121287D01*
X1321400D01*
Y121106D01*
X1321219D01*
Y120925D01*
X1320856D01*
Y120744D01*
X1320494D01*
Y120562D01*
X1319950D01*
Y120381D01*
X1318681D01*
Y120200D01*
X1318500D01*
Y120381D01*
X1231500D01*
Y120200D01*
X1231319D01*
Y120381D01*
X1230050D01*
Y120562D01*
X1229506D01*
Y120744D01*
X1229144D01*
Y120925D01*
X1228781D01*
Y121106D01*
X1228600D01*
Y121287D01*
X1228419D01*
Y121469D01*
X1228238D01*
Y121650D01*
X1228056D01*
Y121831D01*
X1227875D01*
Y122013D01*
X1227694D01*
Y122194D01*
X1227513D01*
Y122556D01*
X1227331D01*
Y122919D01*
X1227150D01*
Y123462D01*
X1226969D01*
Y124369D01*
X1226787D01*
Y125094D01*
X1226969D01*
Y126000D01*
X1227150D01*
Y126544D01*
X1227331D01*
Y126906D01*
X1227513D01*
Y127269D01*
X1227694D01*
Y127631D01*
X1227875D01*
Y127994D01*
X1228056D01*
Y128175D01*
X1228238D01*
Y128538D01*
X1228419D01*
Y128900D01*
X1228600D01*
Y129263D01*
X1228781D01*
Y129625D01*
X1228962D01*
Y129987D01*
X1229144D01*
Y130169D01*
X1229325D01*
Y130531D01*
X1229506D01*
Y130894D01*
X1229688D01*
Y131256D01*
X1229869D01*
Y131619D01*
X1230050D01*
Y131981D01*
X1230231D01*
Y132344D01*
X1230413D01*
Y132525D01*
X1230594D01*
Y132887D01*
X1230775D01*
Y133250D01*
X1230956D01*
Y133612D01*
X1231137D01*
Y133975D01*
X1231319D01*
Y134338D01*
X1231500D01*
Y134519D01*
X1231681D01*
Y134881D01*
X1231862D01*
Y135244D01*
X1232044D01*
Y135606D01*
X1232225D01*
Y135969D01*
X1232406D01*
Y136331D01*
X1232588D01*
Y136694D01*
X1232769D01*
Y137056D01*
X1232950D01*
Y137238D01*
X1233131D01*
Y137600D01*
X1233313D01*
Y137963D01*
X1233494D01*
Y138325D01*
X1233675D01*
Y138687D01*
X1233856D01*
Y139050D01*
X1234037D01*
Y139231D01*
X1234219D01*
Y139594D01*
X1234400D01*
Y139956D01*
X1234581D01*
Y140319D01*
X1234762D01*
Y140681D01*
X1234944D01*
Y141044D01*
X1235125D01*
Y141225D01*
X1235306D01*
Y141587D01*
X1235488D01*
Y141950D01*
X1235669D01*
Y142312D01*
X1235850D01*
Y142675D01*
X1236031D01*
Y143038D01*
X1236212D01*
Y143400D01*
X1236394D01*
Y143763D01*
X1236575D01*
Y143944D01*
X1236756D01*
Y144306D01*
X1236937D01*
Y144669D01*
X1237119D01*
Y145031D01*
X1237300D01*
Y145394D01*
X1237481D01*
Y145756D01*
X1237663D01*
Y145938D01*
X1237844D01*
Y146300D01*
X1238025D01*
Y146663D01*
X1238206D01*
Y147025D01*
X1238388D01*
Y147388D01*
X1238569D01*
Y147750D01*
X1238750D01*
Y147931D01*
X1238931D01*
Y148294D01*
X1239112D01*
Y148656D01*
X1239294D01*
Y149019D01*
X1239475D01*
Y149381D01*
X1239656D01*
Y149744D01*
X1239837D01*
Y149925D01*
X1240019D01*
Y150288D01*
X1240200D01*
Y150650D01*
X1240381D01*
Y151012D01*
X1240563D01*
Y151375D01*
X1240744D01*
Y151737D01*
X1240925D01*
Y152100D01*
X1241106D01*
Y152463D01*
X1241288D01*
Y152644D01*
X1241469D01*
Y153006D01*
X1241650D01*
Y153369D01*
X1241831D01*
Y153731D01*
X1242012D01*
Y154094D01*
X1242194D01*
Y154456D01*
X1242375D01*
Y154819D01*
X1242556D01*
Y155000D01*
X1242738D01*
Y155363D01*
X1242919D01*
Y155725D01*
X1243100D01*
Y156088D01*
X1243281D01*
Y156450D01*
X1243463D01*
Y156812D01*
X1243644D01*
Y156994D01*
X1243825D01*
Y157356D01*
X1244006D01*
Y157719D01*
X1244187D01*
Y158081D01*
X1244369D01*
Y158444D01*
X1244550D01*
Y158806D01*
X1244731D01*
Y159169D01*
X1244912D01*
Y159350D01*
X1245094D01*
Y159712D01*
X1245275D01*
Y160075D01*
X1245456D01*
Y160438D01*
X1245638D01*
Y160800D01*
X1245819D01*
Y161162D01*
X1246000D01*
Y161344D01*
X1246181D01*
Y161706D01*
X1246363D01*
Y162069D01*
X1246544D01*
Y162431D01*
X1246725D01*
Y162794D01*
X1246906D01*
Y163156D01*
X1247087D01*
Y163519D01*
X1247269D01*
Y163881D01*
X1247450D01*
Y164062D01*
X1247631D01*
Y164425D01*
X1247812D01*
Y164788D01*
X1247994D01*
Y165150D01*
X1248175D01*
Y165513D01*
X1248356D01*
Y165875D01*
X1248538D01*
Y166056D01*
X1248719D01*
Y166419D01*
X1248900D01*
Y166781D01*
X1249081D01*
Y167144D01*
X1249262D01*
Y167506D01*
X1249444D01*
Y167869D01*
X1249625D01*
Y168050D01*
X1249806D01*
Y168412D01*
X1249987D01*
Y168775D01*
X1250169D01*
Y169137D01*
X1250350D01*
Y169500D01*
X1250531D01*
Y169862D01*
X1250713D01*
Y170225D01*
X1250894D01*
Y170588D01*
X1251075D01*
Y170769D01*
X1251256D01*
Y171131D01*
X1251438D01*
Y171494D01*
X1251619D01*
Y171856D01*
X1251800D01*
Y172219D01*
X1251981D01*
Y172581D01*
X1252162D01*
Y172944D01*
X1252344D01*
Y173125D01*
X1252525D01*
Y173487D01*
X1252706D01*
Y173850D01*
X1252887D01*
Y174212D01*
X1253069D01*
Y174575D01*
X1253250D01*
Y174756D01*
X1253431D01*
Y175119D01*
X1253613D01*
Y175481D01*
X1253794D01*
Y175844D01*
X1253975D01*
Y176206D01*
X1254156D01*
Y176569D01*
X1254337D01*
Y176931D01*
X1254519D01*
Y177113D01*
X1254700D01*
Y177475D01*
X1254881D01*
Y177838D01*
X1255062D01*
Y178200D01*
X1255244D01*
Y178563D01*
X1255425D01*
Y178925D01*
X1255606D01*
Y179287D01*
X1255788D01*
Y179650D01*
X1255969D01*
Y179831D01*
X1256150D01*
Y180194D01*
X1256331D01*
Y180556D01*
X1256513D01*
Y180919D01*
X1256694D01*
Y181281D01*
X1256875D01*
Y181644D01*
X1257056D01*
Y181825D01*
X1257237D01*
Y182188D01*
X1257419D01*
Y182550D01*
X1257600D01*
Y182913D01*
X1257781D01*
Y183275D01*
X1257962D01*
Y183638D01*
X1258144D01*
Y184000D01*
X1258325D01*
Y184181D01*
X1258506D01*
Y184544D01*
X1258688D01*
Y184906D01*
X1258869D01*
Y185269D01*
X1259050D01*
Y185631D01*
X1259231D01*
Y185994D01*
X1259413D01*
Y186175D01*
X1259594D01*
Y186537D01*
X1259775D01*
Y186900D01*
X1259956D01*
Y187262D01*
X1260137D01*
Y187625D01*
X1260319D01*
Y187987D01*
X1260500D01*
Y188350D01*
X1260681D01*
Y188531D01*
X1260863D01*
Y188894D01*
X1261044D01*
Y189256D01*
X1261225D01*
Y189619D01*
X1261406D01*
Y189981D01*
X1261588D01*
Y190344D01*
X1261769D01*
Y190525D01*
X1261950D01*
Y190888D01*
X1262131D01*
Y191250D01*
X1262312D01*
Y191612D01*
X1262494D01*
Y191975D01*
X1262675D01*
Y192337D01*
X1262856D01*
Y192519D01*
X1263037D01*
Y192881D01*
X1263219D01*
Y193244D01*
X1263400D01*
Y193606D01*
X1263581D01*
Y193969D01*
X1263763D01*
Y194331D01*
X1263944D01*
Y194694D01*
X1264125D01*
Y194875D01*
X1264306D01*
Y195238D01*
X1264488D01*
Y195600D01*
X1264669D01*
Y195963D01*
X1264850D01*
Y196325D01*
X1265031D01*
Y196688D01*
X1265212D01*
Y197050D01*
X1265394D01*
Y197231D01*
X1265575D01*
Y197594D01*
X1265756D01*
Y197956D01*
X1265938D01*
Y198319D01*
X1266119D01*
Y198681D01*
X1266300D01*
Y199044D01*
X1266481D01*
Y199406D01*
X1266663D01*
Y199587D01*
X1266844D01*
Y199950D01*
X1267025D01*
Y200312D01*
X1267206D01*
Y200675D01*
X1267387D01*
Y201038D01*
X1267569D01*
Y201400D01*
X1267750D01*
Y201581D01*
X1267931D01*
Y201944D01*
X1268112D01*
Y202306D01*
X1268294D01*
Y202669D01*
X1268475D01*
Y203031D01*
X1268656D01*
Y203394D01*
X1268838D01*
Y203756D01*
X1269019D01*
Y203937D01*
X1269200D01*
Y204300D01*
X1269381D01*
Y204662D01*
X1269563D01*
Y205025D01*
X1269744D01*
Y205387D01*
X1269925D01*
Y205750D01*
X1270106D01*
Y205931D01*
X1270287D01*
Y206475D01*
X1270469D01*
Y206656D01*
X1270650D01*
Y207019D01*
X1270831D01*
Y207381D01*
X1271012D01*
Y207744D01*
X1271194D01*
Y207925D01*
X1271375D01*
Y208288D01*
X1271556D01*
Y208469D01*
X1271738D01*
Y208650D01*
X1271919D01*
Y208831D01*
X1272100D01*
Y209013D01*
X1272281D01*
Y209194D01*
X1272462D01*
Y209375D01*
X1272825D01*
Y209556D01*
X1273187D01*
Y209737D01*
X1273731D01*
Y209919D01*
X1276269D01*
Y209737D01*
D02*
G37*
G36*
X653001Y397518D02*
X1186999Y397518D01*
X1187000Y397518D01*
X1189364D01*
X1189397Y397516D01*
X1189430D01*
X1189463Y397512D01*
X1189497Y397509D01*
X1189529Y397503D01*
X1189562Y397499D01*
X1194199Y396576D01*
X1194231Y396568D01*
X1194264Y396561D01*
X1194296Y396550D01*
X1194328Y396542D01*
X1194359Y396529D01*
X1194390Y396518D01*
X1198758Y394709D01*
X1198788Y394695D01*
X1198819Y394682D01*
X1198847Y394665D01*
X1198877Y394650D01*
X1198905Y394632D01*
X1198934Y394615D01*
X1202865Y391989D01*
X1202891Y391968D01*
X1202919Y391950D01*
X1202944Y391928D01*
X1202970Y391908D01*
X1202994Y391884D01*
X1203019Y391862D01*
X1206362Y388519D01*
X1206384Y388494D01*
X1206407Y388470D01*
X1206428Y388444D01*
X1206450Y388419D01*
X1206468Y388391D01*
X1206489Y388365D01*
X1209115Y384434D01*
X1209132Y384405D01*
X1209150Y384377D01*
X1209165Y384347D01*
X1209182Y384319D01*
X1209194Y384288D01*
X1209209Y384258D01*
X1211018Y379890D01*
X1211029Y379859D01*
X1211042Y379828D01*
X1211050Y379795D01*
X1211061Y379764D01*
X1211068Y379732D01*
X1211076Y379699D01*
X1211999Y375062D01*
X1212003Y375029D01*
X1212010Y374997D01*
X1212012Y374963D01*
X1212016Y374930D01*
Y374897D01*
X1212018Y374864D01*
Y372500D01*
X1212018Y372499D01*
X1212018Y245500D01*
Y245500D01*
Y241583D01*
Y238000D01*
Y238000D01*
X1212018Y98500D01*
X1212018Y98499D01*
X1212018Y96136D01*
X1212016Y96103D01*
Y96070D01*
X1212012Y96037D01*
X1212009Y96003D01*
X1212003Y95971D01*
X1211999Y95938D01*
X1211076Y91301D01*
X1211068Y91269D01*
X1211061Y91236D01*
X1211050Y91205D01*
X1211042Y91172D01*
X1211029Y91141D01*
X1211018Y91110D01*
X1209209Y86742D01*
X1209194Y86712D01*
X1209182Y86681D01*
X1209165Y86653D01*
X1209150Y86623D01*
X1209132Y86595D01*
X1209115Y86566D01*
X1206489Y82635D01*
X1206468Y82609D01*
X1206450Y82581D01*
X1206428Y82556D01*
X1206407Y82530D01*
X1206384Y82506D01*
X1206362Y82481D01*
X1203019Y79138D01*
X1202994Y79116D01*
X1202970Y79092D01*
X1202944Y79072D01*
X1202919Y79050D01*
X1202891Y79032D01*
X1202865Y79011D01*
X1198934Y76385D01*
X1198905Y76368D01*
X1198877Y76350D01*
X1198847Y76335D01*
X1198819Y76318D01*
X1198788Y76306D01*
X1198758Y76291D01*
X1194390Y74482D01*
X1194359Y74471D01*
X1194328Y74458D01*
X1194296Y74450D01*
X1194264Y74439D01*
X1194231Y74432D01*
X1194199Y74424D01*
X1189562Y73501D01*
X1189529Y73497D01*
X1189497Y73491D01*
X1189463Y73488D01*
X1189430Y73484D01*
X1189397D01*
X1189364Y73482D01*
X1187000Y73482D01*
X653000Y73482D01*
X652998Y73482D01*
X650636Y73482D01*
X650603Y73484D01*
X650570D01*
X650536Y73488D01*
X650503Y73491D01*
X650471Y73497D01*
X650437Y73502D01*
X645801Y74424D01*
X645768Y74432D01*
X645736Y74439D01*
X645704Y74450D01*
X645672Y74458D01*
X645641Y74471D01*
X645610Y74482D01*
X641242Y76291D01*
X641212Y76306D01*
X641181Y76318D01*
X641153Y76335D01*
X641123Y76350D01*
X641095Y76368D01*
X641066Y76385D01*
X637135Y79012D01*
X637109Y79032D01*
X637081Y79050D01*
X637056Y79072D01*
X637029Y79093D01*
X637006Y79116D01*
X636981Y79138D01*
X633638Y82481D01*
X633616Y82506D01*
X633592Y82530D01*
X633572Y82556D01*
X633550Y82581D01*
X633532Y82609D01*
X633511Y82635D01*
X630885Y86566D01*
X630868Y86595D01*
X630850Y86623D01*
X630835Y86653D01*
X630818Y86681D01*
X630806Y86712D01*
X630791Y86742D01*
X628982Y91110D01*
X628971Y91141D01*
X628958Y91172D01*
X628950Y91205D01*
X628939Y91236D01*
X628932Y91269D01*
X628924Y91301D01*
X628001Y95938D01*
X627997Y95971D01*
X627990Y96003D01*
X627988Y96037D01*
X627984Y96070D01*
Y96103D01*
X627982Y96136D01*
X627982Y98500D01*
Y238000D01*
X627982Y372500D01*
X627982Y374864D01*
X627984Y374897D01*
Y374930D01*
X627988Y374963D01*
X627990Y374997D01*
X627997Y375029D01*
X628001Y375062D01*
X628924Y379699D01*
X628932Y379731D01*
X628939Y379764D01*
X628950Y379796D01*
X628958Y379828D01*
X628971Y379859D01*
X628982Y379890D01*
X630791Y384258D01*
X630806Y384288D01*
X630818Y384319D01*
X630835Y384347D01*
X630850Y384377D01*
X630868Y384405D01*
X630885Y384434D01*
X633511Y388365D01*
X633532Y388391D01*
X633550Y388419D01*
X633572Y388444D01*
X633592Y388470D01*
X633616Y388494D01*
X633638Y388519D01*
X636981Y391862D01*
X637006Y391884D01*
X637029Y391908D01*
X637056Y391928D01*
X637081Y391950D01*
X637109Y391968D01*
X637135Y391989D01*
X641066Y394615D01*
X641095Y394632D01*
X641123Y394650D01*
X641153Y394665D01*
X641181Y394682D01*
X641212Y394695D01*
X641242Y394709D01*
X645610Y396518D01*
X645641Y396529D01*
X645672Y396542D01*
X645704Y396551D01*
X645736Y396561D01*
X645768Y396568D01*
X645801Y396576D01*
X650437Y397499D01*
X650471Y397503D01*
X650503Y397509D01*
X650536Y397512D01*
X650570Y397516D01*
X650603D01*
X650636Y397518D01*
X653000D01*
X653001Y397518D01*
D02*
G37*
%LPC*%
G36*
X1581931Y427768D02*
X1553169D01*
Y427645D01*
X1553046D01*
Y420762D01*
Y420639D01*
Y398882D01*
X1553169D01*
Y398760D01*
X1581931D01*
Y398882D01*
X1582054D01*
Y427645D01*
X1581931D01*
Y427768D01*
D02*
G37*
%LPD*%
G36*
X1576400Y412280D02*
Y412158D01*
Y404414D01*
X1558700D01*
Y422114D01*
X1576400D01*
Y412280D01*
D02*
G37*
%LPC*%
G36*
X1499331Y427768D02*
X1470569D01*
Y427645D01*
X1470446D01*
Y398882D01*
X1470569D01*
Y398760D01*
X1499331D01*
Y398882D01*
X1499454D01*
Y427645D01*
X1499331D01*
Y427768D01*
D02*
G37*
%LPD*%
G36*
X1493800Y411297D02*
Y411174D01*
Y404414D01*
X1476100D01*
Y422114D01*
X1493800D01*
Y411297D01*
D02*
G37*
%LPC*%
G36*
X1482000Y369014D02*
X1476100D01*
Y363114D01*
X1482000D01*
Y369014D01*
D02*
G37*
G36*
X1581931Y345168D02*
X1553169D01*
Y345045D01*
X1553046D01*
Y338408D01*
Y338285D01*
Y316283D01*
X1553169D01*
Y316160D01*
X1581931D01*
Y316283D01*
X1582054D01*
Y345045D01*
X1581931D01*
Y345168D01*
D02*
G37*
%LPD*%
G36*
X1576400Y321814D02*
X1558700D01*
Y339514D01*
X1576400D01*
Y321814D01*
D02*
G37*
%LPC*%
G36*
X1275181Y206112D02*
X1274819D01*
Y205931D01*
X1274638D01*
Y205750D01*
X1274456D01*
Y205569D01*
X1274275D01*
Y205206D01*
X1274094D01*
Y204844D01*
X1273913D01*
Y204481D01*
X1273731D01*
Y204119D01*
X1273550D01*
Y203756D01*
X1273369D01*
Y203575D01*
X1273187D01*
Y203213D01*
X1273006D01*
Y202850D01*
X1272825D01*
Y202488D01*
X1272644D01*
Y202125D01*
X1272462D01*
Y201763D01*
X1272281D01*
Y201400D01*
X1272100D01*
Y201038D01*
X1271919D01*
Y200856D01*
X1271738D01*
Y200494D01*
X1271556D01*
Y200131D01*
X1271375D01*
Y199769D01*
X1271194D01*
Y199406D01*
X1271012D01*
Y199044D01*
X1270831D01*
Y198681D01*
X1270650D01*
Y198500D01*
X1270469D01*
Y198137D01*
X1270287D01*
Y197775D01*
X1270106D01*
Y197412D01*
X1269925D01*
Y197050D01*
X1269744D01*
Y196869D01*
X1269563D01*
Y196506D01*
X1269381D01*
Y196144D01*
X1269200D01*
Y195781D01*
X1269019D01*
Y195419D01*
X1268838D01*
Y195056D01*
X1268656D01*
Y194875D01*
X1268475D01*
Y194331D01*
X1268294D01*
Y194150D01*
X1268112D01*
Y193787D01*
X1267931D01*
Y193425D01*
X1267750D01*
Y193062D01*
X1267569D01*
Y192700D01*
X1267387D01*
Y192337D01*
X1267206D01*
Y191975D01*
X1267025D01*
Y191612D01*
X1266844D01*
Y191431D01*
X1266663D01*
Y191069D01*
X1266481D01*
Y190706D01*
X1266300D01*
Y190344D01*
X1266119D01*
Y189981D01*
X1265938D01*
Y189800D01*
X1265756D01*
Y189438D01*
X1265575D01*
Y189075D01*
X1265394D01*
Y188713D01*
X1265212D01*
Y188350D01*
X1265031D01*
Y187987D01*
X1264850D01*
Y187625D01*
X1264669D01*
Y187444D01*
X1264488D01*
Y187081D01*
X1264306D01*
Y186719D01*
X1264125D01*
Y186356D01*
X1263944D01*
Y185994D01*
X1263763D01*
Y185631D01*
X1263581D01*
Y185450D01*
X1263400D01*
Y185088D01*
X1263219D01*
Y184725D01*
X1263037D01*
Y184363D01*
X1262856D01*
Y184000D01*
X1262675D01*
Y183638D01*
X1262494D01*
Y183275D01*
X1262312D01*
Y183094D01*
X1262131D01*
Y182731D01*
X1261950D01*
Y182369D01*
X1261769D01*
Y182006D01*
X1261588D01*
Y181644D01*
X1261406D01*
Y181281D01*
X1261225D01*
Y180919D01*
X1261044D01*
Y180737D01*
X1260863D01*
Y180375D01*
X1260681D01*
Y180012D01*
X1260500D01*
Y179650D01*
X1260319D01*
Y179287D01*
X1260137D01*
Y178925D01*
X1259956D01*
Y178744D01*
X1259775D01*
Y178381D01*
X1259594D01*
Y178019D01*
X1259413D01*
Y177656D01*
X1259231D01*
Y177294D01*
X1259050D01*
Y176931D01*
X1258869D01*
Y176569D01*
X1258688D01*
Y176388D01*
X1258506D01*
Y176025D01*
X1258325D01*
Y175662D01*
X1258144D01*
Y175300D01*
X1257962D01*
Y174937D01*
X1257781D01*
Y174575D01*
X1257600D01*
Y174212D01*
X1257419D01*
Y174031D01*
X1257237D01*
Y173669D01*
X1257056D01*
Y173306D01*
X1256875D01*
Y172944D01*
X1256694D01*
Y172581D01*
X1256513D01*
Y172219D01*
X1256331D01*
Y171856D01*
X1256150D01*
Y171675D01*
X1255969D01*
Y171313D01*
X1255788D01*
Y170950D01*
X1255606D01*
Y170588D01*
X1255425D01*
Y170225D01*
X1255244D01*
Y170044D01*
X1255062D01*
Y169681D01*
X1254881D01*
Y169319D01*
X1254700D01*
Y168956D01*
X1254519D01*
Y168594D01*
X1254337D01*
Y168231D01*
X1254156D01*
Y168050D01*
X1253975D01*
Y167687D01*
X1253794D01*
Y167325D01*
X1253613D01*
Y166963D01*
X1253431D01*
Y166600D01*
X1253250D01*
Y166238D01*
X1253069D01*
Y165875D01*
X1252887D01*
Y165513D01*
X1252706D01*
Y165150D01*
X1252525D01*
Y164969D01*
X1252344D01*
Y164606D01*
X1252162D01*
Y164244D01*
X1251981D01*
Y163881D01*
X1251800D01*
Y163700D01*
X1251619D01*
Y163156D01*
X1251438D01*
Y162975D01*
X1251256D01*
Y162612D01*
X1251075D01*
Y162250D01*
X1250894D01*
Y161887D01*
X1250713D01*
Y161525D01*
X1250531D01*
Y161162D01*
X1250350D01*
Y160981D01*
X1250169D01*
Y160619D01*
X1249987D01*
Y160256D01*
X1249806D01*
Y159894D01*
X1249625D01*
Y159531D01*
X1249444D01*
Y159169D01*
X1249262D01*
Y158806D01*
X1249081D01*
Y158625D01*
X1248900D01*
Y158263D01*
X1248719D01*
Y157900D01*
X1248538D01*
Y157537D01*
X1248356D01*
Y157175D01*
X1248175D01*
Y156812D01*
X1247994D01*
Y156450D01*
X1247812D01*
Y156269D01*
X1247631D01*
Y155906D01*
X1247450D01*
Y155544D01*
X1247269D01*
Y155181D01*
X1247087D01*
Y154819D01*
X1246906D01*
Y154456D01*
X1246725D01*
Y154094D01*
X1246544D01*
Y153912D01*
X1246363D01*
Y153550D01*
X1246181D01*
Y153188D01*
X1246000D01*
Y152825D01*
X1245819D01*
Y152463D01*
X1245638D01*
Y152100D01*
X1245456D01*
Y151919D01*
X1245275D01*
Y151556D01*
X1245094D01*
Y151194D01*
X1244912D01*
Y150831D01*
X1244731D01*
Y150469D01*
X1244550D01*
Y150106D01*
X1244369D01*
Y149744D01*
X1244187D01*
Y149563D01*
X1244006D01*
Y149200D01*
X1243825D01*
Y148837D01*
X1243644D01*
Y148475D01*
X1243463D01*
Y148112D01*
X1243281D01*
Y147750D01*
X1243100D01*
Y147388D01*
X1242919D01*
Y147206D01*
X1242738D01*
Y146844D01*
X1242556D01*
Y146481D01*
X1242375D01*
Y146119D01*
X1242194D01*
Y145756D01*
X1242012D01*
Y145394D01*
X1241831D01*
Y145031D01*
X1241650D01*
Y144850D01*
X1241469D01*
Y144487D01*
X1241288D01*
Y144125D01*
X1241106D01*
Y143763D01*
X1240925D01*
Y143400D01*
X1240744D01*
Y143038D01*
X1240563D01*
Y142856D01*
X1240381D01*
Y142494D01*
X1240200D01*
Y142131D01*
X1240019D01*
Y141769D01*
X1239837D01*
Y141406D01*
X1239656D01*
Y141044D01*
X1239475D01*
Y140681D01*
X1239294D01*
Y140500D01*
X1239112D01*
Y140138D01*
X1238931D01*
Y139775D01*
X1238750D01*
Y139412D01*
X1238569D01*
Y139050D01*
X1238388D01*
Y138687D01*
X1238206D01*
Y138325D01*
X1238025D01*
Y137963D01*
X1237844D01*
Y137781D01*
X1237663D01*
Y137419D01*
X1237481D01*
Y137056D01*
X1237300D01*
Y136694D01*
X1237119D01*
Y136331D01*
X1236937D01*
Y136150D01*
X1236756D01*
Y135787D01*
X1236575D01*
Y135425D01*
X1236394D01*
Y135063D01*
X1236212D01*
Y134700D01*
X1236031D01*
Y134338D01*
X1235850D01*
Y133975D01*
X1235669D01*
Y133794D01*
X1235488D01*
Y133431D01*
X1235306D01*
Y133069D01*
X1235125D01*
Y132706D01*
X1234944D01*
Y132344D01*
X1234762D01*
Y131981D01*
X1234581D01*
Y131800D01*
X1234400D01*
Y131438D01*
X1234219D01*
Y131075D01*
X1234037D01*
Y130712D01*
X1233856D01*
Y130350D01*
X1233675D01*
Y129987D01*
X1233494D01*
Y129625D01*
X1233313D01*
Y129444D01*
X1233131D01*
Y129081D01*
X1232950D01*
Y128719D01*
X1232769D01*
Y128356D01*
X1232588D01*
Y127994D01*
X1232406D01*
Y127631D01*
X1232225D01*
Y127269D01*
X1232044D01*
Y127087D01*
X1231862D01*
Y126725D01*
X1231681D01*
Y126362D01*
X1231500D01*
Y126000D01*
X1231319D01*
Y125638D01*
X1231137D01*
Y125275D01*
X1230956D01*
Y125094D01*
X1230775D01*
Y124369D01*
X1231137D01*
Y124187D01*
X1318862D01*
Y124369D01*
X1319225D01*
Y125094D01*
X1319044D01*
Y125275D01*
X1318862D01*
Y125638D01*
X1318681D01*
Y126000D01*
X1318500D01*
Y126362D01*
X1318319D01*
Y126725D01*
X1318138D01*
Y127087D01*
X1317956D01*
Y127269D01*
X1317775D01*
Y127631D01*
X1317594D01*
Y127994D01*
X1317413D01*
Y128356D01*
X1317231D01*
Y128719D01*
X1317050D01*
Y129081D01*
X1316869D01*
Y129263D01*
X1316687D01*
Y129625D01*
X1316506D01*
Y129987D01*
X1316325D01*
Y130350D01*
X1316144D01*
Y130712D01*
X1315963D01*
Y131075D01*
X1315781D01*
Y131438D01*
X1315600D01*
Y131800D01*
X1315419D01*
Y132163D01*
X1315237D01*
Y132344D01*
X1315056D01*
Y132706D01*
X1314875D01*
Y133069D01*
X1314694D01*
Y133431D01*
X1314512D01*
Y133794D01*
X1314331D01*
Y134156D01*
X1314150D01*
Y134338D01*
X1313969D01*
Y134700D01*
X1313788D01*
Y135063D01*
X1313606D01*
Y135425D01*
X1313425D01*
Y135787D01*
X1313244D01*
Y136150D01*
X1313062D01*
Y136331D01*
X1312881D01*
Y136694D01*
X1312700D01*
Y137056D01*
X1312519D01*
Y137419D01*
X1312337D01*
Y137781D01*
X1312156D01*
Y138144D01*
X1311975D01*
Y138325D01*
X1311794D01*
Y138869D01*
X1311613D01*
Y139050D01*
X1311431D01*
Y139412D01*
X1311250D01*
Y139775D01*
X1311069D01*
Y140138D01*
X1310887D01*
Y140500D01*
X1310706D01*
Y140863D01*
X1310525D01*
Y141225D01*
X1310344D01*
Y141406D01*
X1310163D01*
Y141769D01*
X1309981D01*
Y142131D01*
X1309800D01*
Y142494D01*
X1309619D01*
Y142856D01*
X1309438D01*
Y143038D01*
X1309256D01*
Y143400D01*
X1309075D01*
Y143763D01*
X1308894D01*
Y144125D01*
X1308712D01*
Y144487D01*
X1308531D01*
Y144850D01*
X1308350D01*
Y145031D01*
X1308169D01*
Y145394D01*
X1307988D01*
Y145756D01*
X1307806D01*
Y146119D01*
X1307625D01*
Y146481D01*
X1307444D01*
Y146844D01*
X1307263D01*
Y147025D01*
X1307081D01*
Y147388D01*
X1306900D01*
Y147750D01*
X1306719D01*
Y148112D01*
X1306537D01*
Y148475D01*
X1306356D01*
Y148837D01*
X1306175D01*
Y149200D01*
X1305994D01*
Y149563D01*
X1305813D01*
Y149925D01*
X1305631D01*
Y150106D01*
X1305450D01*
Y150469D01*
X1305269D01*
Y150831D01*
X1305087D01*
Y151194D01*
X1304906D01*
Y151556D01*
X1304725D01*
Y151919D01*
X1304544D01*
Y152100D01*
X1304362D01*
Y152463D01*
X1304181D01*
Y152644D01*
Y152825D01*
X1304000D01*
Y153188D01*
X1303819D01*
Y153550D01*
X1303638D01*
Y153912D01*
X1303456D01*
Y154094D01*
X1303275D01*
Y154456D01*
X1303094D01*
Y154819D01*
X1302912D01*
Y155181D01*
X1302731D01*
Y155544D01*
X1302550D01*
Y155906D01*
X1302369D01*
Y156269D01*
X1302188D01*
Y156450D01*
X1302006D01*
Y156812D01*
X1301825D01*
Y157175D01*
X1301644D01*
Y157537D01*
X1301463D01*
Y157900D01*
X1301281D01*
Y158263D01*
X1301100D01*
Y158625D01*
X1300919D01*
Y158806D01*
X1300737D01*
Y159169D01*
X1300556D01*
Y159531D01*
X1300375D01*
Y159894D01*
X1300194D01*
Y160256D01*
X1300013D01*
Y160619D01*
X1299831D01*
Y160981D01*
X1299650D01*
Y161162D01*
X1299469D01*
Y161525D01*
X1299288D01*
Y161887D01*
X1299106D01*
Y162250D01*
X1298925D01*
Y162612D01*
X1298744D01*
Y162975D01*
X1298562D01*
Y163156D01*
X1298381D01*
Y163519D01*
X1298200D01*
Y163881D01*
X1298019D01*
Y164244D01*
X1297838D01*
Y164606D01*
X1297656D01*
Y164969D01*
X1297475D01*
Y165150D01*
X1297294D01*
Y165513D01*
X1297112D01*
Y165875D01*
X1296931D01*
Y166238D01*
X1296750D01*
Y166600D01*
X1296569D01*
Y166963D01*
X1296387D01*
Y167325D01*
X1296206D01*
Y167687D01*
X1296025D01*
Y168050D01*
X1295844D01*
Y168231D01*
X1295663D01*
Y168594D01*
X1295481D01*
Y168956D01*
X1295300D01*
Y169319D01*
X1295119D01*
Y169681D01*
X1294937D01*
Y170044D01*
X1294756D01*
Y170225D01*
X1294575D01*
Y170588D01*
X1294394D01*
Y170950D01*
X1294212D01*
Y171313D01*
X1294031D01*
Y171675D01*
X1293850D01*
Y171856D01*
X1293669D01*
Y172219D01*
X1293488D01*
Y172581D01*
X1293306D01*
Y172944D01*
X1293125D01*
Y173306D01*
X1292944D01*
Y173669D01*
X1292762D01*
Y173850D01*
X1292581D01*
Y174212D01*
X1292400D01*
Y174575D01*
X1292219D01*
Y174937D01*
X1292038D01*
Y175300D01*
X1291856D01*
Y175662D01*
X1291675D01*
Y176025D01*
X1291494D01*
Y176388D01*
X1291313D01*
Y176750D01*
X1291131D01*
Y176931D01*
X1290950D01*
Y177294D01*
X1290769D01*
Y177656D01*
X1290587D01*
Y178019D01*
X1290406D01*
Y178381D01*
X1290225D01*
Y178744D01*
X1290044D01*
Y178925D01*
X1289863D01*
Y179287D01*
X1289681D01*
Y179650D01*
X1289500D01*
Y180012D01*
X1289319D01*
Y180375D01*
X1289138D01*
Y180737D01*
X1288956D01*
Y180919D01*
X1288775D01*
Y181281D01*
X1288594D01*
Y181644D01*
X1288412D01*
Y182006D01*
X1288231D01*
Y182369D01*
X1288050D01*
Y182731D01*
X1287869D01*
Y182913D01*
X1287688D01*
Y183275D01*
X1287506D01*
Y183638D01*
X1287325D01*
Y184000D01*
X1287144D01*
Y184363D01*
X1286962D01*
Y184725D01*
X1286781D01*
Y185088D01*
X1286600D01*
Y185450D01*
X1286419D01*
Y185812D01*
X1286237D01*
Y185994D01*
X1286056D01*
Y186356D01*
X1285875D01*
Y186719D01*
X1285694D01*
Y187081D01*
X1285513D01*
Y187444D01*
X1285331D01*
Y187806D01*
X1285150D01*
Y187987D01*
X1284969D01*
Y188350D01*
X1284787D01*
Y188713D01*
X1284606D01*
Y189075D01*
X1284425D01*
Y189438D01*
X1284244D01*
Y189800D01*
X1284062D01*
Y189981D01*
X1283881D01*
Y190344D01*
X1283700D01*
Y190706D01*
X1283519D01*
Y191069D01*
X1283338D01*
Y191431D01*
X1283156D01*
Y191794D01*
X1282975D01*
Y192156D01*
X1282794D01*
Y192337D01*
X1282612D01*
Y192700D01*
X1282431D01*
Y193062D01*
X1282250D01*
Y193425D01*
X1282069D01*
Y193787D01*
X1281888D01*
Y194150D01*
X1281706D01*
Y194513D01*
X1281525D01*
Y194694D01*
X1281344D01*
Y195056D01*
X1281163D01*
Y195419D01*
X1280981D01*
Y195781D01*
X1280800D01*
Y196144D01*
X1280619D01*
Y196506D01*
X1280437D01*
Y196688D01*
X1280256D01*
Y197050D01*
X1280075D01*
Y197412D01*
X1279894D01*
Y197775D01*
X1279713D01*
Y198137D01*
X1279531D01*
Y198500D01*
X1279350D01*
Y198862D01*
X1279169D01*
Y199044D01*
X1278988D01*
Y199406D01*
X1278806D01*
Y199769D01*
X1278625D01*
Y200131D01*
X1278444D01*
Y200494D01*
X1278262D01*
Y200856D01*
X1278081D01*
Y201038D01*
X1277900D01*
Y201400D01*
X1277719D01*
Y201763D01*
X1277538D01*
Y202125D01*
X1277356D01*
Y202488D01*
X1277175D01*
Y202850D01*
X1276994D01*
Y203213D01*
X1276813D01*
Y203394D01*
X1276631D01*
Y203756D01*
X1276450D01*
Y204119D01*
X1276269D01*
Y204481D01*
X1276087D01*
Y204844D01*
X1275906D01*
Y205206D01*
X1275725D01*
Y205569D01*
X1275544D01*
Y205750D01*
X1275362D01*
Y205931D01*
X1275181D01*
Y206112D01*
D02*
G37*
%LPD*%
G36*
X1280075Y182913D02*
X1280256D01*
Y182369D01*
X1280437D01*
Y181825D01*
X1280619D01*
Y181281D01*
X1280800D01*
Y180737D01*
X1280981D01*
Y180194D01*
X1281163D01*
Y179650D01*
X1281344D01*
Y179106D01*
X1281525D01*
Y178563D01*
X1281706D01*
Y178019D01*
X1281888D01*
Y177475D01*
X1282069D01*
Y176931D01*
X1282250D01*
Y176388D01*
X1282431D01*
Y175844D01*
X1282612D01*
Y175300D01*
X1282794D01*
Y174756D01*
X1282975D01*
Y174031D01*
X1283156D01*
Y173669D01*
X1283338D01*
Y173125D01*
X1283519D01*
Y172581D01*
X1283700D01*
Y171856D01*
X1283881D01*
Y171313D01*
X1284062D01*
Y170950D01*
X1284244D01*
Y170406D01*
X1284425D01*
Y169862D01*
X1284606D01*
Y169137D01*
X1284787D01*
Y168594D01*
X1284969D01*
Y168050D01*
X1285150D01*
Y167687D01*
X1285331D01*
Y166963D01*
X1285513D01*
Y166419D01*
X1285694D01*
Y165875D01*
X1285875D01*
Y165331D01*
X1286056D01*
Y164788D01*
X1286237D01*
Y164244D01*
X1286419D01*
Y163881D01*
X1286600D01*
Y163156D01*
X1286781D01*
Y162612D01*
X1286962D01*
Y162069D01*
X1287144D01*
Y161525D01*
X1287325D01*
Y160981D01*
X1287506D01*
Y160438D01*
X1287688D01*
Y159894D01*
X1287869D01*
Y159350D01*
X1288050D01*
Y158806D01*
X1288231D01*
Y158263D01*
X1288412D01*
Y157719D01*
X1288594D01*
Y157175D01*
X1288775D01*
Y156631D01*
X1288956D01*
Y156088D01*
X1289138D01*
Y155544D01*
X1289319D01*
Y155000D01*
X1289500D01*
Y154456D01*
X1289681D01*
Y153912D01*
X1289863D01*
Y153369D01*
X1290044D01*
Y152825D01*
X1290225D01*
Y152644D01*
X1289863D01*
Y152825D01*
X1289319D01*
Y153006D01*
X1288956D01*
Y153188D01*
X1288594D01*
Y153369D01*
X1288050D01*
Y153550D01*
X1287688D01*
Y153731D01*
X1287144D01*
Y153912D01*
X1286781D01*
Y154094D01*
X1286237D01*
Y154275D01*
X1285875D01*
Y154456D01*
X1285513D01*
Y154637D01*
X1284969D01*
Y154819D01*
X1284606D01*
Y155000D01*
X1284062D01*
Y155181D01*
X1283700D01*
Y155363D01*
X1283338D01*
Y155544D01*
X1282794D01*
Y155725D01*
X1282431D01*
Y155906D01*
X1281888D01*
Y156088D01*
X1281525D01*
Y156269D01*
X1280981D01*
Y156450D01*
X1280619D01*
Y156631D01*
X1280256D01*
Y156812D01*
X1279713D01*
Y156994D01*
X1279350D01*
Y157175D01*
X1278806D01*
Y157356D01*
X1278444D01*
Y157537D01*
X1278081D01*
Y157719D01*
X1277538D01*
Y157900D01*
X1277175D01*
Y158081D01*
X1276631D01*
Y158263D01*
X1276269D01*
Y158444D01*
X1275725D01*
Y158625D01*
X1275362D01*
Y158806D01*
X1275000D01*
Y158988D01*
X1274456D01*
Y158625D01*
X1274638D01*
Y157356D01*
X1274819D01*
Y156269D01*
X1275000D01*
Y155000D01*
X1275181D01*
Y153912D01*
X1275362D01*
Y152644D01*
X1275544D01*
Y151556D01*
X1275725D01*
Y150469D01*
X1275906D01*
Y149200D01*
X1276087D01*
Y148112D01*
X1276269D01*
Y146844D01*
X1276450D01*
Y145756D01*
X1276631D01*
Y144669D01*
X1276813D01*
Y143400D01*
X1276994D01*
Y142131D01*
X1277175D01*
Y141044D01*
X1277538D01*
Y141225D01*
X1277719D01*
Y141406D01*
X1277900D01*
Y141587D01*
X1278081D01*
Y141769D01*
X1278444D01*
Y141950D01*
X1278625D01*
Y142131D01*
X1278806D01*
Y142312D01*
X1278988D01*
Y142494D01*
X1279350D01*
Y142675D01*
X1279531D01*
Y142856D01*
X1279713D01*
Y143038D01*
X1279894D01*
Y142675D01*
X1279713D01*
Y141769D01*
X1279531D01*
Y141225D01*
X1279350D01*
Y140500D01*
X1279169D01*
Y139775D01*
X1278988D01*
Y139050D01*
X1278806D01*
Y138325D01*
X1278625D01*
Y137600D01*
X1278444D01*
Y136875D01*
X1278262D01*
Y136150D01*
X1278081D01*
Y135425D01*
X1277900D01*
Y134700D01*
X1277719D01*
Y133975D01*
X1277538D01*
Y133250D01*
X1277356D01*
Y132706D01*
X1277175D01*
Y131981D01*
X1276994D01*
Y131256D01*
X1276813D01*
Y130531D01*
X1276631D01*
Y129806D01*
X1276450D01*
Y129263D01*
X1276269D01*
Y129444D01*
X1276087D01*
Y129625D01*
X1275906D01*
Y129987D01*
X1275725D01*
Y130350D01*
X1275544D01*
Y130712D01*
X1275362D01*
Y131075D01*
X1275181D01*
Y131438D01*
X1275000D01*
Y131800D01*
X1274819D01*
Y132163D01*
X1274638D01*
Y132344D01*
X1274456D01*
Y132706D01*
X1274275D01*
Y133069D01*
X1274094D01*
Y133431D01*
X1273913D01*
Y133794D01*
X1273731D01*
Y134156D01*
X1273550D01*
Y134519D01*
X1273369D01*
Y134881D01*
X1273187D01*
Y135063D01*
X1273006D01*
Y135425D01*
X1272825D01*
Y135787D01*
X1272644D01*
Y136150D01*
X1272462D01*
Y136512D01*
X1272281D01*
Y136875D01*
X1272100D01*
Y137238D01*
X1271919D01*
Y137419D01*
X1271738D01*
Y137963D01*
X1271556D01*
Y138144D01*
X1271375D01*
Y138506D01*
X1271194D01*
Y138869D01*
X1271012D01*
Y139231D01*
X1270831D01*
Y139594D01*
X1270650D01*
Y139956D01*
X1270469D01*
Y140319D01*
X1270287D01*
Y140681D01*
X1270106D01*
Y140863D01*
X1269925D01*
Y141225D01*
X1269744D01*
Y141587D01*
X1269563D01*
Y141769D01*
X1269925D01*
Y141587D01*
X1270287D01*
Y141406D01*
X1270650D01*
Y141225D01*
X1271012D01*
Y141044D01*
X1271556D01*
Y140863D01*
X1271919D01*
Y140681D01*
X1272281D01*
Y140500D01*
X1272644D01*
Y140681D01*
X1272462D01*
Y141044D01*
X1272281D01*
Y141769D01*
X1272100D01*
Y142312D01*
X1271919D01*
Y142856D01*
X1271738D01*
Y143581D01*
X1271556D01*
Y143944D01*
X1271375D01*
Y144487D01*
X1271194D01*
Y145212D01*
X1271012D01*
Y145756D01*
X1270831D01*
Y146300D01*
X1270650D01*
Y146844D01*
X1270469D01*
Y147388D01*
X1270287D01*
Y148112D01*
X1270106D01*
Y148656D01*
X1269925D01*
Y149200D01*
X1269744D01*
Y149744D01*
X1269563D01*
Y150288D01*
X1269381D01*
Y150831D01*
X1269200D01*
Y151556D01*
X1269019D01*
Y152100D01*
X1268838D01*
Y152644D01*
X1268656D01*
Y153188D01*
X1268475D01*
Y153731D01*
X1268294D01*
Y154275D01*
X1268112D01*
Y155000D01*
X1267931D01*
Y155544D01*
X1267750D01*
Y156088D01*
X1267569D01*
Y156631D01*
X1267387D01*
Y157175D01*
X1267206D01*
Y157537D01*
Y157719D01*
Y157900D01*
X1267025D01*
Y158444D01*
X1266844D01*
Y158988D01*
X1266663D01*
Y159531D01*
X1266481D01*
Y160075D01*
X1266300D01*
Y160800D01*
X1266119D01*
Y161344D01*
X1265938D01*
Y161887D01*
X1265756D01*
Y162431D01*
X1265575D01*
Y162975D01*
X1265394D01*
Y163519D01*
X1265212D01*
Y164062D01*
X1265031D01*
Y164606D01*
X1264850D01*
Y165150D01*
X1264669D01*
Y165875D01*
X1264488D01*
Y166419D01*
X1264306D01*
Y167144D01*
X1264125D01*
Y167687D01*
X1264306D01*
Y167506D01*
X1264488D01*
Y167325D01*
X1265031D01*
Y167144D01*
X1265394D01*
Y166963D01*
X1265938D01*
Y166781D01*
X1266300D01*
Y166600D01*
X1266844D01*
Y166419D01*
X1267206D01*
Y166238D01*
X1267569D01*
Y166056D01*
X1268112D01*
Y165875D01*
X1268475D01*
Y165694D01*
X1268838D01*
Y165513D01*
X1269200D01*
Y165331D01*
X1269744D01*
Y165150D01*
X1270106D01*
Y164969D01*
X1270469D01*
Y164788D01*
X1271012D01*
Y164606D01*
X1271375D01*
Y164425D01*
X1271919D01*
Y164244D01*
X1272281D01*
Y164062D01*
X1272825D01*
Y163881D01*
X1273187D01*
Y163700D01*
X1273550D01*
Y163519D01*
X1273913D01*
Y163337D01*
X1274456D01*
Y163156D01*
X1274819D01*
Y162975D01*
X1275362D01*
Y162794D01*
X1275725D01*
Y162612D01*
X1276087D01*
Y162431D01*
X1276450D01*
Y162250D01*
X1276994D01*
Y162069D01*
X1277356D01*
Y161887D01*
X1277900D01*
Y161706D01*
X1278081D01*
Y161525D01*
X1278625D01*
Y161344D01*
X1278806D01*
Y161887D01*
X1278625D01*
Y162250D01*
X1278444D01*
Y162612D01*
X1278262D01*
Y162975D01*
X1278081D01*
Y163337D01*
X1277900D01*
Y163700D01*
X1277719D01*
Y164062D01*
X1277538D01*
Y164425D01*
X1277356D01*
Y164788D01*
X1277175D01*
Y165150D01*
X1276994D01*
Y165513D01*
X1276813D01*
Y165875D01*
X1276631D01*
Y166238D01*
X1276450D01*
Y166600D01*
X1276269D01*
Y166963D01*
X1276087D01*
Y167325D01*
X1275906D01*
Y167869D01*
X1275725D01*
Y168231D01*
X1275544D01*
Y168594D01*
X1275362D01*
Y168956D01*
X1275181D01*
Y169319D01*
X1275000D01*
Y169681D01*
X1274819D01*
Y170044D01*
X1274638D01*
Y170406D01*
X1274456D01*
Y170769D01*
X1274275D01*
Y171131D01*
X1274094D01*
Y171675D01*
X1273913D01*
Y171856D01*
X1273731D01*
Y172400D01*
X1273550D01*
Y172581D01*
X1273369D01*
Y172944D01*
X1273187D01*
Y173487D01*
X1273006D01*
Y173850D01*
X1272825D01*
Y174212D01*
X1272644D01*
Y174575D01*
X1272462D01*
Y174937D01*
X1272281D01*
Y175300D01*
X1272100D01*
Y175662D01*
X1271919D01*
Y176025D01*
X1271738D01*
Y176388D01*
X1271556D01*
Y176750D01*
X1271375D01*
Y177113D01*
X1271194D01*
Y177475D01*
X1271012D01*
Y177838D01*
X1270831D01*
Y178381D01*
X1270650D01*
Y178563D01*
X1270469D01*
Y178925D01*
X1270287D01*
Y179469D01*
X1270106D01*
Y179831D01*
X1269925D01*
Y180194D01*
X1269744D01*
Y180556D01*
X1269563D01*
Y180919D01*
X1269381D01*
Y181281D01*
X1269200D01*
Y181644D01*
X1269019D01*
Y182006D01*
X1268838D01*
Y182369D01*
X1268656D01*
Y182731D01*
X1268475D01*
Y183275D01*
X1280075D01*
Y182913D01*
D02*
G37*
%LPC*%
G36*
X653025Y380482D02*
X652243Y380443D01*
X650684Y380133D01*
X649240Y379535D01*
X647940Y378666D01*
X646834Y377561D01*
X645965Y376260D01*
X645367Y374816D01*
X645057Y373257D01*
X645018Y372475D01*
Y245500D01*
X645018Y245500D01*
Y98525D01*
X645057Y97743D01*
X645367Y96184D01*
X645965Y94740D01*
X646834Y93440D01*
X647940Y92334D01*
X649240Y91465D01*
X650684Y90867D01*
X652243Y90557D01*
X653025Y90518D01*
X1186974D01*
X1187757Y90557D01*
X1189315Y90867D01*
X1190760Y91465D01*
X1192060Y92334D01*
X1193166Y93440D01*
X1194035Y94740D01*
X1194633Y96185D01*
X1194943Y97743D01*
X1194982Y98525D01*
X1194982Y237999D01*
X1194982Y238000D01*
X1194982Y372475D01*
X1194943Y373257D01*
X1194633Y374815D01*
X1194035Y376260D01*
X1193166Y377560D01*
X1192060Y378666D01*
X1190760Y379535D01*
X1189315Y380133D01*
X1187757Y380443D01*
X1186975Y380482D01*
X653025Y380482D01*
D02*
G37*
%LPD*%
D11*
X0Y50000D02*
G03*
X50000Y-0I50000J0D01*
G01*
X1650000Y-0D02*
G03*
X1700000Y50000I0J50000D01*
G01*
Y550000D02*
G03*
X1650000Y600000I-50000J0D01*
G01*
X50000D02*
G03*
X0Y550000I0J-50000D01*
G01*
X50000Y-0D02*
X1650000D01*
X1700000Y50000D02*
Y550000D01*
X50000Y600000D02*
X1650000D01*
X0Y50000D02*
Y550000D01*
D21*
X715000Y156157D02*
D03*
X715000Y171651D02*
D03*
X735000D02*
D03*
X735000Y156157D02*
D03*
X695000Y277500D02*
D03*
X695000Y262006D02*
D03*
X710000Y277500D02*
D03*
X710000Y262006D02*
D03*
X685000Y218506D02*
D03*
X685000Y234000D02*
D03*
X700000Y156157D02*
D03*
X700000Y171651D02*
D03*
Y125000D02*
D03*
X700000Y140494D02*
D03*
X890000Y277500D02*
D03*
X890000Y262006D02*
D03*
X915000Y171651D02*
D03*
X915000Y156157D02*
D03*
X895000D02*
D03*
X895000Y171651D02*
D03*
X880000Y156157D02*
D03*
X880000Y171651D02*
D03*
X865000Y218506D02*
D03*
X865000Y234000D02*
D03*
X875000Y277500D02*
D03*
X875000Y262006D02*
D03*
X880000Y125000D02*
D03*
X880000Y140494D02*
D03*
X1060000Y125000D02*
D03*
X1060000Y140494D02*
D03*
X1060000Y156157D02*
D03*
X1060000Y171651D02*
D03*
X1031000Y234000D02*
D03*
X1031000Y218506D02*
D03*
X1045000Y218506D02*
D03*
X1045000Y234000D02*
D03*
X1055000Y277500D02*
D03*
X1055000Y262006D02*
D03*
X1070000Y277500D02*
D03*
X1070000Y262006D02*
D03*
X1075000Y156157D02*
D03*
X1075000Y171651D02*
D03*
X1095000D02*
D03*
X1095000Y156157D02*
D03*
X1450000Y68000D02*
D03*
X1450000Y83494D02*
D03*
X1435000Y68000D02*
D03*
X1435000Y83494D02*
D03*
X1370000Y80000D02*
D03*
X1370000Y64506D02*
D03*
X610000Y80000D02*
D03*
X610000Y64506D02*
D03*
X370000Y80000D02*
D03*
X370000Y64506D02*
D03*
X390000Y64506D02*
D03*
X390000Y80000D02*
D03*
X410000Y80000D02*
D03*
X410000Y64506D02*
D03*
X430000D02*
D03*
X430000Y80000D02*
D03*
X450000D02*
D03*
X450000Y64506D02*
D03*
X1370000Y110000D02*
D03*
X1370000Y94506D02*
D03*
X610000Y110000D02*
D03*
X610000Y94506D02*
D03*
X470000Y80000D02*
D03*
X470000Y64506D02*
D03*
X1350000Y80000D02*
D03*
X1350000Y64506D02*
D03*
X310000Y80000D02*
D03*
X310000Y64506D02*
D03*
X1283000Y80000D02*
D03*
X1283000Y64506D02*
D03*
X1333000Y80000D02*
D03*
X1333000Y64506D02*
D03*
D22*
X1163500Y389000D02*
D03*
X676500Y82000D02*
D03*
D24*
X1647300Y443150D02*
D03*
D25*
X1672700Y302850D02*
D03*
X1647300Y290150D02*
D03*
X1672700Y328250D02*
D03*
X1647300Y315550D02*
D03*
X1672700Y353650D02*
D03*
X1647300Y340950D02*
D03*
X1672700Y379050D02*
D03*
X1647300Y366350D02*
D03*
X1672700Y404450D02*
D03*
Y429850D02*
D03*
X1647300Y391750D02*
D03*
Y417150D02*
D03*
D26*
X1672700Y276850D02*
D03*
D27*
X170000Y40000D02*
D03*
X230000Y40000D02*
D03*
X1470000Y40000D02*
D03*
X1530000Y40000D02*
D03*
D28*
X190000Y40000D02*
D03*
X210000Y40000D02*
D03*
X1490000Y40000D02*
D03*
X1510000Y40000D02*
D03*
D29*
X290000D02*
D03*
X310000Y40000D02*
D03*
X330000D02*
D03*
X350000Y40000D02*
D03*
X370000Y40000D02*
D03*
X390000Y40000D02*
D03*
X410000Y40000D02*
D03*
X430000Y40000D02*
D03*
X450000D02*
D03*
X470000Y40000D02*
D03*
X490000Y40000D02*
D03*
X510000Y40000D02*
D03*
X530000Y40000D02*
D03*
X550000Y40000D02*
D03*
X570000Y40000D02*
D03*
X590000Y40000D02*
D03*
X610000Y40000D02*
D03*
X630000Y40000D02*
D03*
X650000Y40000D02*
D03*
X670000D02*
D03*
X690000Y40000D02*
D03*
X710000Y40000D02*
D03*
X730000Y40000D02*
D03*
X750000Y40000D02*
D03*
X770000Y40000D02*
D03*
X790000Y40000D02*
D03*
X810000D02*
D03*
X830000Y40000D02*
D03*
X850000Y40000D02*
D03*
X870000Y40000D02*
D03*
X890000Y40000D02*
D03*
X910000Y40000D02*
D03*
X930000Y40000D02*
D03*
X950000Y40000D02*
D03*
X970000Y40000D02*
D03*
X990000Y40000D02*
D03*
X1010000Y40000D02*
D03*
X1030001D02*
D03*
X1050000D02*
D03*
X1070001Y40000D02*
D03*
X1090000Y40000D02*
D03*
X1110000Y40000D02*
D03*
X1130001Y40000D02*
D03*
X1150001Y40000D02*
D03*
X1170001Y40000D02*
D03*
X1190001Y40000D02*
D03*
X1210001Y40000D02*
D03*
X1230001Y40000D02*
D03*
X1250001D02*
D03*
X1270001Y40000D02*
D03*
X1290001D02*
D03*
X1310000Y40000D02*
D03*
X1330001Y40000D02*
D03*
X1350001D02*
D03*
X1370001Y40000D02*
D03*
X1390001Y40000D02*
D03*
X1410001D02*
D03*
D30*
X1133125Y114750D02*
D03*
X1124375Y114750D02*
D03*
X1451498Y103167D02*
D03*
X1447750Y97750D02*
D03*
X1458998Y103167D02*
D03*
X1455250Y97750D02*
D03*
X310000Y92500D02*
D03*
X470000D02*
D03*
X1477749Y97749D02*
D03*
X1473993Y103167D02*
D03*
X1462750Y97750D02*
D03*
X1466498Y103167D02*
D03*
X1470250Y97750D02*
D03*
X1370000Y122500D02*
D03*
X1298750Y95000D02*
D03*
X1316250D02*
D03*
X610000Y122500D02*
D03*
X420000Y92500D02*
D03*
X494500Y128000D02*
D03*
X345500Y108696D02*
D03*
X1128750Y120000D02*
D03*
X1137500Y120000D02*
D03*
X721254Y207081D02*
D03*
X725000Y212500D02*
D03*
X728745Y217919D02*
D03*
X740000Y180000D02*
D03*
X730000Y180000D02*
D03*
X760000Y120000D02*
D03*
X770000Y120000D02*
D03*
X752006Y142500D02*
D03*
X721244Y217918D02*
D03*
X717499Y212499D02*
D03*
X685000Y247500D02*
D03*
X702500Y212500D02*
D03*
X706250Y217919D02*
D03*
X706254Y207081D02*
D03*
X710000Y212500D02*
D03*
X713755Y207082D02*
D03*
X713745Y217919D02*
D03*
X787500Y345000D02*
D03*
X728754Y207081D02*
D03*
X732500Y212500D02*
D03*
X747500Y345000D02*
D03*
X757500Y345000D02*
D03*
X767500Y345000D02*
D03*
X777500Y345000D02*
D03*
X740000Y190000D02*
D03*
X886250Y217919D02*
D03*
X882500Y212500D02*
D03*
X865000Y247500D02*
D03*
X910000Y180000D02*
D03*
X950000Y120000D02*
D03*
X920000Y180000D02*
D03*
X932006Y142500D02*
D03*
X940000Y120000D02*
D03*
X901244Y217918D02*
D03*
X901254Y207081D02*
D03*
X905000Y212500D02*
D03*
X908745Y217919D02*
D03*
X908754Y207081D02*
D03*
X912500Y212500D02*
D03*
X927500Y345000D02*
D03*
X937500Y345000D02*
D03*
X947500Y345000D02*
D03*
X957500Y345000D02*
D03*
X967500Y345000D02*
D03*
X893745Y217919D02*
D03*
X893755Y207082D02*
D03*
X897499Y212499D02*
D03*
X920000Y190000D02*
D03*
X890000Y212500D02*
D03*
X886254Y207081D02*
D03*
X1127500Y345000D02*
D03*
X1137500Y345000D02*
D03*
X1147500Y345000D02*
D03*
X1070000Y212500D02*
D03*
X1066253Y207079D02*
D03*
X1066248Y217917D02*
D03*
X1062500Y212500D02*
D03*
X1045000Y247500D02*
D03*
X1073743Y217917D02*
D03*
X1073753Y207080D02*
D03*
X1077499Y212499D02*
D03*
X1081242Y217916D02*
D03*
X1081253Y207079D02*
D03*
X1085000Y212500D02*
D03*
X1088743Y217917D02*
D03*
X1088753Y207079D02*
D03*
X1090000Y180000D02*
D03*
X1092500Y212500D02*
D03*
X1100000Y180000D02*
D03*
X1107500Y345000D02*
D03*
X1107506Y123500D02*
D03*
X1120000Y120000D02*
D03*
X1117500Y345000D02*
D03*
X1100000Y190000D02*
D03*
X1067498Y181000D02*
D03*
X1435000Y95994D02*
D03*
X450000Y92500D02*
D03*
X430000D02*
D03*
X410000D02*
D03*
X390000Y92500D02*
D03*
X1568500Y51000D02*
D03*
X1540000Y17500D02*
D03*
X1270492Y64508D02*
D03*
X1370000Y87253D02*
D03*
X610000D02*
D03*
D31*
X1465000Y195000D02*
D03*
X1515000D02*
D03*
X1505000D02*
D03*
X1495000D02*
D03*
X1485000D02*
D03*
X1475000D02*
D03*
X1525000D02*
D03*
X1530000Y202500D02*
D03*
X1535000Y210000D02*
D03*
X1525000D02*
D03*
X1465000D02*
D03*
X1475000D02*
D03*
X1485000D02*
D03*
X1495000D02*
D03*
X1505000D02*
D03*
X1515000D02*
D03*
X1520000Y202500D02*
D03*
X1510000D02*
D03*
X1500000D02*
D03*
X1490000D02*
D03*
X1480000D02*
D03*
X1470000D02*
D03*
X1605000Y180000D02*
D03*
X1625000Y195000D02*
D03*
X1605000D02*
D03*
X1615000D02*
D03*
X1610000Y187500D02*
D03*
X1600000D02*
D03*
X1570000Y202500D02*
D03*
X1580000D02*
D03*
X1590000D02*
D03*
X1600000D02*
D03*
X1610000D02*
D03*
X1620000D02*
D03*
X1615000Y210000D02*
D03*
X1605000D02*
D03*
X1595000D02*
D03*
X1585000D02*
D03*
X1575000D02*
D03*
X1565000D02*
D03*
D71*
X1670868Y224618D02*
X1671344Y225571D01*
X1672296Y226523D01*
X1673248Y226999D01*
X1675153D01*
X1676105Y226523D01*
X1677057Y225571D01*
X1677533Y224618D01*
X1678009Y223190D01*
Y220810D01*
X1677533Y219382D01*
X1677057Y218429D01*
X1676105Y217477D01*
X1675153Y217001D01*
X1673248D01*
X1672296Y217477D01*
X1671344Y218429D01*
X1670868Y219382D01*
Y220810D01*
X1673248D02*
X1670868D01*
X1668583Y226999D02*
Y217001D01*
Y226999D02*
X1661917Y217001D01*
Y226999D02*
Y217001D01*
X1659156Y226999D02*
Y217001D01*
Y226999D02*
X1655823D01*
X1654395Y226523D01*
X1653443Y225571D01*
X1652967Y224618D01*
X1652491Y223190D01*
Y220810D01*
X1652967Y219382D01*
X1653443Y218429D01*
X1654395Y217477D01*
X1655823Y217001D01*
X1659156D01*
X1682211Y122499D02*
X1686971D01*
X1687448Y118214D01*
X1686971Y118690D01*
X1685543Y119166D01*
X1684115D01*
X1682687Y118690D01*
X1681734Y117738D01*
X1681258Y116310D01*
Y115358D01*
X1681734Y113929D01*
X1682687Y112977D01*
X1684115Y112501D01*
X1685543D01*
X1686971Y112977D01*
X1687448Y113453D01*
X1687924Y114405D01*
X1679021Y116786D02*
X1670451D01*
X1667023Y120119D02*
Y120595D01*
X1666547Y121547D01*
X1666071Y122023D01*
X1665119Y122499D01*
X1663215D01*
X1662263Y122023D01*
X1661786Y121547D01*
X1661310Y120595D01*
Y119642D01*
X1661786Y118690D01*
X1662739Y117262D01*
X1667500Y112501D01*
X1660834D01*
X1653836Y122499D02*
X1658597Y115834D01*
X1651455D01*
X1653836Y122499D02*
Y112501D01*
X1649694Y122499D02*
X1645885Y112501D01*
X1642076Y122499D02*
X1645885Y112501D01*
D72*
X752006Y170000D02*
D03*
X767500Y170000D02*
D03*
X752006Y155000D02*
D03*
X767500Y155000D02*
D03*
X932006Y170000D02*
D03*
X947500Y170000D02*
D03*
X932006Y155000D02*
D03*
X947500Y155000D02*
D03*
X1107506Y151000D02*
D03*
X1123000Y151000D02*
D03*
X1107506Y136000D02*
D03*
X1123000Y136000D02*
D03*
D73*
X729500Y292500D02*
D03*
X805500D02*
D03*
X909500Y292500D02*
D03*
X985500D02*
D03*
D74*
X767500Y254500D02*
D03*
Y330500D02*
D03*
X947500Y254500D02*
D03*
Y330500D02*
D03*
X1127500Y254500D02*
D03*
Y330500D02*
D03*
D75*
X767500Y192350D02*
D03*
X767500Y232650D02*
D03*
X947500Y192350D02*
D03*
X947500Y232650D02*
D03*
D76*
X737528Y135000D02*
D03*
X767500Y135000D02*
D03*
X917528Y135000D02*
D03*
X947500Y135000D02*
D03*
X1166531Y165000D02*
D03*
X1136559Y165000D02*
D03*
X1166531Y140000D02*
D03*
X1136559Y140000D02*
D03*
X1112514Y227500D02*
D03*
X1142486Y227500D02*
D03*
D77*
X889999Y190999D02*
D03*
X914999Y233999D02*
D03*
X894999Y190999D02*
D03*
X904999D02*
D03*
X884999D02*
D03*
X879999D02*
D03*
X904999Y233999D02*
D03*
X894999D02*
D03*
X889999D02*
D03*
X884999D02*
D03*
X879999D02*
D03*
X1069998Y190999D02*
D03*
X1094998Y233999D02*
D03*
X1074998Y190999D02*
D03*
X1084998D02*
D03*
X1064998D02*
D03*
X1059998D02*
D03*
X1084998Y233999D02*
D03*
X1074998D02*
D03*
X1069998D02*
D03*
X1064998D02*
D03*
X1059998D02*
D03*
X710000Y191000D02*
D03*
X735000Y234000D02*
D03*
X715000Y191000D02*
D03*
X725000D02*
D03*
X705000D02*
D03*
X700000D02*
D03*
X725000Y234000D02*
D03*
X715000D02*
D03*
X710000D02*
D03*
X705000D02*
D03*
X700000D02*
D03*
D78*
X914999Y190999D02*
D03*
X1094998Y190999D02*
D03*
X735000Y191000D02*
D03*
D79*
X897498Y212498D02*
D03*
X1077497Y212498D02*
D03*
X717499Y212499D02*
D03*
D80*
X1125200Y195000D02*
D03*
X1165500Y195000D02*
D03*
D81*
X1089500Y292500D02*
D03*
X1165500D02*
D03*
D82*
X1665000Y136000D02*
D03*
Y204000D02*
D03*
D83*
X1642500Y180000D02*
D03*
Y160000D02*
D03*
D84*
X1317000Y68704D02*
D03*
X1298000D02*
D03*
D85*
X1307500Y89024D02*
D03*
D86*
X1469894Y68000D02*
D03*
Y87000D02*
D03*
D87*
X1490214Y77500D02*
D03*
D88*
X1575000Y160000D02*
D03*
X1525000D02*
D03*
D89*
X358000Y108696D02*
D03*
Y128000D02*
D03*
X414000Y128000D02*
D03*
Y108696D02*
D03*
X426000Y108696D02*
D03*
Y128000D02*
D03*
X482000Y128000D02*
D03*
Y108696D02*
D03*
D90*
X378320Y118348D02*
D03*
X393680Y118348D02*
D03*
X446320Y118348D02*
D03*
X461680Y118348D02*
D03*
D91*
X1587500Y242500D02*
D03*
X1516500D02*
D03*
D92*
X1650000Y50000D02*
D03*
Y550000D02*
D03*
X50000D02*
D03*
Y50000D02*
D03*
M02*
