G04*
G04 #@! TF.GenerationSoftware,Altium Limited,Altium Designer,23.4.1 (23)*
G04*
G04 Layer_Color=16711833*
%FSLAX44Y44*%
%MOMM*%
G71*
G04*
G04 #@! TF.SameCoordinates,84FF7B06-7675-46D2-9C4A-C1C127FEE623*
G04*
G04*
G04 #@! TF.FilePolarity,Negative*
G04*
G01*
G75*
%ADD12C,0.1000*%
%ADD19R,1.1938X0.8636*%
%ADD20R,0.5532X1.0032*%
%ADD21R,1.5532X0.8532*%
%ADD22C,1.7032*%
%ADD23C,1.9532*%
%ADD24C,2.7032*%
%ADD25C,2.3032*%
%ADD26O,1.6000X2.1000*%
%ADD27O,2.3500X2.1000*%
%ADD28R,4.1000X2.1000*%
%ADD29C,7.6032*%
%ADD30C,0.4600*%
%ADD31C,0.5600*%
D12*
X0Y50000D02*
G03*
X50000Y-0I50000J0D01*
G01*
X1650000Y-0D02*
G03*
X1700000Y50000I0J50000D01*
G01*
Y550000D02*
G03*
X1650000Y600000I-50000J0D01*
G01*
X50000D02*
G03*
X0Y550000I0J-50000D01*
G01*
X50000Y-0D02*
X1650000D01*
X1700000Y50000D02*
Y550000D01*
X50000Y600000D02*
X1650000D01*
X0Y50000D02*
Y550000D01*
D19*
X1557500Y30494D02*
D03*
Y15000D02*
D03*
X1602500Y20506D02*
D03*
X1602500Y36000D02*
D03*
D20*
X1573500Y15000D02*
D03*
X1580000D02*
D03*
X1586500D02*
D03*
Y36000D02*
D03*
X1580000D02*
D03*
X1573500D02*
D03*
D21*
X1580000Y25500D02*
D03*
D22*
X673999Y84000D02*
D03*
X1160999Y391000D02*
D03*
D23*
X1647300Y417150D02*
D03*
Y391750D02*
D03*
X1672700Y429850D02*
D03*
Y404450D02*
D03*
X1647300Y366350D02*
D03*
X1672700Y379050D02*
D03*
X1647300Y340950D02*
D03*
X1672700Y353650D02*
D03*
X1647300Y315550D02*
D03*
X1672700Y328250D02*
D03*
X1647300Y290150D02*
D03*
X1672700Y302850D02*
D03*
D24*
Y276850D02*
D03*
D25*
X1647300Y443150D02*
D03*
D26*
X1410001Y40000D02*
D03*
X1390001D02*
D03*
X1370001Y40000D02*
D03*
X1350001Y40000D02*
D03*
X1330001D02*
D03*
X1310000Y40000D02*
D03*
X1290001Y40000D02*
D03*
X1270001D02*
D03*
X1250001Y40000D02*
D03*
X1230001D02*
D03*
X1210001Y40000D02*
D03*
X1190001Y40000D02*
D03*
X1170001Y40000D02*
D03*
X1150001Y40000D02*
D03*
X1130001Y40000D02*
D03*
X1110000Y40000D02*
D03*
X1090000Y40000D02*
D03*
X1070001Y40000D02*
D03*
X1050000Y40000D02*
D03*
X1030001D02*
D03*
X1010000D02*
D03*
X990000Y40000D02*
D03*
X970000Y40000D02*
D03*
X950000Y40000D02*
D03*
X930000Y40000D02*
D03*
X910000Y40000D02*
D03*
X890000Y40000D02*
D03*
X870000Y40000D02*
D03*
X850000Y40000D02*
D03*
X830000Y40000D02*
D03*
X810000Y40000D02*
D03*
X790000D02*
D03*
X770000Y40000D02*
D03*
X750000Y40000D02*
D03*
X730000Y40000D02*
D03*
X710000Y40000D02*
D03*
X690000Y40000D02*
D03*
X670000Y40000D02*
D03*
X650000D02*
D03*
X630000Y40000D02*
D03*
X610000Y40000D02*
D03*
X590000Y40000D02*
D03*
X570000Y40000D02*
D03*
X550000Y40000D02*
D03*
X530000Y40000D02*
D03*
X510000Y40000D02*
D03*
X490000Y40000D02*
D03*
X470000Y40000D02*
D03*
X450000Y40000D02*
D03*
X430000D02*
D03*
X410000Y40000D02*
D03*
X390000Y40000D02*
D03*
X370000Y40000D02*
D03*
X350000Y40000D02*
D03*
X330000Y40000D02*
D03*
X310000D02*
D03*
X290000Y40000D02*
D03*
D27*
X1530000Y40000D02*
D03*
X1470000Y40000D02*
D03*
X230000Y40000D02*
D03*
X170000Y40000D02*
D03*
D28*
X1510000Y40000D02*
D03*
X1490000Y40000D02*
D03*
X210000Y40000D02*
D03*
X190000Y40000D02*
D03*
D29*
X1650000Y50000D02*
D03*
X50000D02*
D03*
Y550000D02*
D03*
X1650000D02*
D03*
D30*
X1100748Y195561D02*
D03*
Y178811D02*
D03*
X1094998Y182998D02*
D03*
X1100748Y187186D02*
D03*
X1089248Y178811D02*
D03*
X920749Y195562D02*
D03*
Y178812D02*
D03*
X914999Y182999D02*
D03*
X920749Y187187D02*
D03*
X909249Y178812D02*
D03*
X1580000Y25500D02*
D03*
X1545000Y15000D02*
D03*
X1127500Y228000D02*
D03*
Y219625D02*
D03*
Y236375D02*
D03*
X219250Y92750D02*
D03*
X200000Y86250D02*
D03*
X729250Y178813D02*
D03*
X740750Y187188D02*
D03*
X735000Y183000D02*
D03*
X230000Y57500D02*
D03*
X157000Y58625D02*
D03*
X242994Y81375D02*
D03*
X218748Y62917D02*
D03*
X211248D02*
D03*
X222500Y57500D02*
D03*
X215000D02*
D03*
X1133125Y114750D02*
D03*
X1124375Y114750D02*
D03*
X310000Y92500D02*
D03*
X470000D02*
D03*
X1370000Y122500D02*
D03*
X1298750Y95000D02*
D03*
X1316250D02*
D03*
X610000Y122500D02*
D03*
X420000Y92500D02*
D03*
X494500Y128000D02*
D03*
X345500Y108696D02*
D03*
X1128750Y120000D02*
D03*
X1137500Y120000D02*
D03*
X721254Y207081D02*
D03*
X725000Y212500D02*
D03*
X728745Y217919D02*
D03*
X740750Y178813D02*
D03*
X760000Y120000D02*
D03*
X770000Y120000D02*
D03*
X752006Y142500D02*
D03*
X721244Y217918D02*
D03*
X717499Y212499D02*
D03*
X685000Y247500D02*
D03*
X702500Y212500D02*
D03*
X706250Y217919D02*
D03*
X706254Y207081D02*
D03*
X710000Y212500D02*
D03*
X713755Y207082D02*
D03*
X713745Y217919D02*
D03*
X787500Y345000D02*
D03*
X728754Y207081D02*
D03*
X732500Y212500D02*
D03*
X747500Y345000D02*
D03*
X757500Y345000D02*
D03*
X767500Y345000D02*
D03*
X777500Y345000D02*
D03*
X740750Y195562D02*
D03*
X886250Y217919D02*
D03*
X882500Y212500D02*
D03*
X865000Y247500D02*
D03*
X950000Y120000D02*
D03*
X932006Y142500D02*
D03*
X940000Y120000D02*
D03*
X901244Y217918D02*
D03*
X901254Y207081D02*
D03*
X905000Y212500D02*
D03*
X908745Y217919D02*
D03*
X908754Y207081D02*
D03*
X912500Y212500D02*
D03*
X927500Y345000D02*
D03*
X937500Y345000D02*
D03*
X947500Y345000D02*
D03*
X957500Y345000D02*
D03*
X967500Y345000D02*
D03*
X893745Y217919D02*
D03*
X893755Y207082D02*
D03*
X897499Y212499D02*
D03*
X890000Y212500D02*
D03*
X886254Y207081D02*
D03*
X1127500Y345000D02*
D03*
X1137500Y345000D02*
D03*
X1147500Y345000D02*
D03*
X1070000Y212500D02*
D03*
X1066253Y207079D02*
D03*
X1066248Y217917D02*
D03*
X1062500Y212500D02*
D03*
X1045000Y247500D02*
D03*
X1073743Y217917D02*
D03*
X1073753Y207080D02*
D03*
X1077499Y212499D02*
D03*
X1081242Y217916D02*
D03*
X1081253Y207079D02*
D03*
X1085000Y212500D02*
D03*
X1088743Y217917D02*
D03*
X1088753Y207079D02*
D03*
X1092500Y212500D02*
D03*
X1107500Y345000D02*
D03*
X1107506Y123500D02*
D03*
X1120000Y120000D02*
D03*
X1117500Y345000D02*
D03*
X1067498Y181000D02*
D03*
X450000Y92500D02*
D03*
X430000D02*
D03*
X410000D02*
D03*
X390000Y92500D02*
D03*
X1573500Y48500D02*
D03*
X1270492Y64508D02*
D03*
X1370000Y87253D02*
D03*
X610000D02*
D03*
D31*
X1465000Y195000D02*
D03*
X1515000D02*
D03*
X1505000D02*
D03*
X1495000D02*
D03*
X1485000D02*
D03*
X1475000D02*
D03*
X1525000D02*
D03*
X1530000Y202500D02*
D03*
X1535000Y210000D02*
D03*
X1525000D02*
D03*
X1465000D02*
D03*
X1475000D02*
D03*
X1485000D02*
D03*
X1495000D02*
D03*
X1505000D02*
D03*
X1515000D02*
D03*
X1520000Y202500D02*
D03*
X1510000D02*
D03*
X1500000D02*
D03*
X1490000D02*
D03*
X1480000D02*
D03*
X1470000D02*
D03*
X1605000Y180000D02*
D03*
X1625000Y195000D02*
D03*
X1605000D02*
D03*
X1615000D02*
D03*
X1610000Y187500D02*
D03*
X1600000D02*
D03*
X1570000Y202500D02*
D03*
X1580000D02*
D03*
X1590000D02*
D03*
X1600000D02*
D03*
X1610000D02*
D03*
X1620000D02*
D03*
X1615000Y210000D02*
D03*
X1605000D02*
D03*
X1595000D02*
D03*
X1585000D02*
D03*
X1575000D02*
D03*
X1565000D02*
D03*
M02*
