G04*
G04 #@! TF.GenerationSoftware,Altium Limited,Altium Designer,23.4.1 (23)*
G04*
G04 Layer_Color=128*
%FSLAX44Y44*%
%MOMM*%
G71*
G04*
G04 #@! TF.SameCoordinates,DBF187C1-C023-4FEC-B3DF-6A61137768AB*
G04*
G04*
G04 #@! TF.FilePolarity,Positive*
G04*
G01*
G75*
%ADD11C,0.1000*%
%ADD18R,0.9906X0.6604*%
%ADD49R,1.4000X3.6000*%
%ADD50R,3.6000X1.4000*%
%ADD51R,1.4000X3.6000*%
%ADD52R,1.0000X1.5000*%
%ADD53R,2.9000X2.0500*%
%ADD54R,0.9144X0.9144*%
%ADD55R,1.2700X0.9144*%
%ADD56R,1.6400X1.4000*%
%ADD57R,0.3050X0.8890*%
G04:AMPARAMS|DCode=58|XSize=0.889mm|YSize=0.305mm|CornerRadius=0mm|HoleSize=0mm|Usage=FLASHONLY|Rotation=90.000|XOffset=0mm|YOffset=0mm|HoleType=Round|Shape=Octagon|*
%AMOCTAGOND58*
4,1,8,0.0763,0.4445,-0.0763,0.4445,-0.1525,0.3683,-0.1525,-0.3683,-0.0763,-0.4445,0.0763,-0.4445,0.1525,-0.3683,0.1525,0.3683,0.0763,0.4445,0.0*
%
%ADD58OCTAGOND58*%

%ADD59R,2.8450X1.6150*%
%ADD60R,4.0000X2.0000*%
%ADD61R,3.0000X6.0000*%
%ADD64R,3.0000X1.6000*%
%ADD65R,5.5000X1.0000*%
%ADD66R,1.1938X1.8796*%
%ADD67R,0.6604X0.9906*%
%ADD68R,1.4000X1.6400*%
%ADD69R,1.5000X1.0000*%
%ADD70R,2.0500X2.9000*%
G36*
X629000Y233000D02*
X629000Y98500D01*
X629000Y96136D01*
X629922Y91499D01*
X631731Y87132D01*
X634358Y83201D01*
X637701Y79858D01*
X641632Y77231D01*
X645999Y75422D01*
X650636Y74500D01*
X653000D01*
X653000Y74500D01*
Y74500D01*
X1187000Y74500D01*
Y74500D01*
X1189364D01*
X1194000Y75422D01*
X1198368Y77231D01*
X1202299Y79858D01*
X1205642Y83201D01*
X1208269Y87132D01*
X1210078Y91499D01*
X1211000Y96136D01*
Y98500D01*
X1211000Y98500D01*
Y233000D01*
X1196000Y233000D01*
Y98500D01*
X1195957Y97618D01*
X1195612Y95887D01*
X1194937Y94257D01*
X1193957Y92790D01*
X1192710Y91543D01*
X1191243Y90563D01*
X1189613Y89888D01*
X1187882Y89543D01*
X1187000Y89500D01*
X1187000Y89500D01*
X653000Y89500D01*
X652118Y89543D01*
X650387Y89888D01*
X648757Y90563D01*
X647290Y91543D01*
X646043Y92790D01*
X645063Y94257D01*
X644388Y95887D01*
X644043Y97618D01*
X644000Y98500D01*
Y98500D01*
X644000Y233000D01*
X629000Y233000D01*
D02*
G37*
G36*
X629000Y238000D02*
Y372500D01*
X629000Y374864D01*
X629922Y379501D01*
X631731Y383868D01*
X634358Y387799D01*
X637701Y391142D01*
X641632Y393769D01*
X645999Y395578D01*
X650636Y396500D01*
X653000D01*
X653000Y396500D01*
X653000Y396500D01*
X1187000Y396500D01*
X1187000Y396500D01*
X1189364D01*
X1194001Y395578D01*
X1198368Y393769D01*
X1202299Y391142D01*
X1205642Y387799D01*
X1208269Y383868D01*
X1210078Y379501D01*
X1211000Y374864D01*
Y372500D01*
X1211000D01*
X1211000Y238000D01*
X1196000Y238000D01*
X1196000Y372500D01*
X1195957Y373382D01*
X1195612Y375112D01*
X1194937Y376743D01*
X1193957Y378209D01*
X1192710Y379457D01*
X1191243Y380437D01*
X1189613Y381112D01*
X1187882Y381457D01*
X1187000Y381500D01*
D01*
X653000Y381500D01*
X652118Y381457D01*
X650387Y381113D01*
X648757Y380437D01*
X647290Y379457D01*
X646043Y378210D01*
X645063Y376743D01*
X644388Y375113D01*
X644043Y373382D01*
X644000Y372500D01*
Y372500D01*
Y238000D01*
X629000Y238000D01*
D02*
G37*
D11*
X0Y50000D02*
G03*
X50000Y-0I50000J0D01*
G01*
X1650000Y-0D02*
G03*
X1700000Y50000I0J50000D01*
G01*
Y550000D02*
G03*
X1650000Y600000I-50000J0D01*
G01*
X50000D02*
G03*
X0Y550000I0J-50000D01*
G01*
X50000Y-0D02*
X1650000D01*
X1700000Y50000D02*
Y550000D01*
X50000Y600000D02*
X1650000D01*
X0Y50000D02*
Y550000D01*
D18*
X410000Y80000D02*
D03*
X410000Y64506D02*
D03*
X735000Y171651D02*
D03*
X735000Y156157D02*
D03*
X1333000Y80000D02*
D03*
X1333000Y64506D02*
D03*
X700000Y125000D02*
D03*
X700000Y140494D02*
D03*
X1095000Y171651D02*
D03*
X1095000Y156157D02*
D03*
X1283000Y80000D02*
D03*
X1283000Y64506D02*
D03*
X1075000Y156157D02*
D03*
X1075000Y171651D02*
D03*
X1060000Y125000D02*
D03*
X1060000Y140494D02*
D03*
X710000Y277500D02*
D03*
X710000Y262006D02*
D03*
X715000Y156157D02*
D03*
X715000Y171651D02*
D03*
X695000Y277500D02*
D03*
X695000Y262006D02*
D03*
X865000Y218506D02*
D03*
X865000Y234000D02*
D03*
X1060000Y156157D02*
D03*
X1060000Y171651D02*
D03*
X1031000Y234000D02*
D03*
X1031000Y218506D02*
D03*
X685000Y218506D02*
D03*
X685000Y234000D02*
D03*
X1045000Y218506D02*
D03*
X1045000Y234000D02*
D03*
X370000Y80000D02*
D03*
X370000Y64506D02*
D03*
X1055000Y277500D02*
D03*
X1055000Y262006D02*
D03*
X700000Y156157D02*
D03*
X700000Y171651D02*
D03*
X310000Y80000D02*
D03*
X310000Y64506D02*
D03*
X1350000Y80000D02*
D03*
X1350000Y64506D02*
D03*
X470000Y80000D02*
D03*
X470000Y64506D02*
D03*
X610000Y110000D02*
D03*
X610000Y94506D02*
D03*
X1370000Y110000D02*
D03*
X1370000Y94506D02*
D03*
X450000Y80000D02*
D03*
X450000Y64506D02*
D03*
X390000Y64506D02*
D03*
X390000Y80000D02*
D03*
X610000Y80000D02*
D03*
X610000Y64506D02*
D03*
X1370000Y80000D02*
D03*
X1370000Y64506D02*
D03*
X1435000Y68000D02*
D03*
X1435000Y83494D02*
D03*
X1450000Y68000D02*
D03*
X1450000Y83494D02*
D03*
X1070000Y277500D02*
D03*
X1070000Y262006D02*
D03*
X915000Y171651D02*
D03*
X915000Y156157D02*
D03*
X895000D02*
D03*
X895000Y171651D02*
D03*
X880000Y125000D02*
D03*
X880000Y140494D02*
D03*
X890000Y277500D02*
D03*
X890000Y262006D02*
D03*
X880000Y156157D02*
D03*
X880000Y171651D02*
D03*
X875000Y277500D02*
D03*
X875000Y262006D02*
D03*
X430000Y64506D02*
D03*
X430000Y80000D02*
D03*
D49*
X729500Y292500D02*
D03*
X805500D02*
D03*
X909500Y292500D02*
D03*
X985500D02*
D03*
D50*
X767500Y254500D02*
D03*
Y330500D02*
D03*
X1127500Y254500D02*
D03*
Y330500D02*
D03*
X947500Y254500D02*
D03*
Y330500D02*
D03*
D51*
X1089500Y292500D02*
D03*
X1165500D02*
D03*
D52*
X1317000Y68704D02*
D03*
X1298000D02*
D03*
D53*
X1307500Y89024D02*
D03*
D54*
X358000Y108696D02*
D03*
Y128000D02*
D03*
X482000Y128000D02*
D03*
Y108696D02*
D03*
X426000Y108696D02*
D03*
Y128000D02*
D03*
X414000Y128000D02*
D03*
Y108696D02*
D03*
D55*
X378320Y118348D02*
D03*
X461680Y118348D02*
D03*
X446320Y118348D02*
D03*
X393680Y118348D02*
D03*
D56*
X947500Y192350D02*
D03*
X947500Y232650D02*
D03*
X767500Y192350D02*
D03*
X767500Y232650D02*
D03*
D57*
X1069998Y190999D02*
D03*
X1094998Y233999D02*
D03*
X1074998Y190999D02*
D03*
X1084998D02*
D03*
X1064998D02*
D03*
X1059998D02*
D03*
X1084998Y233999D02*
D03*
X1074998D02*
D03*
X1069998D02*
D03*
X1064998D02*
D03*
X1059998D02*
D03*
X889999Y190999D02*
D03*
X914999Y233999D02*
D03*
X894999Y190999D02*
D03*
X904999D02*
D03*
X884999D02*
D03*
X879999D02*
D03*
X904999Y233999D02*
D03*
X894999D02*
D03*
X889999D02*
D03*
X884999D02*
D03*
X879999D02*
D03*
X710000Y191000D02*
D03*
X735000Y234000D02*
D03*
X715000Y191000D02*
D03*
X725000D02*
D03*
X705000D02*
D03*
X700000D02*
D03*
X725000Y234000D02*
D03*
X715000D02*
D03*
X710000D02*
D03*
X705000D02*
D03*
X700000D02*
D03*
D58*
X1094998Y190999D02*
D03*
X914999Y190999D02*
D03*
X735000Y191000D02*
D03*
D59*
X1077497Y212498D02*
D03*
X897498Y212498D02*
D03*
X717499Y212499D02*
D03*
D60*
X1587500Y242500D02*
D03*
X1516500D02*
D03*
D61*
X1575000Y160000D02*
D03*
X1525000D02*
D03*
D64*
X1665000Y136000D02*
D03*
Y204000D02*
D03*
D65*
X1642500Y180000D02*
D03*
Y160000D02*
D03*
D66*
X917528Y135000D02*
D03*
X947500Y135000D02*
D03*
X737528Y135000D02*
D03*
X767500Y135000D02*
D03*
X1166531Y140000D02*
D03*
X1136559Y140000D02*
D03*
X1112514Y227500D02*
D03*
X1142486Y227500D02*
D03*
X1166531Y165000D02*
D03*
X1136559Y165000D02*
D03*
D67*
X752006Y155000D02*
D03*
X767500Y155000D02*
D03*
X1107506Y151000D02*
D03*
X1123000Y151000D02*
D03*
X752006Y170000D02*
D03*
X767500Y170000D02*
D03*
X932006Y170000D02*
D03*
X947500Y170000D02*
D03*
X1107506Y136000D02*
D03*
X1123000Y136000D02*
D03*
X932006Y155000D02*
D03*
X947500Y155000D02*
D03*
D68*
X1125200Y195000D02*
D03*
X1165500Y195000D02*
D03*
D69*
X1469894Y68000D02*
D03*
Y87000D02*
D03*
D70*
X1490214Y77500D02*
D03*
M02*
