G04*
G04 #@! TF.GenerationSoftware,Altium Limited,Altium Designer,23.4.1 (23)*
G04*
G04 Layer_Color=128*
%FSLAX44Y44*%
%MOMM*%
G71*
G04*
G04 #@! TF.SameCoordinates,84FF7B06-7675-46D2-9C4A-C1C127FEE623*
G04*
G04*
G04 #@! TF.FilePolarity,Positive*
G04*
G01*
G75*
%ADD12C,0.1000*%
%ADD16R,0.9906X0.6604*%
%ADD49R,0.6604X0.9906*%
%ADD50R,1.6400X1.4000*%
%ADD51R,3.6000X1.4000*%
%ADD52R,1.4000X3.6000*%
%ADD53R,1.4000X3.6000*%
%ADD54R,0.9144X0.9144*%
%ADD55R,1.2700X0.9144*%
%ADD56R,5.5000X1.0000*%
%ADD57R,3.0000X1.6000*%
%ADD58R,4.0000X2.0000*%
%ADD59R,3.0000X6.0000*%
%ADD60R,1.1938X1.8796*%
%ADD61R,1.0000X1.5000*%
%ADD62R,2.9000X2.0500*%
%ADD63R,0.3050X0.8890*%
%ADD64R,2.8450X1.6150*%
G04:AMPARAMS|DCode=65|XSize=0.889mm|YSize=0.305mm|CornerRadius=0mm|HoleSize=0mm|Usage=FLASHONLY|Rotation=90.000|XOffset=0mm|YOffset=0mm|HoleType=Round|Shape=Octagon|*
%AMOCTAGOND65*
4,1,8,0.0763,0.4445,-0.0763,0.4445,-0.1525,0.3683,-0.1525,-0.3683,-0.0763,-0.4445,0.0763,-0.4445,0.1525,-0.3683,0.1525,0.3683,0.0763,0.4445,0.0*
%
%ADD65OCTAGOND65*%

%ADD66R,1.0000X1.7000*%
%ADD67R,0.7000X0.3500*%
%ADD68R,1.4000X1.6400*%
%ADD91R,24.0000X1.5000*%
G36*
X777499Y76500D02*
X650499Y76500D01*
X648135Y76500D01*
X643499Y77422D01*
X639131Y79232D01*
X635200Y81858D01*
X631857Y85201D01*
X629230Y89132D01*
X627421Y93499D01*
X626499Y98136D01*
X626499Y100500D01*
X626499Y227500D01*
X641499Y227500D01*
X641499Y100500D01*
X641543Y99618D01*
X641887Y97887D01*
X642562Y96257D01*
X643542Y94790D01*
X644790Y93543D01*
X646257Y92563D01*
X647887Y91887D01*
X649617Y91543D01*
X650499Y91500D01*
X777499Y91500D01*
X777499Y76500D01*
D02*
G37*
G36*
X626499Y247500D02*
X626499Y374500D01*
Y376864D01*
X627421Y381501D01*
X629231Y385868D01*
X631857Y389799D01*
X635200Y393142D01*
X639131Y395769D01*
X643499Y397578D01*
X648135Y398500D01*
X650499Y398500D01*
X777499D01*
X777499Y383500D01*
X650499D01*
X649617Y383457D01*
X647887Y383113D01*
X646257Y382437D01*
X644790Y381457D01*
X643542Y380210D01*
X642562Y378743D01*
X641887Y377113D01*
X641543Y375382D01*
X641499Y374500D01*
X641499Y247500D01*
X626499Y247500D01*
D02*
G37*
G36*
X1208499Y227500D02*
X1208499Y100500D01*
X1208499Y98136D01*
X1207577Y93499D01*
X1205768Y89132D01*
X1203141Y85201D01*
X1199798Y81858D01*
X1195867Y79231D01*
X1191500Y77422D01*
X1186863Y76500D01*
X1184499Y76500D01*
X1057499Y76500D01*
X1057499Y91500D01*
X1184499Y91500D01*
X1185381Y91543D01*
X1187112Y91888D01*
X1188742Y92563D01*
X1190209Y93543D01*
X1191456Y94790D01*
X1192437Y96257D01*
X1193112Y97887D01*
X1193456Y99618D01*
X1193499Y100500D01*
Y227500D01*
X1208499Y227500D01*
D02*
G37*
G36*
X1057499Y398500D02*
X1184499D01*
X1186863Y398500D01*
X1191500Y397578D01*
X1195867Y395769D01*
X1199798Y393142D01*
X1203141Y389799D01*
X1205768Y385868D01*
X1207577Y381501D01*
X1208499Y376864D01*
Y374500D01*
X1208499Y247500D01*
X1193499D01*
X1193499Y374500D01*
X1193456Y375382D01*
X1193112Y377113D01*
X1192437Y378743D01*
X1191456Y380210D01*
X1190209Y381457D01*
X1188742Y382437D01*
X1187112Y383113D01*
X1185381Y383457D01*
X1184499Y383500D01*
X1057499Y383500D01*
X1057499Y398500D01*
D02*
G37*
D12*
X0Y50000D02*
G03*
X50000Y-0I50000J0D01*
G01*
X1650000Y-0D02*
G03*
X1700000Y50000I0J50000D01*
G01*
Y550000D02*
G03*
X1650000Y600000I-50000J0D01*
G01*
X50000D02*
G03*
X0Y550000I0J-50000D01*
G01*
X50000Y-0D02*
X1650000D01*
X1700000Y50000D02*
Y550000D01*
X50000Y600000D02*
X1650000D01*
X0Y50000D02*
Y550000D01*
D16*
X890000Y277500D02*
D03*
Y262006D02*
D03*
X880000Y125000D02*
D03*
Y140494D02*
D03*
X895000Y156157D02*
D03*
Y171651D02*
D03*
X915000Y171651D02*
D03*
Y156157D02*
D03*
X1070000Y277500D02*
D03*
Y262006D02*
D03*
X1370000Y110000D02*
D03*
Y94506D02*
D03*
X610000Y110000D02*
D03*
Y94506D02*
D03*
X470000Y80000D02*
D03*
Y64506D02*
D03*
X1350000Y80000D02*
D03*
Y64506D02*
D03*
X310000Y80000D02*
D03*
Y64506D02*
D03*
X1060000Y125000D02*
D03*
Y140494D02*
D03*
X1075000Y156157D02*
D03*
Y171651D02*
D03*
X1283000Y80000D02*
D03*
Y64506D02*
D03*
X410000Y64506D02*
D03*
X410000Y80000D02*
D03*
X735000Y156157D02*
D03*
X735000Y171651D02*
D03*
X1333000Y64506D02*
D03*
X1333000Y80000D02*
D03*
X700000Y140494D02*
D03*
X700000Y125000D02*
D03*
X1095000Y156157D02*
D03*
X1095000Y171651D02*
D03*
X710000Y262006D02*
D03*
X710000Y277500D02*
D03*
X715000Y171651D02*
D03*
X715000Y156157D02*
D03*
X695000Y262006D02*
D03*
X695000Y277500D02*
D03*
X865000Y234000D02*
D03*
X865000Y218506D02*
D03*
X1060000Y171651D02*
D03*
X1060000Y156157D02*
D03*
X1045000Y232994D02*
D03*
X1045000Y217500D02*
D03*
X685000Y234000D02*
D03*
X685000Y218506D02*
D03*
X370000Y64506D02*
D03*
X370000Y80000D02*
D03*
X1055000Y262006D02*
D03*
X1055000Y277500D02*
D03*
X700000Y171651D02*
D03*
X700000Y156157D02*
D03*
X450000Y64506D02*
D03*
X450000Y80000D02*
D03*
X390000Y80000D02*
D03*
X390000Y64506D02*
D03*
X610000Y64506D02*
D03*
X610000Y80000D02*
D03*
X1370000Y64506D02*
D03*
X1370000Y80000D02*
D03*
X880000Y171651D02*
D03*
X880000Y156157D02*
D03*
X875000Y262006D02*
D03*
X875000Y277500D02*
D03*
X430000Y80000D02*
D03*
X430000Y64506D02*
D03*
D49*
X242994Y70000D02*
D03*
X227500D02*
D03*
X932006Y155000D02*
D03*
X947500D02*
D03*
X752006D02*
D03*
X767500D02*
D03*
X1107506Y151000D02*
D03*
X1123000D02*
D03*
X172494Y70000D02*
D03*
X157000D02*
D03*
X767500Y170000D02*
D03*
X752006Y170000D02*
D03*
X947500Y170000D02*
D03*
X932006Y170000D02*
D03*
X1123000Y136000D02*
D03*
X1107506Y136000D02*
D03*
X157006Y86250D02*
D03*
X172500Y86250D02*
D03*
X242994Y92750D02*
D03*
X227500D02*
D03*
D50*
X947500Y232650D02*
D03*
X947500Y192350D02*
D03*
X767500Y232650D02*
D03*
X767500Y192350D02*
D03*
D51*
X767500Y330500D02*
D03*
Y254500D02*
D03*
X1127500Y330500D02*
D03*
Y254500D02*
D03*
X947500Y330500D02*
D03*
Y254500D02*
D03*
D52*
X805500Y292500D02*
D03*
X729500D02*
D03*
X985500Y292500D02*
D03*
X909500D02*
D03*
D53*
X1165500Y292500D02*
D03*
X1089500D02*
D03*
D54*
X358000Y128000D02*
D03*
Y108696D02*
D03*
X482000Y108696D02*
D03*
Y128000D02*
D03*
X426000Y128000D02*
D03*
Y108696D02*
D03*
X414000Y108696D02*
D03*
Y128000D02*
D03*
D55*
X378320Y118348D02*
D03*
X461680Y118348D02*
D03*
X446320Y118348D02*
D03*
X393680Y118348D02*
D03*
D56*
X1642500Y160000D02*
D03*
Y180000D02*
D03*
D57*
X1665000Y204000D02*
D03*
Y136000D02*
D03*
D58*
X1516500Y242500D02*
D03*
X1587500D02*
D03*
D59*
X1525000Y160000D02*
D03*
X1575000D02*
D03*
D60*
X947500Y135000D02*
D03*
X917528Y135000D02*
D03*
X767500Y135000D02*
D03*
X737528Y135000D02*
D03*
X1136559Y140000D02*
D03*
X1166531Y140000D02*
D03*
X1142486Y227500D02*
D03*
X1112514Y227500D02*
D03*
X1136559Y165000D02*
D03*
X1166531Y165000D02*
D03*
D61*
X1298000Y68704D02*
D03*
X1317000D02*
D03*
D62*
X1307500Y89024D02*
D03*
D63*
X1059998Y233999D02*
D03*
X1064998D02*
D03*
X1069998D02*
D03*
X1074998D02*
D03*
X1084998D02*
D03*
X1059998Y190999D02*
D03*
X1064998D02*
D03*
X1084998D02*
D03*
X1074998D02*
D03*
X1094998Y233999D02*
D03*
X1069998Y190999D02*
D03*
X879999Y233999D02*
D03*
X884999D02*
D03*
X889999D02*
D03*
X894999D02*
D03*
X904999D02*
D03*
X879999Y190999D02*
D03*
X884999D02*
D03*
X904999D02*
D03*
X894999D02*
D03*
X914999Y233999D02*
D03*
X889999Y190999D02*
D03*
X700000Y234000D02*
D03*
X705000D02*
D03*
X710000D02*
D03*
X715000D02*
D03*
X725000D02*
D03*
X700000Y191000D02*
D03*
X705000D02*
D03*
X725000D02*
D03*
X715000D02*
D03*
X735000Y234000D02*
D03*
X710000Y191000D02*
D03*
D64*
X1077497Y212498D02*
D03*
X897498Y212498D02*
D03*
X717499Y212499D02*
D03*
D65*
X1094998Y190999D02*
D03*
X914999Y190999D02*
D03*
X735000Y191000D02*
D03*
D66*
X200000Y86250D02*
D03*
D67*
X210500Y79750D02*
D03*
Y86250D02*
D03*
Y92750D02*
D03*
X189500D02*
D03*
Y86250D02*
D03*
Y79750D02*
D03*
D68*
X1165500Y195000D02*
D03*
X1125200Y195000D02*
D03*
D91*
X917499Y391000D02*
D03*
X917499Y84000D02*
D03*
M02*
