G04*
G04 #@! TF.GenerationSoftware,Altium Limited,Altium Designer,23.4.1 (23)*
G04*
G04 Layer_Color=65535*
%FSLAX44Y44*%
%MOMM*%
G71*
G04*
G04 #@! TF.SameCoordinates,84FF7B06-7675-46D2-9C4A-C1C127FEE623*
G04*
G04*
G04 #@! TF.FilePolarity,Positive*
G04*
G01*
G75*
%ADD10C,0.2500*%
%ADD11C,0.0762*%
%ADD12C,0.1000*%
%ADD13R,1.1000X2.0000*%
%ADD14R,0.6000X2.0000*%
%ADD15R,1.1000X1.5000*%
D10*
X1568000Y11000D02*
G03*
X1568000Y11000I-1250J0D01*
G01*
X100000Y540000D02*
X100000Y60000D01*
X100000Y540000D02*
X1600000D01*
Y540000D02*
X1600000Y60000D01*
X100000Y60000D02*
X1600000Y60000D01*
D11*
X1563088Y11190D02*
X1563088Y34304D01*
X1551912Y11190D02*
X1563088Y11190D01*
X1551912Y11190D02*
X1551912Y34304D01*
X1563088Y34304D01*
X1596912Y39810D02*
X1608088Y39810D01*
X1596912Y16696D02*
X1596912Y39810D01*
X1596912Y16696D02*
X1608088Y16696D01*
X1608088Y39810D01*
D12*
X1570000Y15000D02*
Y36000D01*
X1590000D01*
Y15000D02*
Y36000D01*
X1570000Y15000D02*
X1590000D01*
X1570000Y20250D02*
X1575250Y15000D01*
X845820Y295828D02*
Y290830D01*
X848319D01*
X849152Y291663D01*
Y294995D01*
X848319Y295828D01*
X845820D01*
X850818Y294995D02*
X851651Y295828D01*
X853317D01*
X854151Y294995D01*
Y294162D01*
X853317Y293329D01*
X854151Y292496D01*
Y291663D01*
X853317Y290830D01*
X851651D01*
X850818Y291663D01*
Y292496D01*
X851651Y293329D01*
X850818Y294162D01*
Y294995D01*
X851651Y293329D02*
X853317D01*
X1643380Y47498D02*
Y52496D01*
X1645046Y50830D01*
X1646712Y52496D01*
Y47498D01*
X1648378D02*
Y52496D01*
X1650878D01*
X1651711Y51663D01*
Y49997D01*
X1650878Y49164D01*
X1648378D01*
X1655876Y47498D02*
Y52496D01*
X1653377Y49997D01*
X1656709D01*
X1574292Y27930D02*
Y23765D01*
X1575125Y22932D01*
X1576791D01*
X1577624Y23765D01*
Y27930D01*
X1582623D02*
X1579290D01*
Y25431D01*
X1580957Y26264D01*
X1581790D01*
X1582623Y25431D01*
Y23765D01*
X1581790Y22932D01*
X1580123D01*
X1579290Y23765D01*
X44196Y47498D02*
Y52496D01*
X45862Y50830D01*
X47528Y52496D01*
Y47498D01*
X49194D02*
Y52496D01*
X51694D01*
X52527Y51663D01*
Y49997D01*
X51694Y49164D01*
X49194D01*
X54193Y47498D02*
X55859D01*
X55026D01*
Y52496D01*
X54193Y51663D01*
X43434Y547624D02*
Y552622D01*
X45100Y550956D01*
X46766Y552622D01*
Y547624D01*
X48432D02*
Y552622D01*
X50932D01*
X51765Y551789D01*
Y550123D01*
X50932Y549290D01*
X48432D01*
X56763Y547624D02*
X53431D01*
X56763Y550956D01*
Y551789D01*
X55930Y552622D01*
X54264D01*
X53431Y551789D01*
X1643380Y547624D02*
Y552622D01*
X1645046Y550956D01*
X1646712Y552622D01*
Y547624D01*
X1648378D02*
Y552622D01*
X1650878D01*
X1651711Y551789D01*
Y550123D01*
X1650878Y549290D01*
X1648378D01*
X1653377Y551789D02*
X1654210Y552622D01*
X1655876D01*
X1656709Y551789D01*
Y550956D01*
X1655876Y550123D01*
X1655043D01*
X1655876D01*
X1656709Y549290D01*
Y548457D01*
X1655876Y547624D01*
X1654210D01*
X1653377Y548457D01*
X1555903Y19406D02*
X1555070Y18573D01*
Y16907D01*
X1555903Y16074D01*
X1559235D01*
X1560068Y16907D01*
Y18573D01*
X1559235Y19406D01*
X1560068Y24405D02*
Y21072D01*
X1556736Y24405D01*
X1555903D01*
X1555070Y23572D01*
Y21905D01*
X1555903Y21072D01*
X1559235Y26071D02*
X1560068Y26904D01*
Y28570D01*
X1559235Y29403D01*
X1555903D01*
X1555070Y28570D01*
Y26904D01*
X1555903Y26071D01*
X1556736D01*
X1557569Y26904D01*
Y29403D01*
X1605026Y21590D02*
X1600028D01*
Y24089D01*
X1600861Y24922D01*
X1602527D01*
X1603360Y24089D01*
Y21590D01*
Y23256D02*
X1605026Y24922D01*
Y29921D02*
Y26588D01*
X1601694Y29921D01*
X1600861D01*
X1600028Y29088D01*
Y27422D01*
X1600861Y26588D01*
Y31587D02*
X1600028Y32420D01*
Y34086D01*
X1600861Y34919D01*
X1601694D01*
X1602527Y34086D01*
Y33253D01*
Y34086D01*
X1603360Y34919D01*
X1604193D01*
X1605026Y34086D01*
Y32420D01*
X1604193Y31587D01*
X0Y50000D02*
G03*
X50000Y-0I50000J0D01*
G01*
X1650000Y-0D02*
G03*
X1700000Y50000I0J50000D01*
G01*
Y550000D02*
G03*
X1650000Y600000I-50000J0D01*
G01*
X50000D02*
G03*
X0Y550000I0J-50000D01*
G01*
X50000Y-0D02*
X1650000D01*
X1700000Y50000D02*
Y550000D01*
X50000Y600000D02*
X1650000D01*
X0Y50000D02*
Y550000D01*
D13*
X170000Y50000D02*
D03*
X190000Y49999D02*
D03*
X210000Y49999D02*
D03*
X230000Y50003D02*
D03*
X1469999Y49999D02*
D03*
X1489999Y49999D02*
D03*
X1510000Y49999D02*
D03*
X1530000Y49999D02*
D03*
D14*
X289994Y50000D02*
D03*
X309995Y50000D02*
D03*
X329996Y50000D02*
D03*
X349995Y50000D02*
D03*
X369995Y50000D02*
D03*
X389995Y50000D02*
D03*
X409995Y49999D02*
D03*
X429995Y50001D02*
D03*
X449995Y50000D02*
D03*
X469996Y50000D02*
D03*
X489995Y49999D02*
D03*
X509995Y50000D02*
D03*
X529996Y50001D02*
D03*
X549995Y50000D02*
D03*
X569996Y50000D02*
D03*
X589996Y50000D02*
D03*
X609995Y50000D02*
D03*
X629997Y49999D02*
D03*
X649995Y50001D02*
D03*
X669995Y50001D02*
D03*
X689996Y50000D02*
D03*
X709994Y50000D02*
D03*
X729995Y50000D02*
D03*
X749995D02*
D03*
X769994Y50000D02*
D03*
X789995Y50001D02*
D03*
X809996Y50000D02*
D03*
X829995Y50000D02*
D03*
X849995Y50000D02*
D03*
X869995Y50000D02*
D03*
X889996Y49998D02*
D03*
X909995Y49999D02*
D03*
X929996Y50000D02*
D03*
X949996Y50000D02*
D03*
X969995Y50001D02*
D03*
X989995Y50000D02*
D03*
X1009995Y49999D02*
D03*
X1029995Y50000D02*
D03*
X1049996Y49999D02*
D03*
X1069997Y50000D02*
D03*
X1089996Y49999D02*
D03*
X1109996Y50001D02*
D03*
X1129995Y50000D02*
D03*
X1149996Y50000D02*
D03*
X1169995Y50000D02*
D03*
X1189995Y50000D02*
D03*
X1209995Y50000D02*
D03*
X1229995Y49999D02*
D03*
X1249996Y50000D02*
D03*
X1269994Y49999D02*
D03*
X1289995Y50000D02*
D03*
X1309995Y50000D02*
D03*
X1329995Y49999D02*
D03*
X1349995Y49998D02*
D03*
X1369996Y50000D02*
D03*
X1389997Y49999D02*
D03*
X1409995Y49999D02*
D03*
D15*
X169999Y547000D02*
D03*
X189998Y547000D02*
D03*
X210002Y546999D02*
D03*
X230000Y547000D02*
D03*
X1469998Y546994D02*
D03*
X1489998Y546994D02*
D03*
X1509997Y546994D02*
D03*
X1529998Y546994D02*
D03*
M02*
