G04*
G04 #@! TF.GenerationSoftware,Altium Limited,Altium Designer,23.4.1 (23)*
G04*
G04 Layer_Physical_Order=3*
G04 Layer_Color=7949734*
%FSLAX44Y44*%
%MOMM*%
G71*
G04*
G04 #@! TF.SameCoordinates,DBF187C1-C023-4FEC-B3DF-6A61137768AB*
G04*
G04*
G04 #@! TF.FilePolarity,Positive*
G04*
G01*
G75*
%ADD11C,0.1000*%
%ADD32C,0.2000*%
%ADD36O,1.5000X2.0000*%
%ADD39C,1.7500*%
%ADD41C,1.5000*%
%ADD42C,0.6000*%
%ADD43C,0.7000*%
%ADD45C,0.6600*%
%ADD47C,0.3000*%
%ADD48C,0.2540*%
G36*
X1650000Y592451D02*
Y592451D01*
X1651242Y592383D01*
X1655543Y592101D01*
X1660990Y591017D01*
X1666250Y589231D01*
X1671232Y586775D01*
X1675850Y583689D01*
X1680027Y580027D01*
X1683689Y575850D01*
X1686775Y571232D01*
X1689232Y566250D01*
X1691017Y560990D01*
X1692101Y555543D01*
X1692461Y550049D01*
X1692451Y550000D01*
Y50000D01*
X1692461Y49951D01*
X1692101Y44457D01*
X1691017Y39009D01*
X1689232Y33750D01*
X1686775Y28768D01*
X1683689Y24150D01*
X1680027Y19973D01*
X1675850Y16311D01*
X1671232Y13225D01*
X1666250Y10768D01*
X1660990Y8983D01*
X1655543Y7899D01*
X1650049Y7539D01*
X1650000Y7549D01*
X50000D01*
X49951Y7539D01*
X44457Y7899D01*
X39009Y8983D01*
X33750Y10768D01*
X28768Y13225D01*
X24150Y16311D01*
X19973Y19973D01*
X16311Y24150D01*
X13225Y28768D01*
X10769Y33750D01*
X8983Y39009D01*
X7899Y44457D01*
X7618Y48751D01*
X7549Y50000D01*
X7549Y50000D01*
X7549Y51255D01*
Y548737D01*
X7549Y548749D01*
X7549Y550000D01*
X7617Y551242D01*
X7899Y555543D01*
X8983Y560990D01*
X10769Y566250D01*
X13225Y571232D01*
X16311Y575850D01*
X19973Y580027D01*
X24150Y583689D01*
X28768Y586775D01*
X33750Y589231D01*
X39009Y591017D01*
X44457Y592101D01*
X48748Y592382D01*
X50000Y592451D01*
X50000Y592451D01*
X51251Y592451D01*
X1648742D01*
X1650000Y592451D01*
D02*
G37*
%LPC*%
G36*
X1652364Y574000D02*
X1647636D01*
X1643000Y573078D01*
X1638632Y571269D01*
X1634701Y568642D01*
X1631358Y565299D01*
X1628732Y561368D01*
X1626922Y557001D01*
X1626000Y552364D01*
Y547636D01*
X1626922Y542999D01*
X1628732Y538632D01*
X1631358Y534701D01*
X1634701Y531358D01*
X1638632Y528731D01*
X1643000Y526922D01*
X1647636Y526000D01*
X1652364D01*
X1657000Y526922D01*
X1661368Y528731D01*
X1665299Y531358D01*
X1668642Y534701D01*
X1671268Y538632D01*
X1673078Y542999D01*
X1674000Y547636D01*
Y552364D01*
X1673078Y557001D01*
X1671268Y561368D01*
X1668642Y565299D01*
X1665299Y568642D01*
X1661368Y571269D01*
X1657000Y573078D01*
X1652364Y574000D01*
D02*
G37*
G36*
X52364D02*
X47636D01*
X43000Y573078D01*
X38632Y571269D01*
X34701Y568642D01*
X31358Y565299D01*
X28732Y561368D01*
X26922Y557001D01*
X26000Y552364D01*
Y547636D01*
X26922Y542999D01*
X28732Y538632D01*
X31358Y534701D01*
X34701Y531358D01*
X38632Y528731D01*
X43000Y526922D01*
X47636Y526000D01*
X52364D01*
X57000Y526922D01*
X61368Y528731D01*
X65299Y531358D01*
X68642Y534701D01*
X71269Y538632D01*
X73078Y542999D01*
X74000Y547636D01*
Y552364D01*
X73078Y557001D01*
X71269Y561368D01*
X68642Y565299D01*
X65299Y568642D01*
X61368Y571269D01*
X57000Y573078D01*
X52364Y574000D01*
D02*
G37*
G36*
X1648946Y455650D02*
X1645654D01*
X1642475Y454798D01*
X1639625Y453153D01*
X1637298Y450825D01*
X1635652Y447975D01*
X1634800Y444796D01*
Y441504D01*
X1635652Y438325D01*
X1637298Y435475D01*
X1639625Y433148D01*
X1642475Y431502D01*
X1645654Y430650D01*
X1648946D01*
X1652125Y431502D01*
X1654975Y433148D01*
X1657303Y435475D01*
X1658948Y438325D01*
X1659800Y441504D01*
Y444796D01*
X1658948Y447975D01*
X1657303Y450825D01*
X1654975Y453153D01*
X1652125Y454798D01*
X1648946Y455650D01*
D02*
G37*
G36*
X1648715Y427900D02*
X1645885D01*
X1643151Y427167D01*
X1640699Y425752D01*
X1638698Y423751D01*
X1637283Y421299D01*
X1636550Y418565D01*
Y415735D01*
X1637283Y413001D01*
X1638698Y410549D01*
X1640699Y408548D01*
X1643151Y407133D01*
X1645885Y406400D01*
X1648715D01*
X1651449Y407133D01*
X1653901Y408548D01*
X1655902Y410549D01*
X1657317Y413001D01*
X1658050Y415735D01*
Y418565D01*
X1657317Y421299D01*
X1655902Y423751D01*
X1653901Y425752D01*
X1651449Y427167D01*
X1648715Y427900D01*
D02*
G37*
G36*
X1674115Y389800D02*
X1671285D01*
X1668551Y389067D01*
X1666099Y387652D01*
X1664098Y385651D01*
X1662683Y383199D01*
X1661950Y380465D01*
Y377635D01*
X1662683Y374901D01*
X1664098Y372449D01*
X1666099Y370448D01*
X1668551Y369033D01*
X1671285Y368300D01*
X1674115D01*
X1676849Y369033D01*
X1679301Y370448D01*
X1681302Y372449D01*
X1682717Y374901D01*
X1683450Y377635D01*
Y380465D01*
X1682717Y383199D01*
X1681302Y385651D01*
X1679301Y387652D01*
X1676849Y389067D01*
X1674115Y389800D01*
D02*
G37*
G36*
X1148494Y350000D02*
X1146505D01*
X1144668Y349239D01*
X1143261Y347832D01*
X1143135Y347528D01*
X1141865D01*
X1141739Y347832D01*
X1140332Y349239D01*
X1138494Y350000D01*
X1136505D01*
X1134668Y349239D01*
X1133261Y347832D01*
X1133135Y347528D01*
X1131865D01*
X1131739Y347832D01*
X1130332Y349239D01*
X1128494Y350000D01*
X1126505D01*
X1124668Y349239D01*
X1123261Y347832D01*
X1123187Y347654D01*
X1121813D01*
X1121739Y347832D01*
X1120332Y349239D01*
X1118494Y350000D01*
X1116505D01*
X1114668Y349239D01*
X1113261Y347832D01*
X1113187Y347654D01*
X1111813D01*
X1111739Y347832D01*
X1110332Y349239D01*
X1108494Y350000D01*
X1106505D01*
X1104668Y349239D01*
X1103261Y347832D01*
X1102500Y345995D01*
Y344006D01*
X1103261Y342168D01*
X1104668Y340761D01*
X1106505Y340000D01*
X1108494D01*
X1110332Y340761D01*
X1111739Y342168D01*
X1111813Y342346D01*
X1113187D01*
X1113261Y342168D01*
X1114668Y340761D01*
X1116505Y340000D01*
X1118494D01*
X1120332Y340761D01*
X1121739Y342168D01*
X1121813Y342346D01*
X1123187D01*
X1123261Y342168D01*
X1124668Y340761D01*
X1126505Y340000D01*
X1128494D01*
X1130332Y340761D01*
X1131739Y342168D01*
X1131865Y342472D01*
X1133135D01*
X1133261Y342168D01*
X1134668Y340761D01*
X1136505Y340000D01*
X1138494D01*
X1140332Y340761D01*
X1141739Y342168D01*
X1141865Y342472D01*
X1143135D01*
X1143261Y342168D01*
X1144668Y340761D01*
X1146505Y340000D01*
X1148494D01*
X1150332Y340761D01*
X1151739Y342168D01*
X1152500Y344006D01*
Y345995D01*
X1151739Y347832D01*
X1150332Y349239D01*
X1148494Y350000D01*
D02*
G37*
G36*
X968494Y350000D02*
X966505D01*
X964668Y349239D01*
X963261Y347832D01*
X963135Y347528D01*
X961865D01*
X961739Y347832D01*
X960332Y349239D01*
X958495Y350000D01*
X956506D01*
X954668Y349239D01*
X953261Y347832D01*
X953135Y347528D01*
X951865D01*
X951739Y347832D01*
X950332Y349239D01*
X948495Y350000D01*
X946506D01*
X944668Y349239D01*
X943261Y347832D01*
X943187Y347654D01*
X941813D01*
X941739Y347832D01*
X940332Y349239D01*
X938495Y350000D01*
X936506D01*
X934668Y349239D01*
X933261Y347832D01*
X933187Y347654D01*
X931813D01*
X931739Y347832D01*
X930332Y349239D01*
X928495Y350000D01*
X926506D01*
X924668Y349239D01*
X923261Y347832D01*
X922500Y345995D01*
Y344006D01*
X923261Y342168D01*
X924668Y340761D01*
X926506Y340000D01*
X928495D01*
X930332Y340761D01*
X931739Y342168D01*
X931813Y342346D01*
X933187D01*
X933261Y342168D01*
X934668Y340761D01*
X936506Y340000D01*
X938495D01*
X940332Y340761D01*
X941739Y342168D01*
X941813Y342346D01*
X943187D01*
X943261Y342168D01*
X944668Y340761D01*
X946506Y340000D01*
X948495D01*
X950332Y340761D01*
X951739Y342168D01*
X951865Y342472D01*
X953135D01*
X953261Y342168D01*
X954668Y340761D01*
X956506Y340000D01*
X958495D01*
X960332Y340761D01*
X961739Y342168D01*
X961865Y342472D01*
X963135D01*
X963261Y342168D01*
X964668Y340761D01*
X966505Y340000D01*
X968494D01*
X970332Y340761D01*
X971739Y342168D01*
X972500Y344006D01*
Y345995D01*
X971739Y347832D01*
X970332Y349239D01*
X968494Y350000D01*
D02*
G37*
G36*
X788494D02*
X786505D01*
X784668Y349239D01*
X783261Y347832D01*
X783135Y347528D01*
X781865D01*
X781739Y347832D01*
X780332Y349239D01*
X778495Y350000D01*
X776506D01*
X774668Y349239D01*
X773261Y347832D01*
X773135Y347528D01*
X771865D01*
X771739Y347832D01*
X770332Y349239D01*
X768495Y350000D01*
X766506D01*
X764668Y349239D01*
X763261Y347832D01*
X763187Y347654D01*
X761813D01*
X761739Y347832D01*
X760332Y349239D01*
X758495Y350000D01*
X756506D01*
X754668Y349239D01*
X753261Y347832D01*
X753187Y347654D01*
X751813D01*
X751739Y347832D01*
X750332Y349239D01*
X748495Y350000D01*
X746506D01*
X744668Y349239D01*
X743261Y347832D01*
X742500Y345995D01*
Y344006D01*
X743261Y342168D01*
X744668Y340761D01*
X746506Y340000D01*
X748495D01*
X750332Y340761D01*
X751739Y342168D01*
X751813Y342346D01*
X753187D01*
X753261Y342168D01*
X754668Y340761D01*
X756506Y340000D01*
X758495D01*
X760332Y340761D01*
X761739Y342168D01*
X761813Y342346D01*
X763187D01*
X763261Y342168D01*
X764668Y340761D01*
X766506Y340000D01*
X768495D01*
X770332Y340761D01*
X771739Y342168D01*
X771865Y342472D01*
X773135D01*
X773261Y342168D01*
X774668Y340761D01*
X776506Y340000D01*
X778495D01*
X780332Y340761D01*
X781739Y342168D01*
X781865Y342472D01*
X783135D01*
X783261Y342168D01*
X784668Y340761D01*
X786505Y340000D01*
X788494D01*
X790332Y340761D01*
X791739Y342168D01*
X792500Y344006D01*
Y345995D01*
X791739Y347832D01*
X790332Y349239D01*
X788494Y350000D01*
D02*
G37*
G36*
X1648715Y351700D02*
X1645885D01*
X1643151Y350967D01*
X1640699Y349552D01*
X1640435Y349287D01*
X1639259Y348409D01*
X1637890Y347452D01*
X1635314Y345858D01*
X1634187Y345266D01*
X1633126Y344785D01*
X1632157Y344423D01*
X1631287Y344176D01*
X1630521Y344037D01*
X1630092Y344009D01*
X1626443D01*
Y344067D01*
X1624102Y343602D01*
X1622133Y342286D01*
X1622165Y342241D01*
X1622165Y342240D01*
X1615280Y335356D01*
X1615247Y335370D01*
X1615247Y335370D01*
X1615242Y335372D01*
X1614683Y335345D01*
X1614507Y335337D01*
X1614493Y335336D01*
X1613233Y335308D01*
X454963Y335309D01*
X454963Y335309D01*
Y335337D01*
X451435Y334989D01*
X448041Y333960D01*
X444914Y332289D01*
X443091Y330793D01*
X442174Y330039D01*
X442141Y330000D01*
X441265Y329091D01*
X417090Y304916D01*
X416218Y304056D01*
X416210Y304053D01*
X416189Y304028D01*
X415300Y303126D01*
X415249Y303075D01*
X415167Y303075D01*
X415124Y303042D01*
X415120Y303037D01*
X415120Y303037D01*
X414401Y302100D01*
X412819Y300038D01*
X411370Y296540D01*
X410876Y292787D01*
X410941D01*
Y275704D01*
X410894Y274453D01*
X410891Y274408D01*
X410896D01*
X410941Y273202D01*
X410941Y119002D01*
X410919Y117846D01*
X410903Y117839D01*
X410862Y117742D01*
X410878Y117704D01*
X391675Y98501D01*
X391517Y98371D01*
X391282Y98201D01*
X391039Y98051D01*
X390788Y97918D01*
X390528Y97801D01*
X390255Y97701D01*
X389969Y97617D01*
X389667Y97549D01*
X389362Y97500D01*
X389006D01*
X387168Y96739D01*
X385761Y95332D01*
X385000Y93495D01*
Y91505D01*
X385761Y89668D01*
X387168Y88261D01*
X389006Y87500D01*
X390995D01*
X392832Y88261D01*
X394239Y89668D01*
X395000Y91505D01*
Y91862D01*
X395049Y92167D01*
X395117Y92469D01*
X395201Y92755D01*
X395302Y93028D01*
X395418Y93288D01*
X395551Y93539D01*
X395701Y93781D01*
X395871Y94017D01*
X396001Y94175D01*
X405768Y103942D01*
X406941Y103456D01*
Y97928D01*
X406922Y97724D01*
X406875Y97438D01*
X406810Y97160D01*
X406726Y96889D01*
X406624Y96622D01*
X406502Y96358D01*
X406360Y96096D01*
X406194Y95835D01*
X406013Y95585D01*
X405761Y95332D01*
X405000Y93495D01*
Y91505D01*
X405761Y89668D01*
X407168Y88261D01*
X409005Y87500D01*
X410994D01*
X412832Y88261D01*
X414239Y89668D01*
X415000Y91505D01*
Y93495D01*
X414239Y95332D01*
X413986Y95585D01*
X413805Y95835D01*
X413640Y96096D01*
X413497Y96358D01*
X413376Y96622D01*
X413273Y96889D01*
X413190Y97160D01*
X413125Y97438D01*
X413078Y97724D01*
X413059Y97928D01*
Y105487D01*
X413097Y105504D01*
X413137Y105600D01*
X413121Y105639D01*
X417198Y109715D01*
X418106Y110591D01*
X418132Y110610D01*
X419227Y112038D01*
X420773Y112038D01*
X421868Y110611D01*
X421922Y110569D01*
X422831Y109687D01*
X426053Y106464D01*
X426881Y105526D01*
X426882Y105524D01*
X426883Y105524D01*
X426941Y104277D01*
Y97928D01*
X426922Y97724D01*
X426875Y97438D01*
X426810Y97160D01*
X426726Y96889D01*
X426624Y96622D01*
X426502Y96358D01*
X426360Y96096D01*
X426195Y95835D01*
X426013Y95585D01*
X425761Y95332D01*
X425000Y93495D01*
Y91505D01*
X425761Y89668D01*
X427168Y88261D01*
X429005Y87500D01*
X430994D01*
X432832Y88261D01*
X434239Y89668D01*
X435000Y91505D01*
Y93495D01*
X434239Y95332D01*
X433987Y95584D01*
X433805Y95835D01*
X433640Y96096D01*
X433497Y96358D01*
X433376Y96622D01*
X433273Y96889D01*
X433190Y97160D01*
X433125Y97437D01*
X433078Y97724D01*
X433059Y97928D01*
Y103456D01*
X434232Y103942D01*
X443999Y94175D01*
X444129Y94017D01*
X444299Y93782D01*
X444449Y93539D01*
X444582Y93289D01*
X444699Y93028D01*
X444799Y92755D01*
X444883Y92469D01*
X444951Y92167D01*
X445000Y91862D01*
Y91505D01*
X445761Y89668D01*
X447168Y88261D01*
X449006Y87500D01*
X450995D01*
X452832Y88261D01*
X454239Y89668D01*
X455000Y91505D01*
Y93495D01*
X454239Y95332D01*
X452832Y96739D01*
X450995Y97500D01*
X450638D01*
X450333Y97549D01*
X450031Y97617D01*
X449745Y97701D01*
X449472Y97802D01*
X449212Y97918D01*
X448961Y98051D01*
X448718Y98201D01*
X448483Y98371D01*
X448325Y98501D01*
X429122Y117704D01*
X429137Y117743D01*
X429097Y117839D01*
X429059Y117855D01*
Y291174D01*
X429097Y291190D01*
X429137Y291287D01*
X429122Y291325D01*
X454115Y316319D01*
X454947Y317119D01*
X454963Y317112D01*
X455060Y317153D01*
X455060Y317153D01*
X455076Y317191D01*
X1614394D01*
X1614410Y317153D01*
X1614507Y317112D01*
X1614523Y317119D01*
X1615357Y316317D01*
X1629197Y302478D01*
X1630045Y301556D01*
X1630067Y301524D01*
X1631033Y300879D01*
X1632052Y300198D01*
X1634393Y299732D01*
Y299791D01*
X1640142D01*
X1640468Y298521D01*
X1638698Y296751D01*
X1637283Y294299D01*
X1636550Y291565D01*
Y288735D01*
X1637283Y286001D01*
X1638698Y283549D01*
X1640699Y281548D01*
X1643151Y280133D01*
X1645885Y279400D01*
X1648715D01*
X1651449Y280133D01*
X1653901Y281548D01*
X1655902Y283549D01*
X1657317Y286001D01*
X1658050Y288735D01*
Y291565D01*
X1657317Y294299D01*
X1655902Y296751D01*
X1654132Y298521D01*
X1654458Y299791D01*
X1655492D01*
X1655921Y299763D01*
X1656687Y299624D01*
X1657557Y299377D01*
X1658526Y299015D01*
X1659587Y298534D01*
X1660696Y297951D01*
X1664689Y295369D01*
X1665835Y294513D01*
X1666099Y294248D01*
X1668551Y292833D01*
X1669984Y292449D01*
Y291134D01*
X1667103Y290362D01*
X1663797Y288453D01*
X1661097Y285753D01*
X1659188Y282447D01*
X1658200Y278759D01*
Y274941D01*
X1659188Y271253D01*
X1661097Y267947D01*
X1663797Y265247D01*
X1667103Y263338D01*
X1670791Y262350D01*
X1674609D01*
X1678297Y263338D01*
X1681603Y265247D01*
X1684303Y267947D01*
X1686212Y271253D01*
X1687200Y274941D01*
Y278759D01*
X1686212Y282447D01*
X1684303Y285753D01*
X1681603Y288453D01*
X1678297Y290362D01*
X1675416Y291134D01*
Y292449D01*
X1676849Y292833D01*
X1679301Y294248D01*
X1681302Y296249D01*
X1682717Y298701D01*
X1683450Y301435D01*
Y304265D01*
X1682717Y306999D01*
X1681302Y309451D01*
X1679301Y311452D01*
X1676849Y312867D01*
X1674115Y313600D01*
X1671285D01*
X1668551Y312867D01*
X1666099Y311452D01*
X1665835Y311187D01*
X1664659Y310309D01*
X1663290Y309352D01*
X1660714Y307758D01*
X1659587Y307166D01*
X1658526Y306685D01*
X1657557Y306323D01*
X1656687Y306076D01*
X1655921Y305937D01*
X1655492Y305909D01*
X1654458D01*
X1654132Y307179D01*
X1655902Y308949D01*
X1657317Y311401D01*
X1658050Y314135D01*
Y316965D01*
X1657317Y319699D01*
X1655902Y322151D01*
X1654132Y323921D01*
X1654458Y325191D01*
X1655492D01*
X1655921Y325163D01*
X1656687Y325024D01*
X1657557Y324777D01*
X1658526Y324415D01*
X1659587Y323934D01*
X1660696Y323351D01*
X1664689Y320769D01*
X1665835Y319913D01*
X1666099Y319648D01*
X1668551Y318233D01*
X1671285Y317500D01*
X1674115D01*
X1676849Y318233D01*
X1679301Y319648D01*
X1681302Y321649D01*
X1682717Y324101D01*
X1683450Y326835D01*
Y329665D01*
X1682717Y332399D01*
X1681302Y334851D01*
X1679301Y336852D01*
X1676849Y338267D01*
X1674115Y339000D01*
X1671285D01*
X1668551Y338267D01*
X1666099Y336852D01*
X1665835Y336587D01*
X1664659Y335709D01*
X1663290Y334752D01*
X1660714Y333158D01*
X1659587Y332566D01*
X1658526Y332085D01*
X1657557Y331723D01*
X1656687Y331476D01*
X1655921Y331337D01*
X1655492Y331309D01*
X1654458D01*
X1654132Y332579D01*
X1655902Y334349D01*
X1657317Y336801D01*
X1658050Y339535D01*
Y342365D01*
X1657317Y345099D01*
X1655902Y347551D01*
X1653901Y349552D01*
X1651449Y350967D01*
X1648715Y351700D01*
D02*
G37*
G36*
X1536094Y215500D02*
X1533906D01*
X1531884Y214663D01*
X1530830Y213608D01*
X1530000Y213258D01*
X1529170Y213608D01*
X1528116Y214663D01*
X1526094Y215500D01*
X1523906D01*
X1521884Y214663D01*
X1520830Y213608D01*
X1520000Y213258D01*
X1519170Y213608D01*
X1518116Y214663D01*
X1516094Y215500D01*
X1513906D01*
X1511884Y214663D01*
X1510830Y213608D01*
X1510000Y213258D01*
X1509170Y213608D01*
X1508116Y214663D01*
X1506094Y215500D01*
X1503906D01*
X1501884Y214663D01*
X1500830Y213608D01*
X1500000Y213258D01*
X1499170Y213608D01*
X1498116Y214663D01*
X1496094Y215500D01*
X1493906D01*
X1491884Y214663D01*
X1490830Y213608D01*
X1490000Y213258D01*
X1489170Y213608D01*
X1488116Y214663D01*
X1486094Y215500D01*
X1483906D01*
X1481884Y214663D01*
X1480830Y213608D01*
X1480000Y213258D01*
X1479170Y213608D01*
X1478116Y214663D01*
X1476094Y215500D01*
X1473906D01*
X1471884Y214663D01*
X1470830Y213608D01*
X1470000Y213258D01*
X1469170Y213608D01*
X1468116Y214663D01*
X1466094Y215500D01*
X1463906D01*
X1461884Y214663D01*
X1460337Y213116D01*
X1459500Y211094D01*
Y208906D01*
X1460337Y206884D01*
X1461884Y205337D01*
X1463906Y204500D01*
X1464504Y203605D01*
X1464500Y203594D01*
Y201406D01*
X1463789Y200452D01*
X1461884Y199663D01*
X1460337Y198116D01*
X1459500Y196094D01*
Y193906D01*
X1460337Y191884D01*
X1461884Y190337D01*
X1463906Y189500D01*
X1466094D01*
X1468116Y190337D01*
X1469170Y191392D01*
X1470000Y191742D01*
X1470830Y191392D01*
X1471884Y190337D01*
X1473906Y189500D01*
X1476094D01*
X1478116Y190337D01*
X1479170Y191392D01*
X1480000Y191742D01*
X1480830Y191392D01*
X1481884Y190337D01*
X1483906Y189500D01*
X1486094D01*
X1488116Y190337D01*
X1489170Y191392D01*
X1490000Y191742D01*
X1490830Y191392D01*
X1491884Y190337D01*
X1493906Y189500D01*
X1496094D01*
X1498116Y190337D01*
X1499170Y191392D01*
X1500000Y191742D01*
X1500830Y191392D01*
X1501884Y190337D01*
X1503906Y189500D01*
X1506094D01*
X1508116Y190337D01*
X1509170Y191392D01*
X1510000Y191742D01*
X1510830Y191392D01*
X1511884Y190337D01*
X1513906Y189500D01*
X1516094D01*
X1518116Y190337D01*
X1519170Y191392D01*
X1520000Y191742D01*
X1520830Y191392D01*
X1521884Y190337D01*
X1523906Y189500D01*
X1526094D01*
X1528116Y190337D01*
X1529663Y191884D01*
X1530500Y193906D01*
Y196094D01*
X1531211Y197048D01*
X1533116Y197837D01*
X1534663Y199384D01*
X1535500Y201406D01*
Y203594D01*
X1536211Y204548D01*
X1538116Y205337D01*
X1539663Y206884D01*
X1540500Y208906D01*
Y211094D01*
X1539663Y213116D01*
X1538116Y214663D01*
X1536094Y215500D01*
D02*
G37*
G36*
X1100994Y195000D02*
X1099005D01*
X1097168Y194239D01*
X1095761Y192832D01*
X1095000Y190995D01*
Y189006D01*
X1095761Y187168D01*
X1097168Y185761D01*
X1097346Y185687D01*
Y184313D01*
X1097168Y184239D01*
X1095761Y182832D01*
X1095635Y182528D01*
X1094365D01*
X1094239Y182832D01*
X1092832Y184239D01*
X1090994Y185000D01*
X1089005D01*
X1087168Y184239D01*
X1085761Y182832D01*
X1085000Y180995D01*
Y179006D01*
X1085761Y177168D01*
X1087168Y175761D01*
X1089005Y175000D01*
X1090994D01*
X1092832Y175761D01*
X1094239Y177168D01*
X1094365Y177472D01*
X1095635D01*
X1095761Y177168D01*
X1097168Y175761D01*
X1099005Y175000D01*
X1100994D01*
X1102832Y175761D01*
X1104239Y177168D01*
X1105000Y179006D01*
Y180995D01*
X1104239Y182832D01*
X1102832Y184239D01*
X1102654Y184313D01*
Y185687D01*
X1102832Y185761D01*
X1104239Y187168D01*
X1105000Y189006D01*
Y190995D01*
X1104239Y192832D01*
X1102832Y194239D01*
X1100994Y195000D01*
D02*
G37*
G36*
X920995Y195000D02*
X919005D01*
X917168Y194239D01*
X915761Y192832D01*
X915000Y190995D01*
Y189006D01*
X915761Y187168D01*
X917168Y185761D01*
X917346Y185687D01*
Y184313D01*
X917168Y184239D01*
X915761Y182832D01*
X915635Y182528D01*
X914365D01*
X914239Y182832D01*
X912832Y184239D01*
X910995Y185000D01*
X909005D01*
X907168Y184239D01*
X905761Y182832D01*
X905000Y180995D01*
Y179005D01*
X905761Y177168D01*
X907168Y175761D01*
X909005Y175000D01*
X910995D01*
X912832Y175761D01*
X914239Y177168D01*
X914365Y177472D01*
X915635D01*
X915761Y177168D01*
X917168Y175761D01*
X919005Y175000D01*
X920994D01*
X922832Y175761D01*
X924239Y177168D01*
X925000Y179006D01*
Y180995D01*
X924239Y182832D01*
X922832Y184239D01*
X922654Y184313D01*
Y185687D01*
X922832Y185761D01*
X924239Y187168D01*
X925000Y189006D01*
Y190995D01*
X924239Y192832D01*
X922832Y194239D01*
X920995Y195000D01*
D02*
G37*
G36*
X740995D02*
X739005D01*
X737168Y194239D01*
X735761Y192832D01*
X735000Y190995D01*
Y189006D01*
X735761Y187168D01*
X737168Y185761D01*
X737346Y185687D01*
Y184313D01*
X737168Y184239D01*
X735761Y182832D01*
X735635Y182528D01*
X734365D01*
X734239Y182832D01*
X732832Y184239D01*
X730995Y185000D01*
X729006D01*
X727168Y184239D01*
X725761Y182832D01*
X725000Y180995D01*
Y179005D01*
X725761Y177168D01*
X727168Y175761D01*
X729006Y175000D01*
X730995D01*
X732832Y175761D01*
X734239Y177168D01*
X734365Y177472D01*
X735635D01*
X735761Y177168D01*
X737168Y175761D01*
X739005Y175000D01*
X740994D01*
X742832Y175761D01*
X744239Y177168D01*
X745000Y179006D01*
Y180995D01*
X744239Y182832D01*
X742832Y184239D01*
X742654Y184313D01*
Y185687D01*
X742832Y185761D01*
X744239Y187168D01*
X745000Y189006D01*
Y190995D01*
X744239Y192832D01*
X742832Y194239D01*
X740995Y195000D01*
D02*
G37*
G36*
X865995Y252500D02*
X864005D01*
X862168Y251739D01*
X860761Y250332D01*
X860000Y248495D01*
Y246506D01*
X860761Y244668D01*
X861004Y244425D01*
X861050Y244358D01*
X861105Y244257D01*
X861168Y244113D01*
X861232Y243926D01*
X861294Y243694D01*
X861350Y243418D01*
X861393Y243121D01*
X861431Y242610D01*
X861431Y215000D01*
X861432Y215000D01*
Y147000D01*
X861431D01*
X861706Y144912D01*
X862512Y142966D01*
X863794Y141294D01*
X865465Y140012D01*
X867412Y139206D01*
X869500Y138931D01*
Y138932D01*
X927116D01*
X927627Y138893D01*
X927924Y138850D01*
X928200Y138794D01*
X928432Y138732D01*
X928619Y138668D01*
X928763Y138605D01*
X928864Y138550D01*
X928931Y138504D01*
X929174Y138261D01*
X931011Y137500D01*
X933000D01*
X934838Y138261D01*
X936245Y139668D01*
X937006Y141505D01*
Y143495D01*
X936245Y145332D01*
X934838Y146739D01*
X933000Y147500D01*
X931011D01*
X929174Y146739D01*
X928931Y146496D01*
X928864Y146450D01*
X928763Y146395D01*
X928619Y146332D01*
X928432Y146268D01*
X928200Y146206D01*
X927924Y146150D01*
X927627Y146107D01*
X927116Y146069D01*
X869500D01*
X869478Y146064D01*
X868832Y146332D01*
X868564Y146978D01*
X868569Y147000D01*
Y215000D01*
X868569Y215000D01*
X868569Y242610D01*
X868607Y243121D01*
X868650Y243418D01*
X868706Y243694D01*
X868768Y243926D01*
X868832Y244113D01*
X868895Y244257D01*
X868950Y244358D01*
X868996Y244425D01*
X869239Y244668D01*
X870000Y246506D01*
Y248495D01*
X869239Y250332D01*
X867832Y251739D01*
X865995Y252500D01*
D02*
G37*
G36*
X685995D02*
X684005D01*
X682168Y251739D01*
X680761Y250332D01*
X680000Y248495D01*
Y246506D01*
X680761Y244668D01*
X681010Y244419D01*
X681120Y244263D01*
X681226Y244084D01*
X681323Y243885D01*
X681412Y243665D01*
X681491Y243419D01*
X681559Y243147D01*
X681609Y242875D01*
X681666Y242302D01*
Y146310D01*
X681675Y146266D01*
X681912Y144462D01*
X682626Y142739D01*
X683761Y141261D01*
X685239Y140126D01*
X686962Y139412D01*
X688766Y139175D01*
X688810Y139166D01*
X746885D01*
X747027Y139156D01*
X747354Y139115D01*
X747653Y139059D01*
X747925Y138991D01*
X748171Y138912D01*
X748391Y138824D01*
X748590Y138726D01*
X748769Y138620D01*
X748925Y138510D01*
X749174Y138261D01*
X751011Y137500D01*
X753001D01*
X754838Y138261D01*
X756245Y139668D01*
X757006Y141505D01*
Y143495D01*
X756245Y145332D01*
X754838Y146739D01*
X753001Y147500D01*
X751011D01*
X749174Y146739D01*
X748925Y146490D01*
X748769Y146380D01*
X748590Y146274D01*
X748391Y146177D01*
X748171Y146088D01*
X747925Y146009D01*
X747653Y145941D01*
X747381Y145891D01*
X746808Y145834D01*
X688810D01*
Y145863D01*
X688494Y145994D01*
X688363Y146310D01*
X688334D01*
Y242379D01*
X688344Y242521D01*
X688385Y242848D01*
X688441Y243147D01*
X688509Y243419D01*
X688588Y243665D01*
X688676Y243885D01*
X688774Y244084D01*
X688880Y244263D01*
X688990Y244419D01*
X689239Y244668D01*
X690000Y246506D01*
Y248495D01*
X689239Y250332D01*
X687832Y251739D01*
X685995Y252500D01*
D02*
G37*
G36*
X950922Y127000D02*
X949078D01*
X947298Y126523D01*
X945702Y125601D01*
X945000Y124900D01*
X944298Y125601D01*
X942702Y126523D01*
X940922Y127000D01*
X939078D01*
X937298Y126523D01*
X935702Y125601D01*
X934399Y124298D01*
X933477Y122702D01*
X933000Y120922D01*
Y119078D01*
X933477Y117298D01*
X934399Y115702D01*
X935702Y114399D01*
X937298Y113477D01*
X939078Y113000D01*
X940922D01*
X942702Y113477D01*
X944298Y114399D01*
X945000Y115100D01*
X945702Y114399D01*
X947298Y113477D01*
X949078Y113000D01*
X950922D01*
X952702Y113477D01*
X954298Y114399D01*
X955601Y115702D01*
X956523Y117298D01*
X957000Y119079D01*
Y120922D01*
X956523Y122702D01*
X955601Y124298D01*
X954298Y125601D01*
X952702Y126523D01*
X950922Y127000D01*
D02*
G37*
G36*
X770922D02*
X769078D01*
X767298Y126523D01*
X765702Y125601D01*
X765000Y124900D01*
X764298Y125601D01*
X762702Y126523D01*
X760922Y127000D01*
X759078D01*
X757298Y126523D01*
X755702Y125601D01*
X754399Y124298D01*
X753477Y122702D01*
X753000Y120922D01*
Y119078D01*
X753477Y117298D01*
X754399Y115702D01*
X755702Y114399D01*
X757298Y113477D01*
X759078Y113000D01*
X760922D01*
X762702Y113477D01*
X764298Y114399D01*
X765000Y115100D01*
X765702Y114399D01*
X767298Y113477D01*
X769078Y113000D01*
X770922D01*
X772702Y113477D01*
X774298Y114399D01*
X775601Y115702D01*
X776523Y117298D01*
X777000Y119079D01*
Y120922D01*
X776523Y122702D01*
X775601Y124298D01*
X774298Y125601D01*
X772702Y126523D01*
X770922Y127000D01*
D02*
G37*
G36*
X1045994Y252500D02*
X1044005D01*
X1042168Y251739D01*
X1040761Y250332D01*
X1040000Y248495D01*
Y246506D01*
X1040761Y244668D01*
X1041004Y244425D01*
X1041050Y244358D01*
X1041105Y244257D01*
X1041168Y244113D01*
X1041232Y243926D01*
X1041294Y243694D01*
X1041350Y243418D01*
X1041393Y243121D01*
X1041431Y242610D01*
Y128000D01*
X1041431D01*
X1041706Y125912D01*
X1042512Y123966D01*
X1043794Y122295D01*
X1045465Y121012D01*
X1047411Y120206D01*
X1049500Y119931D01*
Y119932D01*
X1102616D01*
X1103127Y119893D01*
X1103424Y119850D01*
X1103700Y119794D01*
X1103932Y119733D01*
X1104119Y119668D01*
X1104263Y119606D01*
X1104364Y119550D01*
X1104431Y119504D01*
X1104674Y119262D01*
X1106511Y118500D01*
X1108501D01*
X1110338Y119262D01*
X1111745Y120668D01*
X1112506Y122506D01*
Y124495D01*
X1111745Y126333D01*
X1110338Y127739D01*
X1108501Y128500D01*
X1106511D01*
X1104674Y127739D01*
X1104431Y127496D01*
X1104364Y127450D01*
X1104262Y127395D01*
X1104119Y127332D01*
X1103932Y127268D01*
X1103700Y127206D01*
X1103424Y127150D01*
X1103127Y127107D01*
X1102616Y127069D01*
X1049500D01*
X1049478Y127064D01*
X1048832Y127332D01*
X1048564Y127978D01*
X1048568Y128000D01*
Y242610D01*
X1048607Y243121D01*
X1048650Y243418D01*
X1048706Y243694D01*
X1048768Y243926D01*
X1048832Y244113D01*
X1048894Y244257D01*
X1048950Y244358D01*
X1048996Y244425D01*
X1049239Y244668D01*
X1050000Y246506D01*
Y248495D01*
X1049239Y250332D01*
X1047832Y251739D01*
X1045994Y252500D01*
D02*
G37*
G36*
X1068493Y186000D02*
X1066504D01*
X1064666Y185239D01*
X1063259Y183832D01*
X1062498Y181995D01*
Y180006D01*
X1063259Y178168D01*
X1063503Y177925D01*
X1063548Y177858D01*
X1063604Y177757D01*
X1063666Y177613D01*
X1063731Y177426D01*
X1063792Y177194D01*
X1063848Y176918D01*
X1063891Y176621D01*
X1063930Y176110D01*
Y140000D01*
X1063929D01*
X1064204Y137912D01*
X1065010Y135965D01*
X1066293Y134294D01*
X1067964Y133012D01*
X1069910Y132206D01*
X1071998Y131931D01*
Y131931D01*
X1115500D01*
X1115522Y131936D01*
X1116168Y131668D01*
X1116436Y131022D01*
X1116431Y131000D01*
Y124890D01*
X1116393Y124379D01*
X1116350Y124082D01*
X1116294Y123806D01*
X1116232Y123574D01*
X1116168Y123387D01*
X1116105Y123243D01*
X1116050Y123142D01*
X1116004Y123075D01*
X1115761Y122832D01*
X1115000Y120995D01*
Y119005D01*
X1115761Y117168D01*
X1117168Y115761D01*
X1119005Y115000D01*
X1119375D01*
Y113755D01*
X1120136Y111918D01*
X1121543Y110511D01*
X1123380Y109750D01*
X1125369D01*
X1127207Y110511D01*
X1127920Y111224D01*
X1128750Y111820D01*
X1129580Y111224D01*
X1130293Y110511D01*
X1132130Y109750D01*
X1134119D01*
X1135957Y110511D01*
X1137364Y111918D01*
X1138125Y113755D01*
Y115000D01*
X1138494D01*
X1140332Y115761D01*
X1141739Y117168D01*
X1142500Y119005D01*
Y120995D01*
X1141739Y122832D01*
X1140332Y124239D01*
X1138494Y125000D01*
X1136505D01*
X1134668Y124239D01*
X1133955Y123526D01*
X1133125Y122930D01*
X1132295Y123526D01*
X1131582Y124239D01*
X1129744Y125000D01*
X1127755D01*
X1125918Y124239D01*
X1125205Y123526D01*
X1125065Y123426D01*
X1124975Y123403D01*
X1124866Y123387D01*
X1124698Y123387D01*
X1124484Y123430D01*
X1123706Y123806D01*
X1123650Y124082D01*
X1123607Y124379D01*
X1123569Y124890D01*
Y131000D01*
X1123569D01*
X1123294Y133088D01*
X1122488Y135035D01*
X1121206Y136706D01*
X1119535Y137988D01*
X1117588Y138794D01*
X1115500Y139069D01*
Y139069D01*
X1071998D01*
X1071976Y139064D01*
X1071330Y139332D01*
X1071062Y139978D01*
X1071067Y140000D01*
Y176110D01*
X1071105Y176621D01*
X1071149Y176918D01*
X1071204Y177194D01*
X1071266Y177426D01*
X1071330Y177613D01*
X1071393Y177757D01*
X1071448Y177858D01*
X1071494Y177925D01*
X1071737Y178168D01*
X1072498Y180006D01*
Y181995D01*
X1071737Y183832D01*
X1070331Y185239D01*
X1068493Y186000D01*
D02*
G37*
G36*
X1435995Y100994D02*
X1434005D01*
X1432168Y100233D01*
X1430761Y98826D01*
X1430000Y96989D01*
Y94999D01*
X1430761Y93162D01*
X1432168Y91755D01*
X1434005Y90994D01*
X1435995D01*
X1437832Y91755D01*
X1439239Y93162D01*
X1440000Y94999D01*
Y96989D01*
X1439239Y98826D01*
X1437832Y100233D01*
X1435995Y100994D01*
D02*
G37*
G36*
X1370921Y94253D02*
X1369078D01*
X1367298Y93776D01*
X1365702Y92854D01*
X1364399Y91551D01*
X1363477Y89955D01*
X1363000Y88175D01*
Y86332D01*
X1363477Y84551D01*
X1364399Y82955D01*
X1365702Y81652D01*
X1367298Y80730D01*
X1369078Y80253D01*
X1370921D01*
X1372702Y80730D01*
X1374298Y81652D01*
X1375601Y82955D01*
X1376523Y84551D01*
X1377000Y86332D01*
Y88175D01*
X1376523Y89955D01*
X1375601Y91551D01*
X1374298Y92854D01*
X1372702Y93776D01*
X1370921Y94253D01*
D02*
G37*
G36*
X610922D02*
X609078D01*
X607298Y93776D01*
X605702Y92854D01*
X604399Y91551D01*
X603477Y89955D01*
X603000Y88175D01*
Y86332D01*
X603477Y84551D01*
X604399Y82955D01*
X605702Y81652D01*
X607298Y80730D01*
X609078Y80253D01*
X610922D01*
X612702Y80730D01*
X614298Y81652D01*
X615601Y82955D01*
X616523Y84551D01*
X617000Y86332D01*
Y88175D01*
X616523Y89955D01*
X615601Y91551D01*
X614298Y92854D01*
X612702Y93776D01*
X610922Y94253D01*
D02*
G37*
G36*
X1271487Y69508D02*
X1269497D01*
X1267660Y68747D01*
X1266253Y67340D01*
X1265492Y65503D01*
Y63513D01*
X1266253Y61676D01*
X1267660Y60269D01*
X1269497Y59508D01*
X1271487D01*
X1273324Y60269D01*
X1274731Y61676D01*
X1275492Y63513D01*
Y65503D01*
X1274731Y67340D01*
X1273324Y68747D01*
X1271487Y69508D01*
D02*
G37*
G36*
X231250Y52104D02*
X228750D01*
X227964Y52000D01*
X188000D01*
Y52000D01*
X172037D01*
X171250Y52104D01*
X168750D01*
X165617Y51691D01*
X162698Y50482D01*
X160191Y48559D01*
X158268Y46052D01*
X157059Y43133D01*
X156646Y40000D01*
X157059Y36867D01*
X158268Y33948D01*
X160191Y31442D01*
X162698Y29518D01*
X165617Y28309D01*
X168750Y27896D01*
X171250D01*
X172037Y28000D01*
X212000D01*
Y28000D01*
X227964D01*
X228750Y27896D01*
X231250D01*
X234383Y28309D01*
X237302Y29518D01*
X239809Y31442D01*
X241732Y33948D01*
X242941Y36867D01*
X243354Y40000D01*
X242941Y43133D01*
X241732Y46052D01*
X239809Y48559D01*
X237302Y50482D01*
X234383Y51691D01*
X231250Y52104D01*
D02*
G37*
G36*
X1531250D02*
X1528750D01*
X1527964Y52000D01*
X1488000D01*
Y52000D01*
X1472037D01*
X1471250Y52104D01*
X1468750D01*
X1465617Y51691D01*
X1462698Y50482D01*
X1460191Y48559D01*
X1458268Y46052D01*
X1457059Y43133D01*
X1456647Y40000D01*
X1457059Y36867D01*
X1458268Y33948D01*
X1460191Y31442D01*
X1462698Y29518D01*
X1465617Y28309D01*
X1468750Y27896D01*
X1471250D01*
X1472037Y28000D01*
X1512000D01*
Y28000D01*
X1527963D01*
X1528750Y27896D01*
X1531250D01*
X1534383Y28309D01*
X1537302Y29518D01*
X1539809Y31442D01*
X1541732Y33948D01*
X1542941Y36867D01*
X1543354Y40000D01*
X1542941Y43133D01*
X1541732Y46052D01*
X1539809Y48559D01*
X1537302Y50482D01*
X1534383Y51691D01*
X1531250Y52104D01*
D02*
G37*
G36*
X1370001Y54099D02*
X1366998Y53704D01*
X1364201Y52545D01*
X1361799Y50702D01*
X1359955Y48300D01*
X1359538Y47291D01*
X1359215D01*
X1358211Y47406D01*
X1356776Y49275D01*
X1354792Y50798D01*
X1352481Y51755D01*
X1350001Y52082D01*
X1347521Y51755D01*
X1345210Y50798D01*
X1343225Y49275D01*
X1341702Y47291D01*
X1340745Y44980D01*
X1340641Y44190D01*
X1339360D01*
X1339256Y44980D01*
X1338299Y47291D01*
X1336776Y49275D01*
X1334792Y50798D01*
X1332481Y51755D01*
X1330001Y52082D01*
X1327521Y51755D01*
X1325210Y50798D01*
X1323225Y49275D01*
X1321702Y47291D01*
X1320745Y44980D01*
X1320641Y44189D01*
X1319360D01*
X1319256Y44980D01*
X1318299Y47291D01*
X1316776Y49275D01*
X1314792Y50798D01*
X1312480Y51755D01*
X1310000Y52082D01*
X1307520Y51755D01*
X1305210Y50798D01*
X1303225Y49275D01*
X1301702Y47291D01*
X1300745Y44980D01*
X1300641Y44190D01*
X1299360D01*
X1299256Y44980D01*
X1298299Y47291D01*
X1296776Y49275D01*
X1294792Y50798D01*
X1292481Y51755D01*
X1290001Y52082D01*
X1287521Y51755D01*
X1285210Y50798D01*
X1283225Y49275D01*
X1281702Y47291D01*
X1280745Y44980D01*
X1280641Y44189D01*
X1279360D01*
X1279256Y44980D01*
X1278299Y47291D01*
X1276776Y49275D01*
X1274791Y50798D01*
X1272480Y51755D01*
X1270001Y52082D01*
X1267521Y51755D01*
X1265210Y50798D01*
X1263225Y49275D01*
X1261702Y47291D01*
X1260745Y44980D01*
X1260641Y44189D01*
X1259360D01*
X1259256Y44980D01*
X1258299Y47291D01*
X1256776Y49275D01*
X1254791Y50798D01*
X1252480Y51755D01*
X1250001Y52082D01*
X1247521Y51755D01*
X1245210Y50798D01*
X1243225Y49275D01*
X1241702Y47291D01*
X1240745Y44980D01*
X1240641Y44190D01*
X1239360D01*
X1239256Y44980D01*
X1238299Y47291D01*
X1236776Y49275D01*
X1234791Y50798D01*
X1232480Y51755D01*
X1230001Y52082D01*
X1227521Y51755D01*
X1225210Y50798D01*
X1223225Y49275D01*
X1221702Y47291D01*
X1220745Y44980D01*
X1220641Y44189D01*
X1219360D01*
X1219256Y44980D01*
X1218299Y47291D01*
X1216776Y49275D01*
X1214791Y50798D01*
X1212480Y51755D01*
X1210001Y52082D01*
X1207521Y51755D01*
X1205210Y50798D01*
X1203225Y49275D01*
X1201702Y47291D01*
X1200745Y44980D01*
X1200641Y44190D01*
X1199360D01*
X1199256Y44980D01*
X1198299Y47291D01*
X1196776Y49275D01*
X1194791Y50798D01*
X1192480Y51755D01*
X1190001Y52082D01*
X1187521Y51755D01*
X1185210Y50798D01*
X1183225Y49275D01*
X1181702Y47291D01*
X1180745Y44980D01*
X1180641Y44190D01*
X1179360D01*
X1179256Y44980D01*
X1178299Y47291D01*
X1176776Y49275D01*
X1174791Y50798D01*
X1172480Y51755D01*
X1170001Y52082D01*
X1167521Y51755D01*
X1165210Y50798D01*
X1163225Y49275D01*
X1161702Y47291D01*
X1160745Y44980D01*
X1160641Y44190D01*
X1159360D01*
X1159256Y44980D01*
X1158299Y47291D01*
X1156776Y49275D01*
X1154791Y50798D01*
X1152480Y51755D01*
X1150001Y52082D01*
X1147521Y51755D01*
X1145210Y50798D01*
X1143225Y49275D01*
X1141702Y47291D01*
X1140745Y44980D01*
X1140641Y44189D01*
X1139360D01*
X1139256Y44980D01*
X1138299Y47291D01*
X1136776Y49275D01*
X1134791Y50798D01*
X1132480Y51755D01*
X1130001Y52082D01*
X1127521Y51755D01*
X1125210Y50798D01*
X1123225Y49275D01*
X1121702Y47291D01*
X1120745Y44980D01*
X1120641Y44190D01*
X1119360D01*
X1119256Y44980D01*
X1118299Y47291D01*
X1116776Y49275D01*
X1114791Y50798D01*
X1112480Y51755D01*
X1110000Y52082D01*
X1107521Y51755D01*
X1105210Y50798D01*
X1103225Y49275D01*
X1101702Y47291D01*
X1100745Y44980D01*
X1100641Y44189D01*
X1099360D01*
X1099256Y44980D01*
X1098299Y47291D01*
X1096776Y49275D01*
X1094791Y50798D01*
X1092480Y51755D01*
X1090000Y52082D01*
X1087520Y51755D01*
X1085209Y50798D01*
X1083225Y49275D01*
X1081702Y47291D01*
X1080745Y44980D01*
X1080641Y44190D01*
X1079360D01*
X1079256Y44980D01*
X1078299Y47291D01*
X1076776Y49275D01*
X1074791Y50798D01*
X1072480Y51755D01*
X1070001Y52082D01*
X1067521Y51755D01*
X1065210Y50798D01*
X1063225Y49275D01*
X1061702Y47291D01*
X1060745Y44980D01*
X1060641Y44189D01*
X1059360D01*
X1059256Y44980D01*
X1058299Y47291D01*
X1056776Y49275D01*
X1054791Y50798D01*
X1052480Y51755D01*
X1050000Y52082D01*
X1047520Y51755D01*
X1045209Y50798D01*
X1043225Y49275D01*
X1041702Y47291D01*
X1040745Y44980D01*
X1040641Y44190D01*
X1039360D01*
X1039256Y44980D01*
X1038299Y47291D01*
X1036776Y49275D01*
X1034791Y50798D01*
X1032480Y51755D01*
X1030001Y52082D01*
X1027521Y51755D01*
X1025210Y50798D01*
X1023225Y49275D01*
X1021702Y47291D01*
X1020745Y44980D01*
X1020641Y44190D01*
X1019360D01*
X1019256Y44980D01*
X1018299Y47291D01*
X1016776Y49275D01*
X1014791Y50798D01*
X1012480Y51755D01*
X1010000Y52082D01*
X1007521Y51755D01*
X1005210Y50798D01*
X1003225Y49275D01*
X1001702Y47291D01*
X1000745Y44980D01*
X1000641Y44189D01*
X999360D01*
X999256Y44980D01*
X998299Y47291D01*
X996776Y49275D01*
X994791Y50798D01*
X992480Y51755D01*
X990000Y52082D01*
X987520Y51755D01*
X985209Y50798D01*
X983225Y49275D01*
X981702Y47291D01*
X980745Y44980D01*
X980641Y44190D01*
X979360D01*
X979256Y44980D01*
X978299Y47291D01*
X976776Y49276D01*
X974791Y50798D01*
X972480Y51756D01*
X970000Y52082D01*
X967521Y51756D01*
X965210Y50798D01*
X963225Y49276D01*
X961702Y47291D01*
X960745Y44980D01*
X960641Y44189D01*
X959360D01*
X959256Y44980D01*
X958299Y47291D01*
X956776Y49275D01*
X954791Y50798D01*
X952480Y51755D01*
X950000Y52082D01*
X947520Y51755D01*
X945209Y50798D01*
X943225Y49275D01*
X941702Y47291D01*
X940745Y44980D01*
X940641Y44190D01*
X939360D01*
X939256Y44980D01*
X938299Y47291D01*
X936776Y49275D01*
X934791Y50798D01*
X932480Y51755D01*
X930000Y52082D01*
X927520Y51755D01*
X925209Y50798D01*
X923225Y49275D01*
X921702Y47291D01*
X920745Y44980D01*
X920641Y44189D01*
X919360D01*
X919256Y44980D01*
X918298Y47291D01*
X916776Y49275D01*
X914791Y50798D01*
X912480Y51755D01*
X910000Y52082D01*
X907520Y51755D01*
X905209Y50798D01*
X903225Y49275D01*
X901702Y47291D01*
X900745Y44980D01*
X900641Y44190D01*
X899360D01*
X899256Y44980D01*
X898298Y47291D01*
X896776Y49275D01*
X894791Y50798D01*
X892480Y51755D01*
X890000Y52082D01*
X887520Y51755D01*
X885209Y50798D01*
X883225Y49275D01*
X881702Y47291D01*
X880745Y44980D01*
X880641Y44189D01*
X879360D01*
X879256Y44980D01*
X878298Y47291D01*
X876776Y49275D01*
X874791Y50798D01*
X872480Y51755D01*
X870000Y52082D01*
X867520Y51755D01*
X865209Y50798D01*
X863225Y49275D01*
X861702Y47291D01*
X860745Y44980D01*
X860641Y44190D01*
X859360D01*
X859256Y44980D01*
X858298Y47291D01*
X856776Y49275D01*
X854791Y50798D01*
X852480Y51755D01*
X850000Y52082D01*
X847520Y51755D01*
X845209Y50798D01*
X843225Y49275D01*
X841702Y47291D01*
X840745Y44980D01*
X840641Y44189D01*
X839360D01*
X839256Y44980D01*
X838298Y47291D01*
X836776Y49275D01*
X834791Y50798D01*
X832480Y51755D01*
X830000Y52082D01*
X827520Y51755D01*
X825209Y50798D01*
X823225Y49275D01*
X821702Y47291D01*
X820745Y44980D01*
X820641Y44190D01*
X819360D01*
X819256Y44980D01*
X818298Y47291D01*
X816776Y49275D01*
X814791Y50798D01*
X812480Y51755D01*
X810000Y52082D01*
X807520Y51755D01*
X805209Y50798D01*
X803225Y49275D01*
X801702Y47291D01*
X800745Y44980D01*
X800641Y44190D01*
X799360D01*
X799256Y44980D01*
X798298Y47291D01*
X796776Y49275D01*
X794791Y50798D01*
X792480Y51755D01*
X790000Y52082D01*
X787520Y51755D01*
X785209Y50798D01*
X783225Y49275D01*
X781702Y47291D01*
X780745Y44980D01*
X780641Y44189D01*
X779360D01*
X779256Y44980D01*
X778298Y47291D01*
X776776Y49275D01*
X774791Y50798D01*
X772480Y51755D01*
X770000Y52082D01*
X767520Y51755D01*
X765209Y50798D01*
X763225Y49275D01*
X761702Y47291D01*
X760745Y44980D01*
X760641Y44190D01*
X759360D01*
X759256Y44980D01*
X758298Y47291D01*
X756776Y49275D01*
X754791Y50798D01*
X752480Y51755D01*
X750000Y52082D01*
X747520Y51755D01*
X745209Y50798D01*
X743225Y49275D01*
X741702Y47291D01*
X740745Y44980D01*
X740641Y44190D01*
X739360D01*
X739256Y44980D01*
X738298Y47291D01*
X736776Y49275D01*
X734791Y50798D01*
X732480Y51755D01*
X730000Y52082D01*
X727520Y51755D01*
X725209Y50798D01*
X723225Y49275D01*
X721702Y47291D01*
X720745Y44980D01*
X720641Y44190D01*
X719360D01*
X719256Y44980D01*
X718298Y47291D01*
X716776Y49275D01*
X714791Y50798D01*
X712480Y51755D01*
X710000Y52082D01*
X707520Y51755D01*
X705209Y50798D01*
X703225Y49275D01*
X701702Y47291D01*
X700745Y44980D01*
X700641Y44189D01*
X699360D01*
X699256Y44980D01*
X698298Y47291D01*
X696776Y49275D01*
X694791Y50798D01*
X692480Y51755D01*
X690000Y52082D01*
X687520Y51755D01*
X685209Y50798D01*
X683225Y49275D01*
X681702Y47291D01*
X680745Y44980D01*
X680641Y44190D01*
X679360D01*
X679256Y44980D01*
X678298Y47291D01*
X676776Y49275D01*
X674791Y50798D01*
X672480Y51755D01*
X670000Y52082D01*
X667520Y51755D01*
X665209Y50798D01*
X663225Y49275D01*
X661702Y47291D01*
X660745Y44980D01*
X660641Y44190D01*
X659360D01*
X659256Y44980D01*
X658298Y47291D01*
X656776Y49275D01*
X654791Y50798D01*
X652480Y51755D01*
X650000Y52082D01*
X647520Y51755D01*
X645209Y50798D01*
X643225Y49275D01*
X641702Y47291D01*
X640745Y44980D01*
X640641Y44190D01*
X639360D01*
X639256Y44980D01*
X638298Y47291D01*
X636776Y49275D01*
X634791Y50798D01*
X632480Y51755D01*
X630000Y52082D01*
X627520Y51755D01*
X625209Y50798D01*
X623225Y49275D01*
X621790Y47406D01*
X620787Y47291D01*
X620463D01*
X620045Y48300D01*
X618202Y50702D01*
X615800Y52545D01*
X613002Y53704D01*
X610000Y54099D01*
X606998Y53704D01*
X604201Y52545D01*
X601798Y50702D01*
X599955Y48300D01*
X599537Y47291D01*
X599215D01*
X598210Y47406D01*
X596776Y49275D01*
X594791Y50798D01*
X592480Y51755D01*
X590000Y52082D01*
X587520Y51755D01*
X585209Y50798D01*
X583225Y49275D01*
X581702Y47291D01*
X580745Y44980D01*
X580418Y42500D01*
Y37500D01*
X580745Y35020D01*
X581702Y32709D01*
X583225Y30724D01*
X585209Y29202D01*
X587520Y28245D01*
X590000Y27918D01*
X592480Y28245D01*
X594791Y29202D01*
X596776Y30724D01*
X598210Y32594D01*
X599215Y32709D01*
X599537D01*
X599955Y31700D01*
X601798Y29298D01*
X604201Y27455D01*
X606998Y26296D01*
X610000Y25901D01*
X613002Y26296D01*
X615800Y27455D01*
X618202Y29298D01*
X620045Y31700D01*
X620463Y32709D01*
X620786D01*
X621790Y32594D01*
X623225Y30725D01*
X625209Y29202D01*
X627520Y28245D01*
X630000Y27918D01*
X632480Y28245D01*
X634791Y29202D01*
X636776Y30725D01*
X638298Y32709D01*
X639256Y35020D01*
X639360Y35810D01*
X640641D01*
X640745Y35020D01*
X641702Y32709D01*
X643225Y30724D01*
X645209Y29202D01*
X647520Y28245D01*
X650000Y27918D01*
X652480Y28245D01*
X654791Y29202D01*
X656776Y30724D01*
X658298Y32709D01*
X659256Y35020D01*
X659360Y35810D01*
X660641D01*
X660745Y35020D01*
X661702Y32709D01*
X663225Y30724D01*
X665209Y29202D01*
X667520Y28245D01*
X670000Y27918D01*
X672480Y28245D01*
X674791Y29202D01*
X676776Y30724D01*
X678298Y32709D01*
X679256Y35020D01*
X679360Y35810D01*
X680641D01*
X680745Y35020D01*
X681702Y32709D01*
X683225Y30725D01*
X685209Y29202D01*
X687520Y28245D01*
X690000Y27918D01*
X692480Y28245D01*
X694791Y29202D01*
X696776Y30725D01*
X698298Y32709D01*
X699256Y35020D01*
X699360Y35811D01*
X700641D01*
X700745Y35020D01*
X701702Y32709D01*
X703225Y30724D01*
X705209Y29202D01*
X707520Y28245D01*
X710000Y27918D01*
X712480Y28245D01*
X714791Y29202D01*
X716776Y30724D01*
X718298Y32709D01*
X719256Y35020D01*
X719360Y35810D01*
X720641D01*
X720745Y35020D01*
X721702Y32709D01*
X723225Y30724D01*
X725209Y29202D01*
X727520Y28245D01*
X730000Y27918D01*
X732480Y28245D01*
X734791Y29202D01*
X736776Y30724D01*
X738298Y32709D01*
X739256Y35020D01*
X739360Y35810D01*
X740641D01*
X740745Y35020D01*
X741702Y32709D01*
X743225Y30725D01*
X745209Y29202D01*
X747520Y28245D01*
X750000Y27918D01*
X752480Y28245D01*
X754791Y29202D01*
X756776Y30725D01*
X758298Y32709D01*
X759256Y35020D01*
X759360Y35810D01*
X760641D01*
X760745Y35020D01*
X761702Y32709D01*
X763225Y30724D01*
X765209Y29202D01*
X767520Y28245D01*
X770000Y27918D01*
X772480Y28245D01*
X774791Y29202D01*
X776776Y30724D01*
X778298Y32709D01*
X779256Y35020D01*
X779360Y35811D01*
X780641D01*
X780745Y35020D01*
X781702Y32709D01*
X783225Y30725D01*
X785209Y29202D01*
X787520Y28245D01*
X790000Y27918D01*
X792480Y28245D01*
X794791Y29202D01*
X796776Y30725D01*
X798298Y32709D01*
X799256Y35020D01*
X799360Y35810D01*
X800641D01*
X800745Y35020D01*
X801702Y32709D01*
X803225Y30725D01*
X805209Y29202D01*
X807520Y28245D01*
X810000Y27918D01*
X812480Y28245D01*
X814791Y29202D01*
X816776Y30725D01*
X818298Y32709D01*
X819256Y35020D01*
X819360Y35810D01*
X820641D01*
X820745Y35020D01*
X821702Y32709D01*
X823225Y30724D01*
X825209Y29202D01*
X827520Y28244D01*
X830000Y27918D01*
X832480Y28244D01*
X834791Y29202D01*
X836776Y30724D01*
X838298Y32709D01*
X839256Y35020D01*
X839360Y35810D01*
X840641D01*
X840745Y35020D01*
X841702Y32709D01*
X843225Y30724D01*
X845209Y29202D01*
X847520Y28245D01*
X850000Y27918D01*
X852480Y28245D01*
X854791Y29202D01*
X856776Y30724D01*
X858298Y32709D01*
X859256Y35020D01*
X859360Y35810D01*
X860641D01*
X860745Y35020D01*
X861702Y32709D01*
X863225Y30724D01*
X865209Y29202D01*
X867520Y28244D01*
X870000Y27918D01*
X872480Y28244D01*
X874791Y29202D01*
X876776Y30724D01*
X878298Y32709D01*
X879256Y35020D01*
X879360Y35810D01*
X880641D01*
X880745Y35020D01*
X881702Y32709D01*
X883225Y30725D01*
X885209Y29202D01*
X887520Y28245D01*
X890000Y27918D01*
X892480Y28245D01*
X894791Y29202D01*
X896776Y30725D01*
X898298Y32709D01*
X899256Y35020D01*
X899360Y35810D01*
X900641D01*
X900745Y35020D01*
X901702Y32709D01*
X903225Y30725D01*
X905209Y29202D01*
X907520Y28245D01*
X910000Y27918D01*
X912480Y28245D01*
X914791Y29202D01*
X916776Y30725D01*
X918298Y32709D01*
X919256Y35020D01*
X919360Y35811D01*
X920641D01*
X920745Y35020D01*
X921702Y32709D01*
X923225Y30724D01*
X925209Y29202D01*
X927520Y28244D01*
X930000Y27918D01*
X932480Y28244D01*
X934791Y29202D01*
X936776Y30724D01*
X938299Y32709D01*
X939256Y35020D01*
X939360Y35810D01*
X940641D01*
X940745Y35020D01*
X941702Y32709D01*
X943225Y30724D01*
X945209Y29202D01*
X947520Y28245D01*
X950000Y27918D01*
X952480Y28245D01*
X954791Y29202D01*
X956776Y30724D01*
X958299Y32709D01*
X959256Y35020D01*
X959360Y35811D01*
X960641D01*
X960745Y35020D01*
X961702Y32709D01*
X963225Y30725D01*
X965210Y29202D01*
X967521Y28245D01*
X970000Y27918D01*
X972480Y28245D01*
X974791Y29202D01*
X976776Y30725D01*
X978299Y32709D01*
X979256Y35020D01*
X979360Y35810D01*
X980641D01*
X980745Y35020D01*
X981702Y32709D01*
X983225Y30725D01*
X985209Y29202D01*
X987520Y28245D01*
X990000Y27918D01*
X992480Y28245D01*
X994791Y29202D01*
X996776Y30725D01*
X998299Y32709D01*
X999256Y35020D01*
X999360Y35811D01*
X1000641D01*
X1000745Y35020D01*
X1001702Y32709D01*
X1003225Y30724D01*
X1005210Y29202D01*
X1007521Y28245D01*
X1010000Y27918D01*
X1012480Y28245D01*
X1014791Y29202D01*
X1016776Y30724D01*
X1018299Y32709D01*
X1019256Y35020D01*
X1019360Y35810D01*
X1020641D01*
X1020745Y35020D01*
X1021702Y32709D01*
X1023225Y30724D01*
X1025210Y29202D01*
X1027521Y28245D01*
X1030001Y27918D01*
X1032480Y28245D01*
X1034791Y29202D01*
X1036776Y30724D01*
X1038299Y32709D01*
X1039256Y35020D01*
X1039360Y35810D01*
X1040641D01*
X1040745Y35020D01*
X1041702Y32709D01*
X1043225Y30724D01*
X1045209Y29202D01*
X1047520Y28245D01*
X1050000Y27918D01*
X1052480Y28245D01*
X1054791Y29202D01*
X1056776Y30724D01*
X1058299Y32709D01*
X1059256Y35020D01*
X1059360Y35811D01*
X1060641D01*
X1060745Y35020D01*
X1061702Y32709D01*
X1063225Y30725D01*
X1065210Y29202D01*
X1067521Y28245D01*
X1070001Y27918D01*
X1072480Y28245D01*
X1074791Y29202D01*
X1076776Y30725D01*
X1078299Y32709D01*
X1079256Y35020D01*
X1079360Y35810D01*
X1080641D01*
X1080745Y35020D01*
X1081702Y32709D01*
X1083225Y30724D01*
X1085209Y29202D01*
X1087520Y28245D01*
X1090000Y27918D01*
X1092480Y28245D01*
X1094791Y29202D01*
X1096776Y30724D01*
X1098299Y32709D01*
X1099256Y35020D01*
X1099360Y35811D01*
X1100641D01*
X1100745Y35020D01*
X1101702Y32709D01*
X1103225Y30724D01*
X1105210Y29202D01*
X1107521Y28245D01*
X1110000Y27918D01*
X1112480Y28245D01*
X1114791Y29202D01*
X1116776Y30724D01*
X1118299Y32709D01*
X1119256Y35020D01*
X1119360Y35810D01*
X1120641D01*
X1120745Y35020D01*
X1121702Y32709D01*
X1123225Y30725D01*
X1125210Y29202D01*
X1127521Y28245D01*
X1130001Y27918D01*
X1132480Y28245D01*
X1134791Y29202D01*
X1136776Y30725D01*
X1138299Y32709D01*
X1139256Y35020D01*
X1139360Y35811D01*
X1140641D01*
X1140745Y35020D01*
X1141702Y32709D01*
X1143225Y30724D01*
X1145210Y29202D01*
X1147521Y28245D01*
X1150001Y27918D01*
X1152480Y28245D01*
X1154791Y29202D01*
X1156776Y30724D01*
X1158299Y32709D01*
X1159256Y35020D01*
X1159360Y35810D01*
X1160641D01*
X1160745Y35020D01*
X1161702Y32709D01*
X1163225Y30724D01*
X1165210Y29202D01*
X1167521Y28245D01*
X1170001Y27918D01*
X1172480Y28245D01*
X1174791Y29202D01*
X1176776Y30724D01*
X1178299Y32709D01*
X1179256Y35020D01*
X1179360Y35810D01*
X1180641D01*
X1180745Y35020D01*
X1181702Y32709D01*
X1183225Y30725D01*
X1185210Y29202D01*
X1187521Y28245D01*
X1190001Y27918D01*
X1192480Y28245D01*
X1194791Y29202D01*
X1196776Y30725D01*
X1198299Y32709D01*
X1199256Y35020D01*
X1199360Y35810D01*
X1200641D01*
X1200745Y35020D01*
X1201702Y32709D01*
X1203225Y30724D01*
X1205210Y29202D01*
X1207521Y28245D01*
X1210001Y27918D01*
X1212480Y28245D01*
X1214791Y29202D01*
X1216776Y30724D01*
X1218299Y32709D01*
X1219256Y35020D01*
X1219360Y35811D01*
X1220641D01*
X1220745Y35020D01*
X1221702Y32709D01*
X1223225Y30725D01*
X1225210Y29202D01*
X1227521Y28245D01*
X1230001Y27918D01*
X1232480Y28245D01*
X1234791Y29202D01*
X1236776Y30725D01*
X1238299Y32709D01*
X1239256Y35020D01*
X1239360Y35810D01*
X1240641D01*
X1240745Y35020D01*
X1241702Y32709D01*
X1243225Y30725D01*
X1245210Y29202D01*
X1247521Y28245D01*
X1250001Y27918D01*
X1252480Y28245D01*
X1254791Y29202D01*
X1256776Y30725D01*
X1258299Y32709D01*
X1259256Y35020D01*
X1259360Y35811D01*
X1260641D01*
X1260745Y35020D01*
X1261702Y32709D01*
X1263225Y30724D01*
X1265210Y29202D01*
X1267521Y28245D01*
X1270001Y27918D01*
X1272480Y28245D01*
X1274791Y29202D01*
X1276776Y30724D01*
X1278299Y32709D01*
X1279256Y35020D01*
X1279360Y35811D01*
X1280641D01*
X1280745Y35020D01*
X1281702Y32709D01*
X1283225Y30724D01*
X1285210Y29202D01*
X1287521Y28245D01*
X1290001Y27918D01*
X1292481Y28245D01*
X1294792Y29202D01*
X1296776Y30724D01*
X1298299Y32709D01*
X1299256Y35020D01*
X1299360Y35810D01*
X1300641D01*
X1300745Y35020D01*
X1301702Y32709D01*
X1303225Y30724D01*
X1305210Y29202D01*
X1307520Y28245D01*
X1310000Y27918D01*
X1312480Y28245D01*
X1314792Y29202D01*
X1316776Y30724D01*
X1318299Y32709D01*
X1319256Y35020D01*
X1319360Y35811D01*
X1320641D01*
X1320745Y35020D01*
X1321702Y32709D01*
X1323225Y30725D01*
X1325210Y29202D01*
X1327521Y28245D01*
X1330001Y27918D01*
X1332481Y28245D01*
X1334792Y29202D01*
X1336776Y30725D01*
X1338299Y32709D01*
X1339256Y35020D01*
X1339360Y35810D01*
X1340641D01*
X1340745Y35020D01*
X1341702Y32709D01*
X1342070Y32230D01*
X1342131Y32103D01*
X1342602Y31478D01*
X1342980Y30880D01*
X1343316Y30237D01*
X1343613Y29546D01*
X1343867Y28806D01*
X1344078Y28013D01*
X1344245Y27166D01*
X1344366Y26265D01*
X1344373Y26175D01*
X1344259Y25526D01*
X1344032Y24846D01*
X1343746Y24316D01*
X1343406Y23899D01*
X1342989Y23558D01*
X1342459Y23273D01*
X1341779Y23046D01*
X1340972Y22904D01*
X478832D01*
X478026Y23046D01*
X477346Y23273D01*
X476815Y23558D01*
X476399Y23899D01*
X476058Y24316D01*
X475773Y24846D01*
X475546Y25526D01*
X475444Y26102D01*
X475445Y26105D01*
X475573Y26990D01*
X475751Y27831D01*
X475977Y28629D01*
X476251Y29384D01*
X476571Y30100D01*
X476939Y30779D01*
X477354Y31423D01*
X477865Y32097D01*
X477928Y32227D01*
X478298Y32709D01*
X479256Y35020D01*
X479360Y35811D01*
X480641D01*
X480745Y35020D01*
X481702Y32709D01*
X483225Y30724D01*
X485209Y29202D01*
X487520Y28245D01*
X490000Y27918D01*
X492480Y28245D01*
X494791Y29202D01*
X496776Y30724D01*
X498298Y32709D01*
X499256Y35020D01*
X499360Y35810D01*
X500641D01*
X500745Y35020D01*
X501702Y32709D01*
X503225Y30724D01*
X505209Y29202D01*
X507520Y28245D01*
X510000Y27918D01*
X512480Y28245D01*
X514791Y29202D01*
X516776Y30724D01*
X518298Y32709D01*
X519256Y35020D01*
X519582Y37500D01*
Y42500D01*
X519256Y44980D01*
X518298Y47291D01*
X516776Y49275D01*
X514791Y50798D01*
X512480Y51755D01*
X510000Y52082D01*
X507520Y51755D01*
X505209Y50798D01*
X503225Y49275D01*
X501702Y47291D01*
X500745Y44980D01*
X500641Y44190D01*
X499360D01*
X499256Y44980D01*
X498298Y47291D01*
X496776Y49275D01*
X494791Y50798D01*
X492480Y51755D01*
X490000Y52082D01*
X487520Y51755D01*
X485209Y50798D01*
X483225Y49275D01*
X481702Y47291D01*
X480745Y44980D01*
X480641Y44189D01*
X479360D01*
X479256Y44980D01*
X478298Y47291D01*
X476776Y49275D01*
X474791Y50798D01*
X472480Y51755D01*
X470000Y52082D01*
X467520Y51755D01*
X465209Y50798D01*
X463225Y49275D01*
X461702Y47291D01*
X460745Y44980D01*
X460641Y44189D01*
X459360D01*
X459255Y44980D01*
X458298Y47291D01*
X456776Y49275D01*
X454791Y50798D01*
X452480Y51755D01*
X450000Y52082D01*
X447520Y51755D01*
X445209Y50798D01*
X443225Y49275D01*
X441702Y47291D01*
X440745Y44980D01*
X440640Y44189D01*
X439360D01*
X439255Y44980D01*
X438298Y47291D01*
X436776Y49275D01*
X434791Y50798D01*
X432480Y51755D01*
X430000Y52082D01*
X427520Y51755D01*
X425209Y50798D01*
X423225Y49275D01*
X421702Y47291D01*
X420745Y44980D01*
X420640Y44190D01*
X419360D01*
X419255Y44980D01*
X418298Y47291D01*
X416776Y49275D01*
X414791Y50798D01*
X412480Y51755D01*
X410000Y52082D01*
X407520Y51755D01*
X405209Y50798D01*
X403225Y49275D01*
X401702Y47291D01*
X400745Y44980D01*
X400641Y44190D01*
X399360D01*
X399256Y44980D01*
X398298Y47291D01*
X396776Y49275D01*
X394791Y50798D01*
X392480Y51755D01*
X390000Y52082D01*
X387520Y51755D01*
X385209Y50798D01*
X383225Y49275D01*
X381702Y47291D01*
X380745Y44980D01*
X380641Y44189D01*
X379360D01*
X379255Y44980D01*
X378298Y47291D01*
X376776Y49275D01*
X374791Y50798D01*
X372480Y51755D01*
X370000Y52082D01*
X367520Y51755D01*
X365209Y50798D01*
X363225Y49275D01*
X361702Y47291D01*
X360745Y44980D01*
X360640Y44190D01*
X359360D01*
X359255Y44980D01*
X358298Y47291D01*
X356776Y49275D01*
X354791Y50798D01*
X352480Y51755D01*
X350000Y52082D01*
X347520Y51755D01*
X345209Y50798D01*
X343225Y49275D01*
X341702Y47291D01*
X340745Y44980D01*
X340640Y44190D01*
X339360D01*
X339255Y44980D01*
X338298Y47291D01*
X336776Y49275D01*
X334791Y50798D01*
X332480Y51755D01*
X330000Y52082D01*
X327520Y51755D01*
X325209Y50798D01*
X323225Y49275D01*
X321702Y47291D01*
X320745Y44980D01*
X320640Y44189D01*
X319359D01*
X319255Y44980D01*
X318298Y47291D01*
X316775Y49275D01*
X314791Y50798D01*
X312480Y51755D01*
X310000Y52082D01*
X307520Y51755D01*
X305209Y50798D01*
X303225Y49275D01*
X301702Y47291D01*
X300744Y44980D01*
X300418Y42500D01*
Y37500D01*
X300744Y35020D01*
X301702Y32709D01*
X303225Y30724D01*
X304596Y29672D01*
Y27400D01*
X304656Y27099D01*
X304920Y24420D01*
X305789Y21555D01*
X307201Y18915D01*
X309100Y16600D01*
X311415Y14700D01*
X314055Y13289D01*
X316920Y12420D01*
X319599Y12156D01*
X319900Y12096D01*
X1540000D01*
X1542068Y12507D01*
X1543821Y13679D01*
X1544993Y15432D01*
X1545404Y17500D01*
X1544993Y19568D01*
X1543821Y21321D01*
X1542068Y22492D01*
X1540000Y22904D01*
X1358637D01*
X1357831Y23046D01*
X1357151Y23273D01*
X1356620Y23558D01*
X1356204Y23899D01*
X1355863Y24316D01*
X1355578Y24846D01*
X1355351Y25526D01*
X1355266Y26010D01*
X1355391Y26814D01*
X1355580Y27650D01*
X1355821Y28453D01*
X1356114Y29224D01*
X1356459Y29966D01*
X1356857Y30680D01*
X1357310Y31370D01*
X1357862Y32092D01*
X1357926Y32223D01*
X1358210Y32594D01*
X1359216Y32709D01*
X1359538D01*
X1359955Y31700D01*
X1361799Y29298D01*
X1364201Y27455D01*
X1366998Y26296D01*
X1370001Y25901D01*
X1373003Y26296D01*
X1375800Y27455D01*
X1378203Y29298D01*
X1380046Y31700D01*
X1381205Y34498D01*
X1381600Y37500D01*
Y42500D01*
X1381205Y45502D01*
X1380046Y48300D01*
X1378203Y50702D01*
X1375800Y52545D01*
X1373003Y53704D01*
X1370001Y54099D01*
D02*
G37*
G36*
X1569494Y56000D02*
X1567505D01*
X1565668Y55239D01*
X1564261Y53832D01*
X1563500Y51995D01*
Y50005D01*
X1564261Y48168D01*
X1565668Y46761D01*
X1567505Y46000D01*
X1569494D01*
X1571332Y46761D01*
X1572739Y48168D01*
X1573500Y50005D01*
Y51995D01*
X1572739Y53832D01*
X1571332Y55239D01*
X1569494Y56000D01*
D02*
G37*
G36*
X550000Y52082D02*
X547520Y51755D01*
X545209Y50798D01*
X543225Y49275D01*
X541702Y47291D01*
X540745Y44980D01*
X540418Y42500D01*
Y37500D01*
X540745Y35020D01*
X541702Y32709D01*
X543225Y30724D01*
X545209Y29202D01*
X547520Y28245D01*
X550000Y27918D01*
X552480Y28245D01*
X554791Y29202D01*
X556776Y30724D01*
X558298Y32709D01*
X559255Y35020D01*
X559582Y37500D01*
Y42500D01*
X559255Y44980D01*
X558298Y47291D01*
X556776Y49275D01*
X554791Y50798D01*
X552480Y51755D01*
X550000Y52082D01*
D02*
G37*
G36*
X1652364Y74000D02*
X1647636D01*
X1643000Y73078D01*
X1638632Y71269D01*
X1634701Y68642D01*
X1631358Y65299D01*
X1628732Y61368D01*
X1626922Y57000D01*
X1626000Y52364D01*
Y47636D01*
X1626922Y43000D01*
X1628732Y38632D01*
X1631358Y34701D01*
X1634701Y31358D01*
X1638632Y28732D01*
X1643000Y26922D01*
X1647636Y26000D01*
X1652364D01*
X1657000Y26922D01*
X1661368Y28732D01*
X1665299Y31358D01*
X1668642Y34701D01*
X1671268Y38632D01*
X1673078Y43000D01*
X1674000Y47636D01*
Y52364D01*
X1673078Y57000D01*
X1671268Y61368D01*
X1668642Y65299D01*
X1665299Y68642D01*
X1661368Y71269D01*
X1657000Y73078D01*
X1652364Y74000D01*
D02*
G37*
G36*
X52364D02*
X47636D01*
X43000Y73078D01*
X38632Y71269D01*
X34701Y68642D01*
X31358Y65299D01*
X28732Y61368D01*
X26922Y57000D01*
X26000Y52364D01*
Y47636D01*
X26922Y43000D01*
X28732Y38632D01*
X31358Y34701D01*
X34701Y31358D01*
X38632Y28732D01*
X43000Y26922D01*
X47636Y26000D01*
X52364D01*
X57000Y26922D01*
X61368Y28732D01*
X65299Y31358D01*
X68642Y34701D01*
X71269Y38632D01*
X73078Y43000D01*
X74000Y47636D01*
Y52364D01*
X73078Y57000D01*
X71269Y61368D01*
X68642Y65299D01*
X65299Y68642D01*
X61368Y71269D01*
X57000Y73078D01*
X52364Y74000D01*
D02*
G37*
%LPD*%
G36*
X1641962Y334016D02*
X1640454Y335144D01*
X1636326Y337814D01*
X1635082Y338467D01*
X1633905Y339001D01*
X1632794Y339416D01*
X1631749Y339713D01*
X1630770Y339891D01*
X1629857Y339950D01*
Y341950D01*
X1630770Y342009D01*
X1631749Y342187D01*
X1632794Y342484D01*
X1633905Y342899D01*
X1635082Y343433D01*
X1636326Y344086D01*
X1639012Y345747D01*
X1640454Y346756D01*
X1641962Y347883D01*
Y334016D01*
D02*
G37*
G36*
X1667363Y321316D02*
X1665854Y322444D01*
X1661726Y325114D01*
X1660482Y325767D01*
X1659305Y326301D01*
X1658194Y326716D01*
X1657149Y327013D01*
X1656170Y327191D01*
X1655257Y327250D01*
Y329250D01*
X1656170Y329309D01*
X1657149Y329487D01*
X1658194Y329784D01*
X1659305Y330199D01*
X1660482Y330733D01*
X1661726Y331386D01*
X1664412Y333047D01*
X1665854Y334056D01*
X1667363Y335183D01*
Y321316D01*
D02*
G37*
G36*
X1641962Y308617D02*
X1640454Y309744D01*
X1636326Y312414D01*
X1635082Y313067D01*
X1633905Y313601D01*
X1632794Y314016D01*
X1631749Y314313D01*
X1630770Y314491D01*
X1629857Y314550D01*
Y316550D01*
X1630770Y316609D01*
X1631749Y316787D01*
X1632794Y317084D01*
X1633905Y317499D01*
X1635082Y318033D01*
X1636326Y318686D01*
X1639012Y320347D01*
X1640454Y321356D01*
X1641962Y322483D01*
Y308617D01*
D02*
G37*
G36*
X1667363Y295917D02*
X1665854Y297044D01*
X1661726Y299714D01*
X1660482Y300367D01*
X1659305Y300901D01*
X1658194Y301316D01*
X1657149Y301613D01*
X1656170Y301791D01*
X1655257Y301850D01*
Y303850D01*
X1656170Y303909D01*
X1657149Y304087D01*
X1658194Y304384D01*
X1659305Y304799D01*
X1660482Y305333D01*
X1661726Y305986D01*
X1664412Y307647D01*
X1665854Y308656D01*
X1667363Y309783D01*
Y295917D01*
D02*
G37*
G36*
X411014Y97891D02*
X411055Y97462D01*
X411124Y97041D01*
X411220Y96628D01*
X411344Y96224D01*
X411496Y95829D01*
X411675Y95441D01*
X411881Y95062D01*
X412116Y94692D01*
X412377Y94330D01*
X407623D01*
X407884Y94692D01*
X408119Y95062D01*
X408325Y95441D01*
X408504Y95829D01*
X408656Y96224D01*
X408780Y96628D01*
X408876Y97041D01*
X408945Y97462D01*
X408986Y97891D01*
X409000Y98328D01*
X411000D01*
X411014Y97891D01*
D02*
G37*
G36*
X431000Y98328D02*
X431014Y97891D01*
X431055Y97462D01*
X431124Y97041D01*
X431220Y96628D01*
X431344Y96224D01*
X431496Y95829D01*
X431675Y95441D01*
X431881Y95062D01*
X432116Y94692D01*
X432377Y94330D01*
X427623Y94330D01*
X427884Y94692D01*
X428119Y95062D01*
X428325Y95441D01*
X428504Y95829D01*
X428656Y96224D01*
X428780Y96628D01*
X428876Y97041D01*
X428945Y97462D01*
X428986Y97891D01*
X429000Y98328D01*
X431000Y98328D01*
D02*
G37*
G36*
X446905Y97029D02*
X447238Y96754D01*
X447584Y96505D01*
X447944Y96282D01*
X448317Y96084D01*
X448704Y95911D01*
X449105Y95764D01*
X449519Y95642D01*
X449946Y95546D01*
X450387Y95475D01*
X447025Y92113D01*
X446954Y92554D01*
X446858Y92982D01*
X446736Y93396D01*
X446589Y93796D01*
X446416Y94183D01*
X446218Y94556D01*
X445995Y94916D01*
X445746Y95262D01*
X445471Y95595D01*
X445172Y95914D01*
X446586Y97328D01*
X446905Y97029D01*
D02*
G37*
G36*
X394828Y95914D02*
X394529Y95595D01*
X394254Y95262D01*
X394006Y94916D01*
X393782Y94556D01*
X393584Y94183D01*
X393411Y93796D01*
X393264Y93395D01*
X393142Y92982D01*
X393046Y92554D01*
X392975Y92113D01*
X389613Y95475D01*
X390054Y95546D01*
X390482Y95642D01*
X390896Y95764D01*
X391296Y95911D01*
X391683Y96084D01*
X392056Y96282D01*
X392416Y96505D01*
X392762Y96754D01*
X393095Y97029D01*
X393414Y97328D01*
X394828Y95914D01*
D02*
G37*
G36*
X867210Y245427D02*
X867061Y245155D01*
X866930Y244852D01*
X866816Y244520D01*
X866719Y244158D01*
X866640Y243767D01*
X866579Y243345D01*
X866509Y242413D01*
X866500Y241902D01*
X863500D01*
X863491Y242413D01*
X863421Y243345D01*
X863360Y243767D01*
X863281Y244158D01*
X863184Y244520D01*
X863070Y244852D01*
X862939Y245155D01*
X862790Y245427D01*
X862623Y245670D01*
X867377D01*
X867210Y245427D01*
D02*
G37*
G36*
X930176Y140123D02*
X929933Y140289D01*
X929661Y140439D01*
X929358Y140570D01*
X929026Y140684D01*
X928664Y140781D01*
X928272Y140860D01*
X927851Y140921D01*
X926919Y140991D01*
X926408Y141000D01*
Y144000D01*
X926919Y144009D01*
X927851Y144079D01*
X928272Y144140D01*
X928664Y144219D01*
X929026Y144316D01*
X929358Y144430D01*
X929661Y144562D01*
X929933Y144711D01*
X930176Y144877D01*
Y140123D01*
D02*
G37*
G36*
X687167Y245372D02*
X686979Y245054D01*
X686813Y244716D01*
X686669Y244358D01*
X686547Y243979D01*
X686447Y243580D01*
X686370Y243161D01*
X686314Y242722D01*
X686281Y242262D01*
X686270Y241782D01*
X683730D01*
X683719Y242262D01*
X683630Y243161D01*
X683553Y243580D01*
X683453Y243979D01*
X683331Y244358D01*
X683187Y244716D01*
X683021Y245054D01*
X682833Y245372D01*
X682623Y245670D01*
X687377D01*
X687167Y245372D01*
D02*
G37*
G36*
X750176Y140123D02*
X749878Y140333D01*
X749560Y140521D01*
X749222Y140688D01*
X748864Y140831D01*
X748485Y140953D01*
X748086Y141053D01*
X747667Y141130D01*
X747227Y141186D01*
X746768Y141219D01*
X746288Y141230D01*
Y143770D01*
X746768Y143781D01*
X747667Y143870D01*
X748086Y143947D01*
X748485Y144047D01*
X748864Y144169D01*
X749222Y144313D01*
X749560Y144479D01*
X749878Y144667D01*
X750176Y144877D01*
Y140123D01*
D02*
G37*
G36*
X1047210Y245427D02*
X1047061Y245155D01*
X1046930Y244852D01*
X1046816Y244520D01*
X1046719Y244158D01*
X1046640Y243767D01*
X1046579Y243345D01*
X1046509Y242413D01*
X1046500Y241902D01*
X1043500D01*
X1043491Y242413D01*
X1043421Y243345D01*
X1043360Y243767D01*
X1043281Y244158D01*
X1043184Y244520D01*
X1043070Y244852D01*
X1042939Y245155D01*
X1042789Y245427D01*
X1042623Y245670D01*
X1047377D01*
X1047210Y245427D01*
D02*
G37*
G36*
X1105676Y121123D02*
X1105433Y121290D01*
X1105161Y121439D01*
X1104858Y121570D01*
X1104526Y121685D01*
X1104164Y121781D01*
X1103773Y121860D01*
X1103351Y121921D01*
X1102419Y121992D01*
X1101908Y122000D01*
Y125000D01*
X1102419Y125009D01*
X1103351Y125079D01*
X1103773Y125141D01*
X1104164Y125220D01*
X1104526Y125316D01*
X1104858Y125430D01*
X1105161Y125562D01*
X1105433Y125711D01*
X1105676Y125878D01*
Y121123D01*
D02*
G37*
G36*
X1069709Y178927D02*
X1069560Y178655D01*
X1069428Y178352D01*
X1069314Y178020D01*
X1069218Y177658D01*
X1069139Y177267D01*
X1069077Y176845D01*
X1069007Y175913D01*
X1068998Y175402D01*
X1065998D01*
X1065990Y175913D01*
X1065919Y176845D01*
X1065858Y177267D01*
X1065779Y177658D01*
X1065683Y178020D01*
X1065568Y178352D01*
X1065437Y178655D01*
X1065288Y178927D01*
X1065121Y179170D01*
X1069875D01*
X1069709Y178927D01*
D02*
G37*
G36*
X1121509Y125087D02*
X1121579Y124155D01*
X1121640Y123734D01*
X1121719Y123342D01*
X1121816Y122980D01*
X1121930Y122648D01*
X1122061Y122345D01*
X1122210Y122073D01*
X1122377Y121830D01*
X1117623D01*
X1117790Y122073D01*
X1117939Y122345D01*
X1118070Y122648D01*
X1118184Y122980D01*
X1118281Y123342D01*
X1118360Y123734D01*
X1118421Y124155D01*
X1118491Y125087D01*
X1118500Y125598D01*
X1121500D01*
X1121509Y125087D01*
D02*
G37*
G36*
X1355645Y32550D02*
X1355112Y31737D01*
X1354642Y30893D01*
X1354234Y30017D01*
X1353889Y29109D01*
X1353607Y28169D01*
X1353387Y27197D01*
X1353230Y26193D01*
X1353207Y25940D01*
X1353369Y25024D01*
X1353699Y24034D01*
X1354161Y23176D01*
X1354755Y22450D01*
X1355481Y21856D01*
X1356339Y21394D01*
X1357329Y21064D01*
X1358451Y20866D01*
X1359705Y20800D01*
X1349805Y14200D01*
X1339905Y20800D01*
X1341159Y20866D01*
X1342281Y21064D01*
X1343271Y21394D01*
X1344129Y21856D01*
X1344855Y22450D01*
X1345449Y23176D01*
X1345911Y24034D01*
X1346241Y25024D01*
X1346426Y26075D01*
X1346395Y26480D01*
X1346258Y27500D01*
X1346066Y28473D01*
X1345818Y29400D01*
X1345517Y30280D01*
X1345160Y31112D01*
X1344748Y31899D01*
X1344281Y32638D01*
X1343760Y33330D01*
X1356241D01*
X1355645Y32550D01*
D02*
G37*
G36*
X475682Y32594D02*
X475182Y31818D01*
X474741Y31003D01*
X474359Y30148D01*
X474035Y29255D01*
X473771Y28321D01*
X473565Y27349D01*
X473418Y26337D01*
X473390Y26009D01*
X473564Y25024D01*
X473894Y24034D01*
X474356Y23176D01*
X474950Y22450D01*
X475676Y21856D01*
X476534Y21394D01*
X477524Y21064D01*
X478646Y20866D01*
X479900Y20800D01*
X470000Y14200D01*
X460100Y20800D01*
X461354Y20866D01*
X462476Y21064D01*
X463466Y21394D01*
X464324Y21856D01*
X465050Y22450D01*
X465644Y23176D01*
X466106Y24034D01*
X466436Y25024D01*
X466610Y26010D01*
X466582Y26337D01*
X466435Y27349D01*
X466230Y28321D01*
X465965Y29255D01*
X465641Y30148D01*
X465259Y31003D01*
X464818Y31818D01*
X464318Y32594D01*
X463759Y33330D01*
X476241D01*
X475682Y32594D01*
D02*
G37*
D11*
X0Y50000D02*
G03*
X50000Y-0I50000J0D01*
G01*
X1650000Y-0D02*
G03*
X1700000Y50000I0J50000D01*
G01*
Y550000D02*
G03*
X1650000Y600000I-50000J0D01*
G01*
X50000D02*
G03*
X0Y550000I0J-50000D01*
G01*
X50000Y-0D02*
X1650000D01*
X1700000Y50000D02*
Y550000D01*
X50000Y600000D02*
X1650000D01*
X0Y50000D02*
Y550000D01*
D32*
X418401Y301901D02*
G03*
X418390Y301890I2817J-2840D01*
G01*
X454963Y328250D02*
G03*
X447173Y325016I0J-11000D01*
G01*
X1616433Y328080D02*
G03*
X1614495Y328250I-1925J-10830D01*
G01*
X1618902Y328250D02*
G03*
X1618476Y328220I0J-3000D01*
G01*
X1615133Y332237D02*
G03*
X1617353Y333103I110J2998D01*
G01*
X421224Y299067D02*
G03*
X421198Y299041I2115J-2127D01*
G01*
X454963Y324250D02*
G03*
X450002Y322188I0J-7000D01*
G01*
X1619260Y322396D02*
G03*
X1618905Y322702I-2127J-2115D01*
G01*
X1619473Y322183D02*
G03*
X1619430Y322226I-4966J-4933D01*
G01*
X424057Y296243D02*
G03*
X422000Y291287I4943J-4956D01*
G01*
X1615133Y332237D02*
G03*
X1614495Y332250I-625J-14987D01*
G01*
X1616433Y328080D02*
G03*
X1617402Y328065I529J2953D01*
G01*
X429131Y107712D02*
G03*
X429093Y107751I-2151J-2091D01*
G01*
X422000Y117743D02*
G03*
X424084Y112760I7000J0D01*
G01*
X418383Y301883D02*
G03*
X418365Y301865I8492J-8479D01*
G01*
X1624554Y317102D02*
G03*
X1625044Y316703I2132J2111D01*
G01*
X454963Y332250D02*
G03*
X444327Y327826I0J-15000D01*
G01*
X1618724Y322838D02*
G03*
X1614495Y324250I-4216J-5588D01*
G01*
X430000Y105598D02*
G03*
X429134Y107709I-3000J3D01*
G01*
X417363Y300863D02*
G03*
X417329Y300829I8015J-8076D01*
G01*
X414000Y274449D02*
G03*
X414000Y274408I32288J-41D01*
G01*
X417329Y300829D02*
G03*
X414000Y292787I8049J-8042D01*
G01*
X1616629Y319371D02*
G03*
X1614507Y320250I-2121J-2121D01*
G01*
X426875Y293405D02*
G03*
X426000Y291287I2125J-2118D01*
G01*
X420182Y298025D02*
G03*
X418000Y292787I5197J-5238D01*
G01*
Y274447D02*
G03*
X418000Y274387I28288J-39D01*
G01*
X454963Y320250D02*
G03*
X452835Y319364I0J-3000D01*
G01*
X426000Y117743D02*
G03*
X426869Y115631I3000J0D01*
G01*
X415934Y112777D02*
G03*
X417555Y115288I-4934J4965D01*
G01*
X1626443Y340950D02*
G03*
X1624328Y340078I0J-3000D01*
G01*
X413128Y115627D02*
G03*
X414000Y117742I-2128J2115D01*
G01*
X1632258Y303742D02*
G03*
X1634393Y302850I2134J2108D01*
G01*
X410872Y107715D02*
G03*
X410000Y105600I2128J-2115D01*
G01*
X417808Y115958D02*
G03*
X418000Y117015I-2808J1057D01*
G01*
X1626042Y316045D02*
G03*
X1626212Y315941I1651J2505D01*
G01*
D02*
G03*
X1627693Y315550I1481J2609D01*
G01*
X1618902Y328250D02*
X1672700Y328250D01*
X1616433Y328080D02*
Y328080D01*
X420182Y298025D02*
X421185Y299028D01*
X454963Y328250D02*
X1614495Y328250D01*
X1625044Y316703D02*
X1626042Y316045D01*
X424084Y112760D02*
X429093Y107751D01*
X418383Y301883D02*
X418390Y301890D01*
X1617353Y333103D02*
X1624328Y340078D01*
X1618724Y322837D02*
X1618905Y322702D01*
X454963Y324250D02*
X1614495Y324250D01*
X429131Y107712D02*
X429134Y107709D01*
X454963Y332250D02*
X1614495Y332250D01*
X418401Y301901D02*
X444327Y327826D01*
X421224Y299067D02*
X447173Y325016D01*
X424057Y296243D02*
X450002Y322188D01*
X1617402Y328065D02*
X1618476Y328220D01*
X421185Y299028D02*
X421198Y299041D01*
X1619473Y322183D02*
X1624554Y317102D01*
X1619260Y322396D02*
X1619430Y322226D01*
X422000Y117743D02*
Y291287D01*
X417363Y300863D02*
X418365Y301865D01*
X414000Y274449D02*
Y292787D01*
X418000Y274447D02*
Y292787D01*
X426875Y293405D02*
X452835Y319364D01*
X454963Y320250D02*
X1614495D01*
X1616629Y319371D02*
X1632258Y303742D01*
X426000Y117743D02*
Y291287D01*
X1614495Y320250D02*
X1614507Y320250D01*
X454963D02*
X454963Y320250D01*
X417555Y115288D02*
X417808Y115958D01*
X410872Y107715D02*
X415934Y112777D01*
X1626443Y340950D02*
X1647300D01*
X414000Y117742D02*
X414000Y274408D01*
X414000Y117742D02*
X414000Y117742D01*
X390000Y92500D02*
X413128Y115627D01*
X430000Y105598D02*
X430000Y105579D01*
Y92500D02*
Y105579D01*
X418000Y117015D02*
X418000Y274387D01*
X410000Y92500D02*
Y105600D01*
X426869Y115631D02*
X450000Y92500D01*
X1627693Y315550D02*
X1647300D01*
X1634393Y302850D02*
X1672700D01*
D36*
X290000Y40000D02*
D03*
X310000Y40000D02*
D03*
X470000Y40000D02*
D03*
X530000Y40000D02*
D03*
X570000Y40000D02*
D03*
X1350001Y40000D02*
D03*
X1390001Y40000D02*
D03*
X1410001D02*
D03*
D39*
X1672700Y302850D02*
D03*
Y328250D02*
D03*
X1647300Y315550D02*
D03*
X1672700Y353650D02*
D03*
X1647300Y340950D02*
D03*
Y366350D02*
D03*
X1672700Y404450D02*
D03*
Y429850D02*
D03*
X1647300Y391750D02*
D03*
D41*
X1163500Y389000D02*
D03*
X676500Y82000D02*
D03*
D42*
X1451498Y103167D02*
D03*
X1447750Y97750D02*
D03*
X1458998Y103167D02*
D03*
X1455250Y97750D02*
D03*
X310000Y92500D02*
D03*
X470000D02*
D03*
X1477749Y97749D02*
D03*
X1473993Y103167D02*
D03*
X1462750Y97750D02*
D03*
X1466498Y103167D02*
D03*
X1470250Y97750D02*
D03*
X1370000Y122500D02*
D03*
X1298750Y95000D02*
D03*
X1316250D02*
D03*
X610000Y122500D02*
D03*
X420000Y92500D02*
D03*
X494500Y128000D02*
D03*
X345500Y108696D02*
D03*
X721254Y207081D02*
D03*
X725000Y212500D02*
D03*
X728745Y217919D02*
D03*
X752006Y142500D02*
D03*
X721244Y217918D02*
D03*
X717499Y212499D02*
D03*
X685000Y247500D02*
D03*
X702500Y212500D02*
D03*
X706250Y217919D02*
D03*
X706254Y207081D02*
D03*
X710000Y212500D02*
D03*
X713755Y207082D02*
D03*
X713745Y217919D02*
D03*
X728754Y207081D02*
D03*
X732500Y212500D02*
D03*
X886250Y217919D02*
D03*
X882500Y212500D02*
D03*
X865000Y247500D02*
D03*
X932006Y142500D02*
D03*
X901244Y217918D02*
D03*
X901254Y207081D02*
D03*
X905000Y212500D02*
D03*
X908745Y217919D02*
D03*
X908754Y207081D02*
D03*
X912500Y212500D02*
D03*
X893745Y217919D02*
D03*
X893755Y207082D02*
D03*
X897499Y212499D02*
D03*
X890000Y212500D02*
D03*
X886254Y207081D02*
D03*
X1070000Y212500D02*
D03*
X1066253Y207079D02*
D03*
X1066248Y217917D02*
D03*
X1062500Y212500D02*
D03*
X1045000Y247500D02*
D03*
X1073743Y217917D02*
D03*
X1073753Y207080D02*
D03*
X1077499Y212499D02*
D03*
X1081242Y217916D02*
D03*
X1081253Y207079D02*
D03*
X1085000Y212500D02*
D03*
X1088743Y217917D02*
D03*
X1088753Y207079D02*
D03*
X1092500Y212500D02*
D03*
X1107506Y123500D02*
D03*
X1120000Y120000D02*
D03*
X1067498Y181000D02*
D03*
X450000Y92500D02*
D03*
X430000D02*
D03*
X410000D02*
D03*
X390000Y92500D02*
D03*
X1540000Y17500D02*
D03*
D43*
X1605000Y180000D02*
D03*
X1625000Y195000D02*
D03*
X1605000D02*
D03*
X1615000D02*
D03*
X1610000Y187500D02*
D03*
X1600000D02*
D03*
X1570000Y202500D02*
D03*
X1580000D02*
D03*
X1590000D02*
D03*
X1600000D02*
D03*
X1610000D02*
D03*
X1620000D02*
D03*
X1615000Y210000D02*
D03*
X1605000D02*
D03*
X1595000D02*
D03*
X1585000D02*
D03*
X1575000D02*
D03*
X1565000D02*
D03*
D45*
X310000Y27400D02*
G03*
X319900Y17500I9900J0D01*
G01*
X1349805D02*
X1540000D01*
X319900D02*
X1349805D01*
X310000Y27400D02*
Y40000D01*
X1349805Y17500D02*
Y39804D01*
X470000Y17500D02*
Y40000D01*
D47*
X1120000Y131000D02*
G03*
X1115500Y135500I-4500J0D01*
G01*
X1067498Y140000D02*
G03*
X1071998Y135500I4500J0D01*
G01*
X1045000Y128000D02*
G03*
X1049500Y123500I4500J0D01*
G01*
X865000Y147000D02*
G03*
X869500Y142500I4500J0D01*
G01*
X1120000Y120000D02*
Y131000D01*
X1067498Y140000D02*
Y181000D01*
X1071998Y135500D02*
X1115500D01*
X1045000Y128000D02*
Y247500D01*
X1049500Y123500D02*
X1107506D01*
X869500Y142500D02*
X932006D01*
X865000Y147000D02*
Y215000D01*
X865000Y247500D02*
X865000Y215000D01*
D48*
X685000Y146310D02*
G03*
X688810Y142500I3810J0D01*
G01*
X752006D01*
X685000Y146310D02*
Y247500D01*
M02*
