M48
;Layer_Color=9474304
;FILE_FORMAT=4:4
METRIC,LZ
;TYPE=PLATED
T3F00S00C0.7500
;TYPE=NON_PLATED
%
G90
G05
T03
G00X0016625Y0004
M15
G01X0017375
M16
G00X0018625Y0004
M15
G01X0019375
M16
G00X0020625Y0004
M15
G01X0021375
M16
G00X0022625Y0004
M15
G01X0023375
M16
G00X0028875Y0004
M15
G01X0029125
M16
G00X0030875Y0004
M15
G01X0031125
M16
G00X0032875Y0004
M15
G01X0033125
M16
G00X0034875Y0004
M15
G01X0035125
M16
G00X0036875Y0004
M15
G01X0037125
M16
G00X0038875Y0004
M15
G01X0039125
M16
G00X0040875Y0004
M15
G01X0041125
M16
G00X0042875Y0004
M15
G01X0043125
M16
G00X0044875Y0004
M15
G01X0045125
M16
G00X0046875Y0004
M15
G01X0047125
M16
G00X0048875Y0004
M15
G01X0049125
M16
G00X0050875Y0004
M15
G01X0051125
M16
G00X0052875Y0004
M15
G01X0053125
M16
G00X0054875Y0004
M15
G01X0055125
M16
G00X0056875Y0004
M15
G01X0057125
M16
G00X0058875Y0004
M15
G01X0059125
M16
G00X0060875Y0004
M15
G01X0061125
M16
G00X0062875Y0004
M15
G01X0063125
M16
G00X0064875Y0004
M15
G01X0065125
M16
G00X0066875Y0004
M15
G01X0067125
M16
G00X0068875Y0004
M15
G01X0069125
M16
G00X0070875Y0004
M15
G01X0071125
M16
G00X0072875Y0004
M15
G01X0073125
M16
G00X0074875Y0004
M15
G01X0075125
M16
G00X0076875Y0004
M15
G01X0077125
M16
G00X0078875Y0004
M15
G01X0079125
M16
G00X0080875Y0004
M15
G01X0081125
M16
G00X0082875Y0004
M15
G01X0083125
M16
G00X0084875Y0004
M15
G01X0085125
M16
G00X0086875Y0004
M15
G01X0087125
M16
G00X0088875Y0004
M15
G01X0089125
M16
G00X0090875Y0004
M15
G01X0091125
M16
G00X0092875Y0004
M15
G01X0093125
M16
G00X0094875Y0004
M15
G01X0095125
M16
G00X00968751Y0004
M15
G01X0097125
M16
G00X0098875Y0004
M15
G01X0099125
M16
G00X01008751Y0004
M15
G01X0101125
M16
G00X01028751Y0004
M15
G01X0103125
M16
G00X0104875Y0004
M15
G01X0105125
M16
G00X01068751Y0004
M15
G01X0107125
M16
G00X0108875Y0004
M15
G01X0109125
M16
G00X01108751Y0004
M15
G01X0111125
M16
G00X01128751Y0004
M15
G01X0113125
M16
G00X01148751Y0004
M15
G01X01151251
M16
G00X01168751Y0004
M15
G01X01171251
M16
G00X01188751Y0004
M15
G01X01191251
M16
G00X01208751Y0004
M15
G01X01211251
M16
G00X01228751Y0004
M15
G01X01231251
M16
G00X01248751Y0004
M15
G01X01251251
M16
G00X01268751Y0004
M15
G01X01271251
M16
G00X01288751Y0004
M15
G01X01291251
M16
G00X0130875Y0004
M15
G01X0131125
M16
G00X01328751Y0004
M15
G01X01331251
M16
G00X01348751Y0004
M15
G01X01351251
M16
G00X01368751Y0004
M15
G01X0137125
M16
G00X01388751Y0004
M15
G01X01391251
M16
G00X01408751Y0004
M15
G01X01411251
M16
G00X0146625Y0004
M15
G01X0147375
M16
G00X0148625Y0004
M15
G01X0149375
M16
G00X0150625Y0004
M15
G01X0151375
M16
G00X0152625Y0004
M15
G01X0153375
M16
M17
M30
