M48
;Layer_Color=9474304
;FILE_FORMAT=4:4
METRIC,LZ
;TYPE=PLATED
T1F00S00C0.3000
T2F00S00C0.4000
T4F00S00C1.3000
T5F00S00C1.4000
;TYPE=NON_PLATED
T6F00S00C2.1000
T7F00S00C2.5000
T8F00S00C4.4000
%
T01
X00157Y00058625
X00211248Y00062917
X00218748
X00215Y000575
X002225
X0023
X00242994Y00081375
X0021925Y0009275
X002Y0008625
X0031Y000925
X003455Y00108696
X0039Y000925
X0041Y000925
X0042
X0043
X0045
X0047Y000925
X004945Y00128
X0061Y001225
X0061Y00087253
X0076Y0012
X0077Y0012
X00752006Y001425
X0074075Y00178813
Y00187188
Y00195562
X00735Y00183
X0072925Y00178813
X00728754Y00207081
X00721254
X00713755Y00207082
X00706254Y00207081
X0071Y002125
X00717499Y00212499
X00725Y002125
X007325Y002125
X00728745Y00217919
X00721244Y00217918
X00713745Y00217919
X0070625
X007025Y002125
X00685Y002475
X007475Y00345
X007575Y00345
X007675Y00345
X007775Y00345
X007875Y00345
X009275Y00345
X009375Y00345
X009475Y00345
X009575Y00345
X009675Y00345
X011075Y00345
X011175Y00345
X011275Y00345
X011375Y00345
X011475Y00345
X011275Y00236375
Y00228
Y00219625
X01088743Y00217917
X01081242Y00217916
X01073743Y00217917
X01066248
X010625Y002125
X0107
X01077499Y00212499
X01085Y002125
X010925Y002125
X01088753Y00207079
X01081253
X01073753Y0020708
X01066253Y00207079
X01067498Y00181
X01089248Y00178811
X01094998Y00182998
X01100748Y00178811
Y00187186
Y00195561
X01107506Y001235
X0112Y0012
X0112875Y0012
X011375Y0012
X01133125Y0011475
X01124375Y0011475
X0095Y0012
X0094Y0012
X00932006Y001425
X00920749Y00178812
Y00187187
Y00195562
X00914999Y00182999
X00909249Y00178812
X00908754Y00207081
X00901254
X00893755Y00207082
X00886254Y00207081
X0089Y002125
X00897499Y00212499
X00905Y002125
X009125Y002125
X00908745Y00217919
X00901244Y00217918
X00893745Y00217919
X0088625
X008825Y002125
X00865Y002475
X01045Y002475
X0129875Y00095
X0131625
X0137Y00087253
X0137Y001225
X01270492Y00064508
X015735Y000485
X0158Y000255
X01545Y00015
T02
X01465Y00195
X01475
X01485
X01495
X01505
X01515
X01525
X0152Y002025
X0151
X015
X0149
X0148
X0147
X01475Y0021
X01465
X01485
X01495
X01505
X01515
X01525
X01535
X0153Y002025
X0157
X0158
X01585Y0021
X01575
X01565
X01595
X01605
X01615
X0161Y002025
X0162
X01625Y00195
X01615
X01605
X016Y002025
X0159
X016Y001875
X0161
X01605Y0018
T04
X00673999Y00084
X01160999Y00391
T05
X016473Y0029015
Y0031555
Y0034095
Y0036635
Y0039175
X016727Y0037905
Y0035365
Y0032825
Y0030285
Y0040445
Y0042985
X016473Y0041715
T06
X016473Y0044315
T07
X016727Y0027685
T08
X0005Y0005
X0165
Y0055
X0005
M30
